<svg width="210" height="118" viewBox="0 0 210 118" fill="none" xmlns="http://www.w3.org/2000/svg">
<path d="M114.834 96.3298C113.784 95.2598 112.514 94.3999 111.024 93.7699C109.724 93.2199 108.264 92.9298 106.664 92.8598C106.694 92.8398 106.134 92.8398 106.134 92.8398C106.074 92.8398 106.014 92.8398 105.944 92.8398C105.874 92.8398 105.824 92.8398 105.754 92.8398H100.304L101.144 93.7099C101.084 93.7299 101.014 93.7498 100.954 93.7798C99.464 94.4098 98.184 95.2598 97.144 96.3398C96.094 97.4098 95.284 98.6899 94.704 100.15C94.124 101.62 93.834 103.22 93.834 104.95C93.834 106.68 94.124 108.28 94.704 109.75C95.284 111.22 96.094 112.5 97.144 113.6C98.194 114.7 99.464 115.55 100.954 116.16C101.084 116.21 101.214 116.25 101.344 116.29L100.534 117.06H105.944C107.834 117.06 109.524 116.76 111.014 116.16C112.504 115.56 113.784 114.7 114.824 113.6C115.874 112.5 116.684 111.21 117.264 109.75C117.844 108.28 118.134 106.68 118.134 104.95C118.134 103.22 117.844 101.62 117.264 100.15C116.684 98.6799 115.874 97.4098 114.824 96.3398L114.834 96.3298Z" fill="#B23D89"/>
<path d="M135.834 17.7C134.414 13.87 132.384 10.65 129.734 8.02C127.084 5.4 123.864 3.41 120.054 2.04C116.254 0.680001 111.934 0 107.114 0C102.704 0 98.634 0.64 94.884 1.93C91.134 3.22 87.854 5.17 85.054 7.79C82.244 10.41 80.034 13.74 78.404 17.78C77.554 19.9 76.914 22.23 76.494 24.76C75.854 28.59 78.774 32.1 82.654 32.1H92.634C95.544 32.1 98.044 30.08 98.714 27.25C98.814 26.83 98.924 26.43 99.054 26.04C99.604 24.36 100.314 22.97 101.174 21.87C102.044 20.77 102.994 19.97 104.044 19.47C105.094 18.97 106.114 18.72 107.114 18.72C112.774 18.72 115.614 23.1 115.614 31.86C115.614 33.75 115.364 35.51 114.864 37.13C114.364 38.76 113.684 40.33 112.814 41.85C111.944 43.37 110.914 44.88 109.704 46.37C108.494 47.87 107.184 49.4 105.774 50.97C103.884 52.96 102.304 54.98 101.014 57.03C99.724 59.08 98.704 61.28 97.944 63.64C97.184 66 96.644 68.58 96.334 71.39C96.234 72.27 96.154 73.18 96.084 74.12C95.824 77.76 98.674 80.87 102.314 80.87H109.544C112.734 80.87 115.364 78.46 115.754 75.3C115.754 75.28 115.754 75.27 115.754 75.25C115.964 73.55 116.294 71.95 116.734 70.45C117.184 68.96 117.784 67.53 118.544 66.16C119.304 64.8 120.264 63.43 121.414 62.07C123.514 59.71 125.554 57.39 127.554 55.11C129.544 52.83 131.304 50.47 132.824 48.03C134.344 45.59 135.574 42.98 136.524 40.2C137.464 37.42 137.944 34.33 137.944 30.92C137.944 25.94 137.234 21.53 135.824 17.7H135.834Z" fill="#B23D89"/>
<path d="M97.1839 80.87C93.5339 80.87 90.6939 77.76 90.9539 74.12C91.0239 73.17 91.1039 72.26 91.2039 71.39C91.5139 68.59 92.0539 66 92.8139 63.64C93.5739 61.28 94.5939 59.08 95.8839 57.03C97.1639 54.99 98.7539 52.97 100.644 50.97C102.064 49.4 103.374 47.86 104.574 46.37C105.784 44.87 106.814 43.37 107.684 41.85C108.554 40.33 109.234 38.76 109.734 37.13C110.234 35.51 110.484 33.75 110.484 31.86C110.484 23.1 107.654 18.72 101.984 18.72C100.984 18.72 99.9639 18.97 98.9139 19.47C97.8639 19.97 96.9039 20.77 96.0439 21.87C95.1839 22.97 94.4739 24.36 93.9239 26.04C93.7939 26.42 93.6839 26.83 93.5839 27.25C92.9139 30.08 90.4139 32.1 87.5039 32.1H77.5239C73.6439 32.1 70.7239 28.59 71.3639 24.76C71.7839 22.23 72.4239 19.9 73.2739 17.78C74.8939 13.74 77.1139 10.41 79.9239 7.79C82.7339 5.17 86.0039 3.22 89.7539 1.93C93.5039 0.65 97.5839 0 101.984 0C106.804 0 111.124 0.680001 114.924 2.04C118.724 3.4 121.954 5.4 124.604 8.02C127.254 10.64 129.284 13.87 130.704 17.7C132.124 21.53 132.824 25.93 132.824 30.92C132.824 34.33 132.354 37.42 131.404 40.2C130.464 42.98 129.224 45.59 127.704 48.03C126.184 50.47 124.424 52.83 122.434 55.11C120.444 57.39 118.364 59.69 116.294 62.07C115.124 63.42 114.184 64.8 113.424 66.16C112.664 67.52 112.064 68.95 111.614 70.45C111.164 71.94 110.844 73.55 110.634 75.25C110.634 75.27 110.634 75.28 110.634 75.3C110.244 78.47 107.614 80.87 104.424 80.87H97.1939H97.1839ZM88.6839 104.94C88.6839 103.21 88.9739 101.61 89.5439 100.14C90.1239 98.67 90.9339 97.4 91.9839 96.33C93.0339 95.26 94.3039 94.4 95.8039 93.77C97.2939 93.14 98.9639 92.83 100.794 92.83C102.624 92.83 104.374 93.14 105.864 93.77C107.354 94.4 108.634 95.25 109.684 96.33C110.734 97.4 111.544 98.68 112.124 100.14C112.704 101.61 112.994 103.21 112.994 104.94C112.994 106.67 112.704 108.27 112.124 109.74C111.544 111.21 110.734 112.49 109.684 113.59C108.634 114.69 107.364 115.54 105.864 116.15C104.364 116.75 102.674 117.06 100.794 117.06C98.9139 117.06 97.2939 116.76 95.8039 116.15C94.3039 115.55 93.0339 114.69 91.9839 113.59C90.9339 112.49 90.1239 111.2 89.5439 109.74C88.9639 108.27 88.6839 106.67 88.6839 104.94Z" fill="#E54898"/>
<path d="M52.2738 91.1103C51.4038 90.6003 50.4338 90.2703 49.3638 90.1303C48.4238 90.0103 47.4338 90.0703 46.3938 90.3103C46.4138 90.2903 46.0538 90.3903 46.0538 90.3903C46.0138 90.4003 45.9738 90.4103 45.9338 90.4203C45.8938 90.4303 45.8538 90.4503 45.8138 90.4603L42.2938 91.4203L42.9838 91.8303C42.9838 91.8303 42.9038 91.8803 42.8738 91.9103C42.0238 92.5803 41.3438 93.3503 40.8638 94.2303C40.3738 95.1103 40.0738 96.0703 39.9638 97.1203C39.8438 98.1703 39.9438 99.2503 40.2438 100.37C40.5438 101.49 41.0138 102.47 41.6438 103.32C42.2738 104.17 43.0238 104.85 43.8938 105.38C44.7638 105.91 45.7338 106.23 46.8038 106.36C46.8938 106.37 46.9838 106.37 47.0838 106.38L46.6938 107.02L50.1838 106.07C51.4038 105.74 52.4438 105.25 53.3038 104.59C54.1638 103.94 54.8338 103.17 55.3138 102.27C55.7938 101.37 56.0938 100.4 56.2138 99.3503C56.3238 98.3003 56.2338 97.2203 55.9338 96.1003C55.6338 94.9803 55.1638 94.0003 54.5338 93.1603C53.9038 92.3103 53.1538 91.6403 52.2938 91.1303L52.2738 91.1103Z" fill="#56ADE8"/>
<path d="M52.0339 36.6801C50.4439 34.4601 48.5739 32.7301 46.4039 31.5101C44.2339 30.2801 41.8039 29.5601 39.1139 29.3501C36.4239 29.1401 33.5139 29.4501 30.4039 30.3001C27.5639 31.0701 25.0439 32.2001 22.8439 33.6901C20.6539 35.1801 18.8739 37.0101 17.5239 39.2001C16.1739 41.3901 15.3239 43.9201 14.9839 46.8101C14.8039 48.3301 14.8039 49.9401 14.9839 51.6501C15.2439 54.2301 17.7439 55.9901 20.2439 55.3001L26.6839 53.5501C28.5639 53.0401 29.8239 51.3001 29.7639 49.3501C29.7639 49.0601 29.7639 48.7801 29.7639 48.5101C29.8239 47.3301 30.0339 46.3101 30.4039 45.4501C30.7739 44.5901 31.2439 43.9001 31.8339 43.4001C32.4239 42.8901 33.0439 42.5501 33.6839 42.3801C37.3439 41.3901 39.9339 43.7201 41.4739 49.3701C41.8039 50.5901 41.9539 51.7701 41.9139 52.9001C41.8739 54.0401 41.7139 55.1701 41.4239 56.3101C41.1339 57.4401 40.7239 58.6001 40.2139 59.7701C39.7039 60.9401 39.1239 62.1701 38.4839 63.4301C37.6139 65.0501 36.9439 66.6301 36.4739 68.1701C36.0039 69.7201 35.7339 71.3201 35.6539 72.9701C35.5739 74.6301 35.6839 76.3901 35.9739 78.2501C36.0639 78.8301 36.1739 79.4401 36.2939 80.0601C36.7639 82.4501 39.1439 83.9601 41.5039 83.3201L46.1739 82.0501C48.2339 81.4901 49.5139 79.4701 49.2039 77.3601C49.0339 76.1901 48.9639 75.1001 48.9939 74.0601C49.0239 73.0201 49.1539 71.9901 49.4139 70.9801C49.6639 69.9701 50.0439 68.9201 50.5439 67.8401C51.4839 65.9501 52.3939 64.0901 53.2839 62.2701C54.1739 60.4501 54.8839 58.6201 55.4439 56.7801C55.9939 54.9401 56.3339 53.0401 56.4539 51.0801C56.5739 49.1201 56.3339 47.0401 55.7339 44.8401C54.8639 41.6201 53.6339 38.9101 52.0439 36.6801H52.0339Z" fill="#56ADE8"/>
<path d="M38.1739 84.2302C35.8239 84.8702 33.4339 83.3602 32.9639 80.9702C32.8439 80.3502 32.7339 79.7402 32.6439 79.1602C32.3539 77.2902 32.2439 75.5302 32.3239 73.8802C32.4039 72.2202 32.6739 70.6202 33.1439 69.0802C33.6139 67.5302 34.2839 65.9502 35.1539 64.3402C35.7939 63.0802 36.3639 61.8602 36.8839 60.6802C37.4039 59.5002 37.8039 58.3502 38.0939 57.2102C38.3839 56.0802 38.5539 54.9402 38.5839 53.8002C38.6239 52.6602 38.4739 51.4902 38.1439 50.2702C36.6039 44.6202 34.0139 42.2902 30.3539 43.2802C29.7139 43.4602 29.0939 43.8002 28.5039 44.3002C27.9139 44.8102 27.4339 45.4902 27.0739 46.3502C26.7039 47.2102 26.4939 48.2302 26.4339 49.4102C26.4239 49.6802 26.4139 49.9602 26.4339 50.2502C26.4939 52.2002 25.2339 53.9402 23.3539 54.4502L16.9139 56.2002C14.4039 56.8802 11.9139 55.1302 11.6539 52.5502C11.4839 50.8402 11.4839 49.2302 11.6539 47.7102C11.9939 44.8202 12.8439 42.2802 14.1939 40.0902C15.5439 37.9102 17.3139 36.0702 19.5139 34.5802C21.7039 33.0902 24.2239 31.9602 27.0739 31.1902C30.1839 30.3402 33.0939 30.0302 35.7839 30.2402C38.4739 30.4502 40.9039 31.1702 43.0739 32.4002C45.2439 33.6302 47.1239 35.3502 48.7039 37.5802C50.2939 39.8002 51.5239 42.5202 52.3939 45.7402C52.9939 47.9402 53.2339 50.0202 53.1139 51.9802C52.9939 53.9402 52.6539 55.8402 52.1039 57.6802C51.5539 59.5202 50.8339 61.3502 49.9439 63.1702C49.0539 64.9902 48.1239 66.8402 47.2039 68.7402C46.6839 69.8202 46.3239 70.8702 46.0639 71.8802C45.8139 72.8902 45.6739 73.9202 45.6439 74.9602C45.6139 76.0002 45.6839 77.0902 45.8539 78.2302C46.1639 80.3802 44.8839 82.3902 42.8239 82.9502L38.1539 84.2202L38.1739 84.2302ZM36.9139 101.26C36.6139 100.14 36.5139 99.0602 36.6339 98.0102C36.7439 96.9602 37.0539 96.0002 37.5339 95.1202C38.0239 94.2402 38.6939 93.4702 39.5439 92.8002C40.3939 92.1302 41.4139 91.6402 42.6039 91.3102C43.8239 90.9802 44.9739 90.8802 46.0439 91.0302C47.1139 91.1702 48.0839 91.5002 48.9539 92.0102C49.8239 92.5202 50.5639 93.2002 51.1939 94.0402C51.8239 94.8902 52.2939 95.8702 52.5939 96.9802C52.8939 98.1002 52.9939 99.1802 52.8739 100.23C52.7639 101.28 52.4639 102.25 51.9739 103.15C51.4939 104.04 50.8239 104.82 49.9639 105.47C49.1039 106.12 48.0639 106.61 46.8439 106.95C45.6639 107.27 44.5339 107.37 43.4639 107.24C42.3939 107.11 41.4239 106.79 40.5539 106.26C39.6839 105.73 38.9339 105.05 38.3039 104.2C37.6739 103.35 37.2039 102.37 36.9039 101.25L36.9139 101.26Z" fill="#7DC4F5"/>
<path d="M15.9638 74.9299C13.2238 74.7399 10.4338 74.7999 7.68376 74.8199C5.22376 74.8399 2.68376 74.7199 0.273763 75.2399C-0.0862372 75.3199 -0.0962372 75.9099 0.273763 75.9899C2.69376 76.4499 5.22376 76.2899 7.68376 76.3299C10.4338 76.3699 13.2038 76.4999 15.9638 76.4099C16.9238 76.3799 16.9138 74.9899 15.9638 74.9299Z" fill="#B3E0FF"/>
<path d="M15.7039 94.2002C14.0239 94.3902 12.4339 95.1602 10.8939 95.8302C9.00392 96.6502 7.08392 97.5502 5.42392 98.7902C4.88392 99.1902 5.33392 99.9502 5.94392 99.6802C7.62392 98.9502 9.23392 98.0502 10.9139 97.3102C12.5739 96.5802 14.4139 96.1402 15.9839 95.2402C16.4339 94.9902 16.2739 94.1402 15.7039 94.2102V94.2002Z" fill="#B3E0FF"/>
<path d="M25.9239 102.96C24.5139 104.28 23.5339 106.02 22.4739 107.62C21.2839 109.41 19.9939 111.16 18.8739 112.99C18.3939 113.77 19.5439 114.37 20.0639 113.69C21.3739 111.99 22.5139 110.13 23.6539 108.31C24.6739 106.68 25.7939 105.05 26.3139 103.19C26.3739 102.96 26.0939 102.81 25.9239 102.97V102.96Z" fill="#B3E0FF"/>
<path d="M166.044 95.0503C165.604 94.1503 164.974 93.3403 164.154 92.6303C163.444 92.0103 162.574 91.5203 161.574 91.1403C161.594 91.1403 161.244 91.0203 161.244 91.0203C161.204 91.0103 161.164 90.9903 161.124 90.9703C161.084 90.9603 161.044 90.9503 161.004 90.9403L157.544 89.8003L157.894 90.5303C157.894 90.5303 157.804 90.5303 157.754 90.5303C156.674 90.6203 155.684 90.8903 154.794 91.3503C153.904 91.8103 153.114 92.4503 152.444 93.2603C151.764 94.0703 151.254 95.0303 150.884 96.1303C150.524 97.2303 150.364 98.3103 150.424 99.3603C150.484 100.41 150.734 101.4 151.164 102.32C151.604 103.24 152.224 104.05 153.054 104.74C153.124 104.8 153.204 104.85 153.274 104.91L152.594 105.23L156.034 106.37C157.234 106.77 158.374 106.93 159.444 106.86C160.524 106.79 161.504 106.52 162.404 106.04C163.304 105.56 164.084 104.91 164.764 104.1C165.434 103.29 165.954 102.33 166.324 101.23C166.684 100.13 166.834 99.0503 166.784 98.0003C166.724 96.9503 166.474 95.9703 166.034 95.0703L166.044 95.0503Z" fill="#56ADE8"/>
<path d="M195.874 49.5101C195.774 46.7801 195.164 44.3101 194.034 42.0901C192.904 39.8701 191.274 37.9301 189.144 36.2601C187.014 34.6001 184.414 33.2601 181.354 32.2501C178.554 31.3301 175.834 30.8801 173.184 30.9101C170.534 30.9401 168.044 31.4901 165.714 32.5701C163.384 33.6501 161.274 35.3001 159.394 37.5201C158.404 38.6901 157.514 40.0301 156.714 41.5501C155.504 43.8501 156.624 46.6901 159.084 47.5001L165.424 49.5901C167.274 50.2001 169.284 49.4401 170.304 47.7801C170.454 47.5301 170.614 47.3001 170.774 47.0901C171.474 46.1401 172.214 45.4101 172.994 44.8901C173.774 44.3701 174.554 44.0701 175.324 43.9701C176.094 43.8701 176.794 43.9301 177.434 44.1401C181.034 45.3301 181.914 48.7001 180.074 54.2701C179.674 55.4701 179.154 56.5301 178.494 57.4601C177.834 58.3901 177.074 59.2501 176.204 60.0301C175.334 60.8201 174.364 61.5501 173.284 62.2501C172.204 62.9501 171.054 63.6501 169.824 64.3501C168.204 65.2201 166.774 66.1701 165.534 67.2001C164.284 68.2301 163.174 69.4101 162.204 70.7501C161.224 72.0901 160.344 73.6201 159.554 75.3301C159.304 75.8701 159.064 76.4301 158.824 77.0101C157.894 79.2601 159.054 81.8401 161.364 82.6001L165.954 84.1201C167.984 84.7901 170.154 83.8101 171.064 81.8801C171.564 80.8101 172.114 79.8601 172.714 79.0101C173.314 78.1501 173.994 77.3701 174.764 76.6701C175.534 75.9601 176.424 75.3001 177.444 74.6701C179.274 73.6101 181.054 72.5701 182.804 71.5401C184.544 70.5101 186.154 69.3801 187.634 68.1501C189.114 66.9201 190.444 65.5201 191.624 63.9501C192.804 62.3801 193.754 60.5201 194.474 58.3501C195.514 55.1901 195.994 52.2401 195.894 49.5101H195.874Z" fill="#56ADE8"/>
<path d="M158.074 81.5303C155.754 80.7703 154.604 78.1903 155.534 75.9403C155.774 75.3503 156.024 74.7903 156.264 74.2603C157.054 72.5403 157.934 71.0203 158.914 69.6803C159.894 68.3403 161.004 67.1603 162.244 66.1303C163.484 65.1003 164.924 64.1503 166.534 63.2803C167.764 62.5803 168.914 61.8803 169.994 61.1803C171.074 60.4803 172.044 59.7403 172.914 58.9603C173.784 58.1803 174.544 57.3203 175.204 56.3903C175.864 55.4603 176.384 54.4003 176.784 53.2003C178.624 47.6403 177.744 44.2603 174.144 43.0703C173.514 42.8603 172.814 42.8103 172.044 42.9003C171.274 43.0003 170.494 43.3003 169.714 43.8203C168.934 44.3403 168.194 45.0703 167.494 46.0203C167.334 46.2403 167.174 46.4703 167.024 46.7103C166.004 48.3703 163.994 49.1303 162.144 48.5203L155.804 46.4303C153.334 45.6203 152.224 42.7803 153.434 40.4803C154.234 38.9603 155.124 37.6203 156.114 36.4503C157.994 34.2303 160.094 32.5803 162.434 31.5003C164.764 30.4203 167.254 29.8703 169.904 29.8403C172.554 29.8103 175.284 30.2603 178.074 31.1803C181.134 32.1903 183.734 33.5303 185.864 35.1903C187.994 36.8503 189.624 38.8003 190.754 41.0203C191.884 43.2403 192.504 45.7203 192.594 48.4403C192.694 51.1703 192.214 54.1103 191.174 57.2803C190.464 59.4503 189.514 61.3103 188.324 62.8803C187.144 64.4503 185.814 65.8503 184.334 67.0803C182.854 68.3103 181.244 69.4403 179.504 70.4703C177.764 71.5003 175.964 72.5203 174.144 73.6003C173.114 74.2103 172.234 74.8903 171.464 75.6003C170.694 76.3103 170.014 77.0903 169.414 77.9403C168.814 78.8003 168.274 79.7403 167.784 80.7803C166.864 82.7403 164.684 83.7203 162.654 83.0503L158.064 81.5303H158.074ZM147.624 95.0403C147.984 93.9403 148.504 92.9903 149.184 92.1703C149.854 91.3603 150.644 90.7203 151.534 90.2603C152.424 89.8003 153.414 89.5203 154.494 89.4403C155.574 89.3503 156.694 89.5003 157.864 89.8903C159.064 90.2903 160.074 90.8403 160.884 91.5503C161.704 92.2603 162.334 93.0703 162.774 93.9703C163.214 94.8703 163.464 95.8503 163.524 96.9003C163.584 97.9503 163.434 99.0303 163.064 100.13C162.704 101.23 162.184 102.18 161.504 103C160.834 103.81 160.044 104.46 159.144 104.94C158.244 105.42 157.264 105.69 156.184 105.76C155.104 105.83 153.974 105.67 152.774 105.27C151.604 104.88 150.614 104.34 149.794 103.65C148.974 102.95 148.344 102.15 147.904 101.23C147.464 100.31 147.224 99.3203 147.164 98.2703C147.104 97.2203 147.254 96.1403 147.624 95.0403Z" fill="#7DC4F5"/>
<path d="M184.074 113.8C181.354 110.17 178.814 106.16 175.634 102.91C175.154 102.42 174.534 103.22 174.894 103.59C177.054 107.48 180.104 111.01 182.744 114.58C183.324 115.37 184.654 114.6 184.064 113.81L184.074 113.8Z" fill="#B3E0FF"/>
<path d="M193.614 94.2302C191.474 92.7602 189.284 91.4702 186.894 90.4602C186.384 90.2402 186.114 91.0402 186.534 91.3202C188.644 92.7202 190.784 94.0802 192.854 95.5402C193.654 96.1002 194.424 94.7802 193.624 94.2302H193.614Z" fill="#B3E0FF"/>
<path d="M209.194 76.5699C205.194 75.5699 200.214 74.5099 196.094 75.1199C195.644 75.1899 195.704 75.8599 196.094 75.9699C200.134 77.0899 204.644 77.2799 208.794 78.0399C209.744 78.2099 210.164 76.8099 209.194 76.5699Z" fill="#B3E0FF"/>
</svg>
