<svg width="232" height="220" viewBox="0 0 232 220" fill="none" xmlns="http://www.w3.org/2000/svg">
<g opacity="0.75" clip-path="url(#clip0_1040_1758)">
<path d="M149.417 95.8193V121.036C149.417 121.036 139.949 115.864 135.746 107.711C134.806 105.886 134.129 103.913 133.882 101.812V77.9351C133.882 77.9351 136.161 79.3195 138.97 81.505C143.504 85.0255 149.422 90.6177 149.422 95.8143L149.417 95.8193Z" fill="#F7931E"/>
<path opacity="0.5" d="M133.882 77.9351V79.5915C138.273 82.6719 146.92 89.5299 146.92 95.8143V119.469C148.419 120.487 149.417 121.036 149.417 121.036V95.8193C149.417 87.3939 133.882 77.94 133.882 77.94V77.9351Z" fill="#CC7B19"/>
<path opacity="0.5" d="M138.965 81.505V101.55C138.965 101.55 137.027 104.576 135.746 107.711C134.806 105.886 134.129 103.913 133.882 101.812V77.9351C133.882 77.9351 136.161 79.3195 138.97 81.505H138.965Z" fill="#CC7B19"/>
<path d="M203.525 202.363C203.525 202.496 203.52 202.635 203.51 202.763C203.406 204.257 202.719 205.592 201.676 206.541V209.854H125.471V188.815C125.471 182.535 129.605 177.22 135.296 175.44C136.616 175.025 138.02 174.802 139.479 174.802C145.566 174.802 150.743 178.679 152.676 184.103C153.546 183.831 154.471 183.678 155.43 183.678C159.489 183.678 162.931 186.323 164.132 189.982C164.676 189.848 165.25 189.779 165.838 189.779C168.152 189.779 170.219 190.852 171.564 192.523C174.313 189.156 178.491 187.005 183.178 187.005C189.611 187.005 195.1 191.06 197.221 196.756C197.438 196.731 197.661 196.716 197.883 196.716C200.998 196.716 203.525 199.243 203.525 202.358V202.363Z" fill="#67CDF5"/>
<path opacity="0.7" d="M203.51 202.763C203.406 204.257 202.719 205.592 201.676 206.541V209.854H125.471V199.154C128.107 199.787 130.574 200.875 132.774 202.318C136.003 194.18 143.944 188.424 153.235 188.424C162.525 188.424 170.496 194.199 173.71 202.363C174.313 202.254 174.936 202.195 175.569 202.195C179.935 202.195 183.673 204.885 185.22 208.692C186.709 207.767 188.469 207.233 190.348 207.233C192.227 207.233 194.056 207.792 195.564 208.751C197.379 205.893 200.187 203.732 203.505 202.763H203.51Z" fill="#9ADBF8"/>
<path d="M110.638 195.288C110.638 202.951 105.501 209.414 98.4843 211.426C98.4695 211.426 98.4546 211.431 98.4398 211.436C96.9812 211.852 95.4435 212.074 93.8513 212.074H35.5113C35.2938 211.372 35.1702 210.625 35.1702 209.854C35.1702 208.603 35.4767 207.421 36.0206 206.388C37.2716 203.995 39.7735 202.363 42.6611 202.363C43.1061 202.363 43.5362 202.403 43.9615 202.477C45.5684 196.346 51.1458 191.816 57.7813 191.816C60.9754 191.816 63.9224 192.865 66.3056 194.635C68.4416 191.431 72.0906 189.32 76.2341 189.32C76.872 189.32 77.495 189.369 78.1031 189.468C80.4666 183.065 86.6274 178.501 93.8513 178.501C94.4595 178.501 95.0578 178.531 95.6511 178.595C104.077 179.49 110.638 186.62 110.638 195.283V195.288Z" fill="#19ADD8"/>
<path opacity="0.7" d="M98.4448 211.436C96.9861 211.852 95.4484 212.074 93.8563 212.074H35.5113C35.2938 211.372 35.1702 210.625 35.1702 209.854C35.1702 208.603 35.4767 207.421 36.0206 206.388C37.3804 207.144 38.6264 208.079 39.7389 209.152C41.2173 208.529 42.8391 208.183 44.5449 208.183C46.4683 208.183 48.2928 208.623 49.9146 209.404C52.0803 206.165 55.7738 204.029 59.9618 204.029C61.3314 204.029 62.6417 204.262 63.868 204.677C66.627 198.264 73.0004 193.77 80.4271 193.77C87.201 193.77 93.1047 197.513 96.1802 203.04C97.5696 205.532 98.3805 208.39 98.4398 211.436H98.4448Z" fill="#9ADBF8"/>
<path opacity="0.7" d="M110.638 195.287C110.638 202.951 105.5 209.414 98.4842 211.426H79.6161C87.4185 203.53 92.447 191.589 95.6511 178.6C104.076 179.495 110.638 186.625 110.638 195.287Z" fill="#9ADBF8"/>
<path opacity="0.7" d="M150.604 209.854H125.471V188.815C125.471 182.536 129.605 177.22 135.296 175.44C136.438 180.583 137.847 185.601 139.578 190.313C142.347 197.844 145.941 204.603 150.599 209.854H150.604Z" fill="#9ADBF8"/>
<path d="M149.111 211.426H82.5779C86.6422 206.951 89.8858 201.171 92.4669 194.64C99.4336 177.027 101.609 153.927 102.109 136.067C102.336 128.067 102.227 121.12 102.059 116.185C101.926 112.279 101.762 109.629 101.698 108.719H129.986C129.921 109.629 129.758 112.274 129.625 116.185C129.457 121.12 129.348 128.072 129.575 136.072C130.035 152.508 131.914 173.373 137.635 190.318C140.438 198.625 144.166 205.992 149.106 211.431L149.111 211.426Z" fill="#9ADBF8"/>
<path d="M122.495 108.714H109.199C109.244 112.497 109.733 178.476 91.2159 216.143H140.478C121.961 178.481 122.45 112.497 122.495 108.714Z" fill="#CFEDFC"/>
<path d="M118.356 108.714H113.333C113.352 112.497 113.535 178.476 106.544 216.143H125.145C118.153 178.481 118.336 112.497 118.356 108.714Z" fill="white"/>
<path opacity="0.7" d="M104.952 211.426H82.5779C86.6422 206.951 89.8858 201.171 92.4669 194.64C96.8477 196.049 100.492 199.09 102.692 203.045C104.081 205.537 104.892 208.39 104.952 211.426Z" fill="#9ADBF8"/>
<path opacity="0.7" d="M149.111 211.426H92.4174C96.2444 203.763 104.165 198.502 113.313 198.502C118.035 198.502 122.43 199.906 126.104 202.319C128.225 196.964 132.394 192.642 137.64 190.309C140.443 198.615 144.171 205.983 149.111 211.422V211.426Z" fill="#9ADBF8"/>
<path opacity="0.7" d="M129.58 136.062C128.898 138.782 127.627 141.793 125.363 144.725L124.838 141.724L124.319 138.722C124.319 138.722 123.498 140.789 122.035 143.751C120.571 146.713 115.839 154.248 115.839 154.248C115.839 154.248 111.108 146.713 109.644 143.751C108.18 140.789 107.36 138.722 107.36 138.722L106.84 141.724L106.321 144.725C104.057 141.788 102.786 138.777 102.104 136.062C102.331 128.062 102.222 121.115 102.054 116.181C102.366 115.864 102.652 115.607 102.895 115.409H128.784C129.026 115.607 129.313 115.859 129.625 116.176C129.457 121.11 129.348 128.062 129.575 136.062H129.58Z" fill="#9ADBF8"/>
<path d="M136.75 100.373C136.75 100.373 133.051 104.823 132.062 107.439C131.973 107.681 131.879 107.923 131.79 108.176C130.92 110.574 130.213 112.986 130.213 112.986H101.481C101.481 112.986 100.769 110.574 99.9034 108.176C99.8144 107.928 99.7254 107.681 99.6315 107.439C98.6475 104.823 94.9441 100.373 94.9441 100.373L96.645 98.959H135.044L136.745 100.373H136.75Z" fill="#E6E6E6"/>
<path d="M132.235 128.463L131.088 125.545L129.946 122.638C129.976 122.772 130.51 125.13 130.233 128.547C129.946 132.062 128.799 136.695 125.367 141.15L124.843 138.149L124.324 135.148C124.324 135.148 123.503 137.214 122.04 140.176C120.576 143.138 115.844 150.673 115.844 150.673C115.844 150.673 111.112 143.138 109.649 140.176C108.185 137.214 107.365 135.148 107.365 135.148L106.845 138.149L106.326 141.15C102.89 136.69 101.743 132.062 101.461 128.547C101.184 125.13 101.713 122.767 101.743 122.638L100.601 125.545L99.4534 128.463C97.8217 123.024 98.3953 119.078 99.5671 116.349C99.7451 115.938 99.933 115.553 100.131 115.197C100.526 114.49 100.947 113.886 101.367 113.382C101.936 112.685 102.489 112.176 102.905 111.839H128.794C129.432 112.363 130.401 113.288 131.266 114.692C131.37 114.855 131.464 115.024 131.563 115.197C131.993 115.973 132.384 116.873 132.68 117.911C133.427 120.517 133.575 123.988 132.24 128.468L132.235 128.463Z" fill="#FCEE21"/>
<path opacity="0.3" d="M126.075 124.166L125.358 122.129L124.646 120.092C124.646 120.092 125.002 121.768 124.824 124.22C124.646 126.678 123.929 129.906 121.788 133.021L121.461 130.925L121.135 128.828C121.135 128.828 120.621 130.272 119.711 132.339C118.796 134.406 115.844 139.667 115.844 139.667C115.844 139.667 112.893 134.406 111.978 132.339C111.063 130.272 110.554 128.828 110.554 128.828L110.227 130.925L109.901 133.021C107.755 129.906 107.043 126.678 106.865 124.22C106.687 121.768 107.043 120.092 107.043 120.092L106.331 122.129L105.614 124.166C104.596 120.368 104.957 117.614 105.683 115.706C105.792 115.419 105.911 115.147 106.035 114.9C106.618 113.718 107.315 112.962 107.76 112.556H123.919C124.364 112.962 125.061 113.718 125.644 114.9C125.911 115.439 126.159 116.072 126.342 116.794C126.806 118.613 126.9 121.036 126.065 124.166H126.075Z" fill="#F7931E"/>
<path opacity="0.3" d="M121.14 119.998L120.769 118.682L120.398 117.367C120.398 117.367 120.581 118.455 120.492 120.042C120.398 121.634 120.027 123.726 118.92 125.738L118.752 124.383L118.584 123.029C118.584 123.029 118.317 123.963 117.847 125.303C117.372 126.643 115.844 130.05 115.844 130.05C115.844 130.05 114.317 126.643 113.842 125.303C113.367 123.963 113.105 123.029 113.105 123.029L112.937 124.383L112.769 125.738C111.656 123.721 111.291 121.629 111.197 120.042C111.103 118.455 111.291 117.367 111.291 117.367L110.92 118.682L110.549 119.998C110.025 117.54 110.208 115.755 110.583 114.519C110.638 114.331 110.702 114.158 110.766 114C111.068 113.233 111.429 112.744 111.661 112.482H120.027C120.26 112.744 120.621 113.233 120.922 114C121.061 114.351 121.189 114.756 121.283 115.226C121.526 116.403 121.575 117.975 121.14 119.998Z" fill="#F7931E"/>
<path opacity="0.5" d="M131.261 114.692C130.396 113.288 129.427 112.363 128.789 111.839H102.9C102.484 112.176 101.935 112.685 101.362 113.382C103.711 113.585 110.203 114.109 117.654 114.435C118.48 115.909 120.492 119.053 123.523 121.041L119.864 114.524C123.632 114.663 127.558 114.742 131.256 114.692H131.261Z" fill="#D27E1A"/>
<path d="M131.79 108.175C130.92 110.578 130.213 112.991 130.213 112.991H101.481C101.481 112.991 100.769 110.578 99.9033 108.175H131.795H131.79Z" fill="#F7931E"/>
<path d="M101.738 211.787C101.738 214.749 101.026 217.538 99.76 220H13.0634C13.9979 211.09 21.5333 204.148 30.6905 204.148C35.4866 204.148 39.8377 206.057 43.0319 209.152C44.5103 208.529 46.1321 208.183 47.8379 208.183C49.7613 208.183 51.5858 208.623 53.2076 209.404C55.3733 206.165 59.0669 204.029 63.2548 204.029C64.6245 204.029 65.9348 204.262 67.161 204.677C69.92 198.264 76.2935 193.77 83.7201 193.77C90.494 193.77 96.3977 197.513 99.4732 203.04C100.917 205.626 101.738 208.608 101.738 211.782V211.787Z" fill="#CFEDFC"/>
<path d="M16.0696 216.144L0 220H18.6654L16.0696 216.144Z" fill="#CFEDFC"/>
<path d="M215.619 216.144L231.689 220H213.023L215.619 216.144Z" fill="white"/>
<path opacity="0.7" d="M101.738 211.787C101.738 214.749 101.026 217.538 99.7599 220H90.0391C90.583 213.048 94.1726 206.952 99.4731 203.045C100.917 205.631 101.738 208.613 101.738 211.787Z" fill="#9ADBF8"/>
<path d="M218.131 220C218.452 218.823 218.625 217.582 218.625 216.307C218.625 208.514 212.311 202.2 204.519 202.2C199.505 202.2 195.109 204.816 192.608 208.756C191.099 207.797 189.31 207.239 187.391 207.239C185.473 207.239 183.752 207.773 182.264 208.697C180.716 204.885 176.983 202.2 172.617 202.2C171.984 202.2 171.361 202.259 170.758 202.368C167.544 194.205 159.588 188.43 150.283 188.43C140.977 188.43 133.051 194.185 129.822 202.324C126.149 199.911 121.753 198.507 117.026 198.507C104.754 198.507 94.6968 207.975 93.7524 220.005H218.136L218.131 220Z" fill="white"/>
<path opacity="0.7" d="M173.833 187.841C173.833 188.914 172.963 189.784 171.89 189.784C170.817 189.784 169.947 188.914 169.947 187.841C169.947 186.768 170.817 185.898 171.89 185.898C172.963 185.898 173.833 186.768 173.833 187.841Z" fill="#9ADBF8"/>
<path opacity="0.7" d="M168.469 182.387C168.469 184.123 167.059 185.532 165.324 185.532C163.588 185.532 162.179 184.123 162.179 182.387C162.179 180.652 163.588 179.243 165.324 179.243C167.059 179.243 168.469 180.652 168.469 182.387Z" fill="#9ADBF8"/>
<path opacity="0.7" d="M68.9728 195.926C70.6779 194.221 70.6779 191.456 68.9728 189.751C67.2678 188.046 64.5034 188.046 62.7984 189.751C61.0934 191.456 61.0934 194.221 62.7984 195.926C64.5034 197.631 67.2678 197.631 68.9728 195.926Z" fill="#9ADBF8"/>
<path opacity="0.7" d="M72.9064 185.621C72.9064 186.541 72.1598 187.287 71.2401 187.287C70.3205 187.287 69.5739 186.541 69.5739 185.621C69.5739 184.701 70.3205 183.955 71.2401 183.955C72.1598 183.955 72.9064 184.701 72.9064 185.621Z" fill="#9ADBF8"/>
<path opacity="0.7" d="M127.034 195.238C129.74 195.238 131.934 193.044 131.934 190.338C131.934 187.632 129.74 185.438 127.034 185.438C124.328 185.438 122.134 187.632 122.134 190.338C122.134 193.044 124.328 195.238 127.034 195.238Z" fill="#9ADBF8"/>
<path opacity="0.7" d="M102.435 200.237C103.404 200.237 104.19 199.451 104.19 198.481C104.19 197.512 103.404 196.726 102.435 196.726C101.466 196.726 100.68 197.512 100.68 198.481C100.68 199.451 101.466 200.237 102.435 200.237Z" fill="#9ADBF8"/>
<path opacity="0.5" d="M136.75 100.373C136.75 100.373 133.051 104.823 132.062 107.439C131.973 107.681 131.879 107.923 131.79 108.176C130.92 110.574 130.213 112.986 130.213 112.986H124.299C124.166 107.315 126.757 100.625 126.757 100.625V98.959H135.044L136.745 100.373H136.75Z" fill="#999999"/>
<path d="M136.75 42.5424V100.625H94.9441V42.5424C94.9441 30.5668 100.373 19.7483 105.698 12.02C105.782 11.8964 105.866 11.7778 105.951 11.6542C106.41 10.9916 106.87 10.3538 107.325 9.74558C111.83 3.65892 115.844 0 115.844 0C115.844 0 119.859 3.65892 124.364 9.74064C124.819 10.3538 125.279 10.9916 125.738 11.6492C126.065 12.114 126.391 12.5936 126.712 13.0831C131.795 20.7273 136.745 31.1058 136.745 42.5424H136.75Z" fill="white"/>
<path opacity="0.5" d="M126.717 13.0881C118.539 13.5479 108.67 12.4008 105.698 12.0201C105.782 11.8965 105.866 11.7778 105.95 11.6542C106.41 10.9916 106.87 10.3538 107.325 9.74561H124.369C124.824 10.3587 125.283 10.9966 125.743 11.6542C126.07 12.119 126.396 12.5986 126.717 13.0881Z" fill="#999999"/>
<path d="M125.743 11.6542H105.95C110.984 4.43026 115.844 0 115.844 0C115.844 0 120.71 4.43026 125.738 11.6542H125.743Z" fill="#F7931E"/>
<path opacity="0.5" d="M136.75 42.5424V100.625H126.762V40.9107C126.638 21.0536 115.849 0 115.849 0C115.849 0 119.864 3.65892 124.369 9.74064C124.824 10.3538 125.283 10.9916 125.743 11.6492C126.07 12.114 126.396 12.5936 126.717 13.0831C131.8 20.7273 136.75 31.1058 136.75 42.5424Z" fill="#999999"/>
<path d="M82.2714 95.8193V121.036C82.2714 121.036 96.4521 113.283 97.8069 101.812V77.9351C97.8069 77.9351 82.2714 87.3939 82.2714 95.8143V95.8193Z" fill="#F7931E"/>
<path opacity="0.5" d="M94.7562 79.987V101.812C93.8019 109.872 86.5187 116.097 82.2714 119.088V121.036C82.2714 121.036 96.4521 113.283 97.8069 101.812V77.9351C97.8069 77.9351 96.551 78.7015 94.7562 79.987Z" fill="#CC7B19"/>
<path d="M115.844 67.6408C123.439 67.6408 129.595 60.2425 129.595 51.1163C129.595 41.9901 123.439 34.5918 115.844 34.5918C108.25 34.5918 102.094 41.9901 102.094 51.1163C102.094 60.2425 108.25 67.6408 115.844 67.6408Z" fill="#F7931E"/>
<path opacity="0.7" d="M127.899 51.1162C127.899 59.3339 122.5 65.9941 115.844 65.9941C113.061 65.9941 110.494 64.8322 108.457 62.8742C107.582 62.0386 106.806 61.0546 106.148 59.952C105.861 59.4773 105.599 58.9829 105.362 58.4686C104.912 57.4946 104.551 56.4513 104.289 55.3585C103.968 54.0136 103.79 52.5896 103.79 51.1211C103.79 42.9034 109.189 36.2432 115.844 36.2432C117.758 36.2432 119.568 36.792 121.174 37.776C122.079 38.3248 122.915 39.0121 123.671 39.8131C124.092 40.2581 124.487 40.7377 124.853 41.247C125.59 42.2606 126.208 43.4028 126.693 44.6389C127.464 46.6019 127.899 48.7972 127.899 51.1261V51.1162Z" fill="white"/>
<path opacity="0.5" d="M122.134 102.024V112.991H117.13C115.083 107.676 115.32 101.713 115.32 101.713L116.774 99.2803L122.134 102.029V102.024Z" fill="#999999"/>
<path d="M123.528 95.8193V121.036C123.528 121.036 115.928 113.283 115.207 101.812V77.9351C115.207 77.9351 123.528 87.3939 123.528 95.8143V95.8193Z" fill="#F7931E"/>
<path opacity="0.5" d="M115.202 77.9351V79.275C117.788 82.9488 121.308 88.9761 121.308 94.5733V118.292C122.574 120.062 123.528 121.036 123.528 121.036V95.8193C123.528 87.3939 115.207 77.94 115.207 77.94L115.202 77.9351Z" fill="#CC7B19"/>
<path d="M123.677 39.8032L113.031 50.4487C112.408 51.0717 111.389 51.0717 110.766 50.4487C110.143 49.8257 110.143 48.8021 110.766 48.1791L121.175 37.771C122.079 38.3198 122.915 39.0071 123.672 39.8081L123.677 39.8032Z" fill="white"/>
<path d="M126.697 44.6292L108.457 62.8694C107.582 62.0338 106.806 61.0499 106.148 59.9472L124.858 41.2373C125.595 42.2509 126.213 43.3931 126.697 44.6292Z" fill="white"/>
<path d="M110.064 53.1483C110.064 53.529 109.921 53.9098 109.634 54.1966L105.367 58.4636C104.917 57.4896 104.556 56.4463 104.294 55.3536L107.548 52.1001C108.121 51.5265 109.066 51.5265 109.639 52.1001C109.926 52.3869 110.069 52.7676 110.069 53.1483H110.064Z" fill="white"/>
<path d="M117.699 56.8566C117.244 56.4017 117.244 55.6551 117.699 55.2002L124.324 48.5746C124.779 48.1197 125.526 48.1197 125.981 48.5746C126.435 49.0295 126.435 49.7761 125.981 50.231L119.355 56.8566C118.9 57.3115 118.153 57.3115 117.699 56.8566Z" fill="white"/>
<path d="M131.137 190.586C131.572 187.915 129.759 185.397 127.088 184.962C124.417 184.527 121.899 186.34 121.464 189.011C121.029 191.682 122.842 194.2 125.513 194.635C128.184 195.07 130.702 193.257 131.137 190.586Z" fill="white"/>
<path d="M101.693 199.678C102.663 199.678 103.449 198.892 103.449 197.923C103.449 196.953 102.663 196.167 101.693 196.167C100.724 196.167 99.938 196.953 99.938 197.923C99.938 198.892 100.724 199.678 101.693 199.678Z" fill="white"/>
<path d="M67.4364 196.454C69.4331 195.102 69.9558 192.387 68.604 190.391C67.2521 188.394 64.5376 187.871 62.541 189.223C60.5443 190.575 60.0216 193.29 61.3734 195.286C62.7253 197.283 65.4398 197.806 67.4364 196.454Z" fill="#CFEDFC"/>
<path d="M72.0065 185.621C72.0065 186.541 71.2599 187.287 70.3402 187.287C69.4206 187.287 68.674 186.541 68.674 185.621C68.674 184.701 69.4206 183.955 70.3402 183.955C71.2599 183.955 72.0065 184.701 72.0065 185.621Z" fill="#CFEDFC"/>
<path d="M171.43 188.771C172.503 188.771 173.373 187.901 173.373 186.827C173.373 185.754 172.503 184.884 171.43 184.884C170.357 184.884 169.487 185.754 169.487 186.827C169.487 187.901 170.357 188.771 171.43 188.771Z" fill="#CFEDFC"/>
<path d="M164.864 184.514C166.601 184.514 168.009 183.106 168.009 181.369C168.009 179.632 166.601 178.224 164.864 178.224C163.127 178.224 161.719 179.632 161.719 181.369C161.719 183.106 163.127 184.514 164.864 184.514Z" fill="#CFEDFC"/>
</g>
<defs>
<clipPath id="clip0_1040_1758">
<rect width="231.689" height="220" fill="white"/>
</clipPath>
</defs>
</svg>
