<svg width="220" height="221" viewBox="0 0 220 221" fill="none" xmlns="http://www.w3.org/2000/svg">
<g opacity="0.75" clip-path="url(#clip0_377_5459)">
<path d="M9.79126 137.536L12.7844 138.959C12.7844 138.959 13.9747 136.443 16.6093 137.636C17.9789 138.255 18.2578 139.483 18.2229 140.301C18.1781 141.249 17.6502 142.108 16.8583 142.627C15.9519 143.226 14.4827 143.455 12.635 142.143L10.5532 146.545L13.5115 147.952L14.2686 146.35C14.2686 146.35 18.9251 147.249 21.0966 142.667C23.1733 138.28 19.7319 135.4 18.0536 134.601C16.7687 133.993 12.2466 132.221 9.79624 137.536H9.79126Z" fill="#E0E0E0"/>
<path d="M13.0061 149.113L10.0049 147.687L8.67499 150.496L11.6762 151.923L13.0061 149.113Z" fill="#E0E0E0"/>
<path d="M38.8462 186.188L42.2278 187.146C42.2278 187.146 43.0296 184.301 45.9929 185.085C47.5318 185.494 48.0398 186.722 48.1494 187.586C48.2739 188.584 47.8705 189.572 47.1334 190.261C46.2917 191.044 44.7927 191.548 42.6312 190.5L41.2268 195.471L44.5686 196.42L45.0766 194.613C45.0766 194.613 50.1067 194.728 51.5659 189.552C52.9654 184.601 48.8566 182.19 46.9591 181.656C45.5098 181.247 40.4648 180.194 38.8462 186.188Z" fill="#E0E0E0"/>
<path d="M44.2514 197.721L40.8584 196.759L39.9626 199.934L43.3556 200.895L44.2514 197.721Z" fill="#E0E0E0"/>
<path d="M180.581 79.3363L183.818 79.3962C185.183 80.9334 186.976 82.1213 189.087 82.7551C195.158 84.5768 201.558 81.1231 203.376 75.0391C205.193 68.9551 201.747 62.5417 195.676 60.72C189.605 58.8983 183.205 62.3521 181.388 68.4361C180.626 70.9765 180.79 73.5718 181.671 75.8726L180.581 79.3363Z" fill="#F9F7FF"/>
<path d="M180.581 79.3363C180.581 79.3363 180.596 79.2664 180.641 79.1217C180.685 78.962 180.75 78.7424 180.835 78.4629C181.019 77.859 181.278 76.9856 181.622 75.8526C181.632 75.8227 181.662 75.8077 181.691 75.8177C181.701 75.8177 181.711 75.8277 181.721 75.8376L181.627 75.8925C181.089 74.525 180.636 72.5835 180.914 70.2977C181.044 69.1547 181.388 67.9519 181.95 66.7541C182.508 65.5612 183.315 64.3834 184.376 63.3602C185.437 62.3371 186.756 61.4687 188.255 60.8947C189.755 60.3157 191.438 60.0362 193.161 60.146C196.597 60.3257 200.158 62.2822 202.18 65.5113C203.206 67.1484 203.834 69.005 203.953 70.8567C204.088 72.7083 203.779 74.54 203.117 76.167C202.444 77.7941 201.418 79.2016 200.213 80.2996C199.003 81.4026 197.618 82.1961 196.209 82.6852C193.375 83.6735 190.541 83.4139 188.405 82.6054C186.238 81.7969 184.734 80.5092 183.788 79.4261L183.828 79.4461C182.782 79.4112 181.97 79.3862 181.403 79.3712C181.144 79.3613 180.939 79.3513 180.79 79.3463C180.656 79.3413 180.586 79.3363 180.591 79.3313C180.591 79.3313 180.67 79.3313 180.81 79.3313C180.964 79.3313 181.173 79.3313 181.437 79.3313C181.995 79.3313 182.797 79.3363 183.828 79.3463C183.843 79.3463 183.858 79.3513 183.868 79.3663C184.824 80.4243 186.323 81.6821 188.46 82.4607C190.576 83.2392 193.36 83.4738 196.134 82.4906C197.514 82.0015 198.873 81.2179 200.054 80.1349C201.234 79.0518 202.235 77.6743 202.888 76.0822C203.53 74.4901 203.834 72.6983 203.699 70.8866C203.585 69.0699 202.967 67.2582 201.966 65.6611C199.989 62.5018 196.518 60.5852 193.151 60.4056C189.764 60.171 186.607 61.5236 184.535 63.5299C183.489 64.5281 182.692 65.681 182.135 66.8489C181.577 68.0218 181.228 69.2046 181.089 70.3276C180.8 72.5785 181.223 74.5001 181.736 75.8626C181.746 75.8925 181.736 75.9225 181.706 75.9325C181.681 75.9425 181.657 75.9325 181.642 75.9125L181.741 75.8925C181.378 77.0005 181.099 77.854 180.905 78.4479C180.81 78.7324 180.735 78.952 180.68 79.1167C180.631 79.2664 180.596 79.3513 180.596 79.3513L180.581 79.3363Z" fill="#E0E0E0"/>
<path d="M188.579 70.1629H190.606C190.606 70.1629 190.606 68.456 192.374 68.426C193.295 68.411 193.769 69.0149 193.963 69.4741C194.187 70.0131 194.117 70.622 193.818 71.1211C193.475 71.6901 192.718 72.2042 191.353 71.9646V74.9492H193.36V73.8662C193.36 73.8662 196.174 73.1375 196.174 70.0281C196.174 66.9187 193.515 66.3647 192.374 66.3647C191.503 66.3647 188.534 66.5744 188.574 70.1629H188.579Z" fill="#E0E0E0"/>
<path d="M193.39 75.7229H191.353V77.6294H193.39V75.7229Z" fill="#E0E0E0"/>
<path d="M54.2405 17.8078H63.7529C63.7529 17.8078 63.7529 9.80226 72.055 9.66251C76.368 9.58765 78.5992 12.4175 79.5105 14.5836C80.5664 17.0991 80.2476 19.9689 78.8332 22.3046C77.2196 24.9698 73.6836 27.3954 67.2739 26.2625V40.2521H76.6817V35.1664C76.6817 35.1664 89.8746 31.7475 89.8746 17.1789C89.8696 3.23914 77.3939 0 72.055 0C67.9712 0 54.0612 0.988211 54.2405 17.8078Z" fill="#E0E0E0"/>
<path d="M76.7914 43.8806H67.2441V52.8144H76.7914V43.8806Z" fill="#E0E0E0"/>
<path d="M45.784 51.0127L38.3036 49.0113C38.3036 49.0113 36.6252 55.3049 30.0661 53.6729C26.6596 52.8244 25.4942 50.1293 25.2353 48.2327C24.9315 46.0317 25.7881 43.8407 27.3867 42.3034C29.2145 40.5466 32.5015 39.3837 37.3075 41.6247L40.2409 30.6196L32.8402 28.6382L31.7744 32.6359C31.7744 32.6359 20.6833 32.5461 17.6303 44.0054C14.7069 54.9705 23.8408 60.1412 28.0392 61.2641C31.2515 62.1226 42.3974 64.2737 45.784 51.0077V51.0127Z" fill="#EBEBEB"/>
<path d="M33.5169 25.759L41.0232 27.7676L42.8951 20.7419L35.3889 18.7333L33.5169 25.759Z" fill="#EBEBEB"/>
<path d="M190.009 135.205L196.229 135.879C196.229 135.879 196.792 130.649 202.23 131.138C205.054 131.392 206.314 133.404 206.757 134.881C207.27 136.603 206.857 138.454 205.771 139.882C204.531 141.509 202.046 142.846 197.937 141.654L196.951 150.797L203.102 151.461L203.46 148.137C203.46 148.137 212.325 146.834 213.351 137.311C214.332 128.198 206.404 125.198 202.913 124.824C200.243 124.535 191.079 124.2 190.014 135.205H190.009Z" fill="#EBEBEB"/>
<path d="M202.923 153.834L196.684 153.161L196.056 159.001L202.295 159.675L202.923 153.834Z" fill="#EBEBEB"/>
<path d="M8.72044 172.583L15.2546 171.879C15.2546 171.879 14.6619 166.379 20.3544 165.665C23.3127 165.296 25.0558 167.073 25.8377 168.495C26.7491 170.147 26.7392 172.143 25.9423 173.85C25.0309 175.802 22.7798 177.728 18.2926 177.429L19.3285 187.041L25.7929 186.343L25.4194 182.849C25.4194 182.849 34.2296 179.52 33.1538 169.513C32.1229 159.936 23.3127 158.638 19.6472 159.032C16.8433 159.337 7.35583 161.048 8.72542 172.588L8.72044 172.583Z" fill="#F5F5F5"/>
<path d="M26.1305 188.828L19.5696 189.537L20.2296 195.675L26.7905 194.967L26.1305 188.828Z" fill="#F5F5F5"/>
<path d="M202.26 108.673L206.902 107.316C206.902 107.316 205.766 103.408 209.795 102.155C211.887 101.501 213.381 102.564 214.133 103.493C215.005 104.571 215.259 106.018 214.9 107.356C214.492 108.888 213.112 110.575 209.82 110.939L211.807 117.767L216.399 116.424L215.677 113.944C215.677 113.944 221.628 110.39 219.557 103.283C217.575 96.4804 211.025 96.6801 208.421 97.4437C206.429 98.0276 199.78 100.493 202.26 108.678V108.673Z" fill="#F5F5F5"/>
<path d="M216.974 118.191L212.312 119.554L213.582 123.914L218.244 122.551L216.974 118.191Z" fill="#F5F5F5"/>
<path d="M217.43 220.87C217.43 220.94 168.753 221 108.72 221C48.6875 221 0 220.94 0 220.87C0 220.8 48.6675 220.74 108.72 220.74C168.773 220.74 217.43 220.8 217.43 220.87Z" fill="#263238"/>
<path d="M189.458 41.9441C191.142 31.2909 183.889 21.287 173.259 19.5997C162.628 17.9124 152.646 25.1807 150.962 35.8338C149.278 46.487 156.531 56.4909 167.162 58.1782C177.792 59.8654 187.774 52.5972 189.458 41.9441Z" fill="#F9F7FF"/>
<path d="M189.705 38.8946C189.705 38.8946 189.69 38.7898 189.675 38.5801C189.66 38.3605 189.64 38.0561 189.615 37.6518C189.605 37.4472 189.59 37.2176 189.575 36.9681C189.55 36.7185 189.496 36.449 189.451 36.1545C189.406 35.8601 189.356 35.5406 189.301 35.2063C189.261 34.8669 189.132 34.5175 189.047 34.1432C188.704 32.6359 188.001 30.8541 186.891 28.9626C185.77 27.081 184.157 25.1145 181.955 23.4475C181.681 23.2429 181.398 23.0333 181.119 22.8237C180.825 22.629 180.516 22.4543 180.207 22.2647C179.894 22.085 179.6 21.8704 179.261 21.7157C178.927 21.556 178.594 21.3962 178.255 21.2315C178.086 21.1517 177.916 21.0718 177.742 20.987C177.563 20.9221 177.383 20.8572 177.204 20.7923C176.846 20.6626 176.482 20.5278 176.113 20.3931C175.745 20.2683 175.356 20.1934 174.973 20.0886C174.585 19.9988 174.206 19.864 173.798 19.8241C172.996 19.7093 172.189 19.5446 171.347 19.5396C170.929 19.5246 170.511 19.4847 170.082 19.4897C169.659 19.5097 169.231 19.5346 168.802 19.5546C168.588 19.5696 168.369 19.5696 168.155 19.5945L167.507 19.6943C167.074 19.7642 166.636 19.8141 166.203 19.9089C165.346 20.1435 164.46 20.3182 163.618 20.6676C162.751 20.9471 161.93 21.3763 161.093 21.7806C160.684 22.0051 160.291 22.2597 159.888 22.5042C159.688 22.629 159.479 22.7388 159.29 22.8836L158.722 23.3128C157.935 23.8568 157.248 24.5306 156.526 25.1844C155.874 25.9081 155.191 26.6118 154.628 27.4353L154.185 28.0342L153.797 28.6731L153.408 29.3169C153.274 29.5265 153.149 29.7461 153.05 29.9807C152.831 30.4349 152.611 30.8891 152.392 31.3482C152.218 31.8274 152.044 32.3065 151.869 32.7856C151.237 34.7321 150.898 36.8034 150.868 38.9046C150.898 41.0107 151.237 43.082 151.864 45.0285C152.039 45.5076 152.213 45.9867 152.387 46.4659C152.606 46.925 152.826 47.3792 153.045 47.8334L153.209 48.1728L153.403 48.4972L153.792 49.141L154.18 49.7799L154.623 50.3788C155.186 51.1973 155.869 51.906 156.521 52.6297C157.243 53.2835 157.93 53.9573 158.717 54.5013L159.285 54.9306C159.474 55.0753 159.683 55.1801 159.883 55.3099C160.286 55.5494 160.68 55.809 161.088 56.0336C161.93 56.4378 162.746 56.8671 163.613 57.1465C164.455 57.5009 165.341 57.6756 166.198 57.9052C166.631 57.995 167.069 58.0449 167.503 58.1198L168.15 58.2196C168.364 58.2495 168.583 58.2446 168.797 58.2595C169.226 58.2795 169.654 58.3044 170.077 58.3244C170.501 58.3294 170.924 58.2895 171.342 58.2745C172.184 58.2745 172.991 58.1048 173.793 57.99C174.196 57.9501 174.58 57.8103 174.968 57.7255C175.351 57.6207 175.74 57.5408 176.108 57.421C176.477 57.2863 176.841 57.1565 177.199 57.0218C177.378 56.9569 177.558 56.892 177.737 56.8271C177.906 56.7473 178.081 56.6624 178.25 56.5826C178.589 56.4179 178.922 56.2582 179.256 56.0984C179.59 55.9437 179.889 55.7291 180.202 55.5494C180.511 55.3598 180.82 55.1851 181.114 54.9904C181.398 54.7808 181.676 54.5712 181.95 54.3666C184.152 52.6996 185.765 50.7332 186.886 48.8516C187.996 46.96 188.699 45.1782 189.042 43.6709C189.132 43.2966 189.256 42.9472 189.296 42.6079C189.351 42.2685 189.401 41.954 189.446 41.6596C189.491 41.3651 189.545 41.0956 189.57 40.846C189.585 40.5965 189.6 40.3669 189.61 40.1623C189.635 39.763 189.655 39.4536 189.67 39.234C189.685 39.0243 189.7 38.9195 189.7 38.9195C189.7 38.9195 189.7 39.0243 189.7 39.234C189.69 39.4536 189.68 39.763 189.665 40.1623C189.655 40.3669 189.645 40.5965 189.635 40.846C189.615 41.0956 189.565 41.3701 189.525 41.6646C189.481 41.959 189.436 42.2785 189.386 42.6228C189.351 42.9672 189.227 43.3166 189.142 43.6959C188.813 45.2181 188.116 47.0149 187.01 48.9264C185.895 50.828 184.276 52.8194 182.06 54.5113C181.781 54.7209 181.502 54.9306 181.213 55.1452C180.914 55.3398 180.606 55.5245 180.297 55.7141C179.983 55.8938 179.684 56.1134 179.346 56.2731C179.012 56.4378 178.673 56.5975 178.33 56.7672C178.16 56.8471 177.986 56.9319 177.812 57.0168C177.632 57.0817 177.453 57.1515 177.269 57.2164C176.905 57.3512 176.537 57.4859 176.168 57.6207C175.795 57.7455 175.401 57.8253 175.013 57.9351C174.619 58.025 174.236 58.1647 173.828 58.2096C173.016 58.3294 172.199 58.4941 171.352 58.5041C170.929 58.5191 170.506 58.564 170.072 58.554C169.644 58.534 169.211 58.5091 168.777 58.4891C168.558 58.4741 168.339 58.4741 168.12 58.4492L167.468 58.3494C167.029 58.2795 166.586 58.2296 166.148 58.1348C165.281 57.9002 164.385 57.7255 163.533 57.3711C162.652 57.0916 161.825 56.6574 160.973 56.2482C160.56 56.0236 160.162 55.764 159.753 55.5195C159.554 55.3897 159.34 55.2799 159.146 55.1352L158.568 54.701C157.771 54.152 157.074 53.4682 156.342 52.8094C155.679 52.0807 154.987 51.362 154.419 50.5335L153.966 49.9296L153.573 49.2808L153.179 48.632L152.98 48.3075L152.811 47.9632C152.591 47.504 152.367 47.0398 152.143 46.5757C151.964 46.0916 151.79 45.6074 151.61 45.1183C150.968 43.1419 150.624 41.0457 150.599 38.9145C150.629 36.7834 150.973 34.6872 151.615 32.7108C151.795 32.2217 151.974 31.7375 152.148 31.2534C152.372 30.7892 152.591 30.3251 152.816 29.8659C152.92 29.6313 153.045 29.4117 153.179 29.1971L153.573 28.5483L153.966 27.8995L154.419 27.2956C154.987 26.4671 155.684 25.7484 156.342 25.0197C157.074 24.3609 157.771 23.6771 158.568 23.1281L159.146 22.6939C159.335 22.5492 159.549 22.4394 159.753 22.3096C160.162 22.065 160.56 21.8055 160.973 21.5809C161.825 21.1717 162.652 20.7374 163.533 20.4579C164.385 20.1036 165.281 19.9289 166.148 19.6943C166.586 19.6045 167.029 19.5546 167.468 19.4797L168.12 19.3799C168.339 19.35 168.558 19.3549 168.777 19.34C169.211 19.32 169.644 19.2951 170.072 19.2751C170.501 19.2701 170.929 19.31 171.347 19.325C172.194 19.33 173.016 19.4997 173.823 19.6195C174.231 19.6644 174.614 19.7991 175.008 19.894C175.396 19.9988 175.785 20.0836 176.163 20.2084C176.532 20.3432 176.9 20.4779 177.264 20.6127C177.443 20.6775 177.627 20.7474 177.807 20.8123C177.981 20.8972 178.15 20.977 178.325 21.0619C178.668 21.2266 179.007 21.3913 179.341 21.556C179.679 21.7107 179.978 21.9303 180.292 22.1149C180.601 22.3096 180.914 22.4893 181.208 22.6839C181.492 22.8985 181.776 23.1082 182.055 23.3178C184.271 25.0097 185.89 27.0011 187.005 28.9027C188.111 30.8142 188.808 32.611 189.137 34.1332C189.222 34.5125 189.346 34.8619 189.381 35.2063C189.431 35.5456 189.476 35.8651 189.52 36.1645C189.56 36.459 189.61 36.7335 189.63 36.983C189.64 37.2326 189.65 37.4622 189.66 37.6668C189.675 38.0711 189.685 38.3755 189.695 38.5951C189.7 38.8047 189.695 38.9095 189.695 38.9095L189.705 38.8946Z" fill="#263238"/>
<path d="M163.284 35.5457H166.985C166.985 35.5457 166.985 32.4314 170.217 32.3765C171.895 32.3465 172.767 33.4495 173.12 34.293C173.529 35.2712 173.404 36.3892 172.856 37.2976C172.229 38.3357 170.854 39.279 168.359 38.8398V44.2849H172.02V42.3035C172.02 42.3035 177.154 40.9709 177.154 35.3012C177.154 29.6314 172.299 28.6133 170.222 28.6133C168.633 28.6133 163.219 28.9976 163.289 35.5457H163.284Z" fill="#CD5036"/>
<path d="M172.06 45.6973H168.344V49.176H172.06V45.6973Z" fill="#CD5036"/>
<path d="M161.038 64.9524C162.722 64.9524 164.086 63.5849 164.086 61.898C164.086 60.211 162.722 58.8435 161.038 58.8435C159.355 58.8435 157.99 60.211 157.99 61.898C157.99 63.5849 159.355 64.9524 161.038 64.9524Z" fill="#F9F7FF"/>
<path d="M164.086 61.898C164.061 61.898 164.066 61.6235 163.942 61.1644C163.817 60.7102 163.508 60.0514 162.826 59.5423C162.169 59.0332 161.083 58.7487 160.037 59.143C159.524 59.3327 159.031 59.682 158.682 60.1711C158.324 60.6503 158.12 61.2692 158.115 61.903C158.12 62.5369 158.324 63.1557 158.682 63.6349C159.031 64.124 159.524 64.4734 160.037 64.663C161.083 65.0523 162.169 64.7728 162.826 64.2637C163.508 63.7547 163.817 63.0959 163.942 62.6417C164.066 62.1825 164.056 61.908 164.086 61.908C164.096 61.908 164.101 61.9729 164.101 62.1027C164.101 62.2324 164.091 62.4221 164.036 62.6666C163.937 63.1408 163.643 63.8495 162.936 64.4085C162.253 64.9675 161.093 65.3019 159.957 64.8876C159.395 64.693 158.862 64.3137 158.478 63.7846C158.085 63.2655 157.861 62.5918 157.856 61.903C157.861 61.2143 158.085 60.5405 158.478 60.0214C158.862 59.4924 159.395 59.1181 159.957 58.9184C161.093 58.5092 162.253 58.8386 162.936 59.3975C163.643 59.9565 163.942 60.6653 164.036 61.1394C164.091 61.379 164.101 61.5736 164.101 61.7034C164.101 61.8331 164.096 61.898 164.086 61.898Z" fill="#263238"/>
<path d="M164.973 129.95C170.043 147.184 171.228 165.426 168.175 183.149C167.796 185.34 168.758 187.586 171.044 188.214C173.021 188.758 175.72 187.541 176.099 185.34C179.406 166.134 178.395 146.47 172.896 127.759C171.402 122.688 163.474 124.844 164.973 129.95Z" fill="#263238"/>
<path d="M186.537 108.993C184.202 100.957 177.762 94.4141 170.097 92.293C171.641 86.5434 169.196 79.9054 166.163 74.8745C163.13 69.8386 157.652 66.2202 152.094 65.2968C146.316 64.3386 142.731 64.8576 137.138 66.6544C133.796 60.241 127.376 56.7673 120.518 55.9438C113.661 55.1203 106.275 58.9883 103.496 65.6961C102.5 58.6439 94.571 54.4615 88.0269 56.0536C81.4828 57.6457 76.5075 63.4652 73.4446 69.8087L161.387 164.612C169.181 167.726 178.798 164.487 183.474 157.166C188.151 149.849 187.434 139.163 181.826 132.625C187.03 126.286 188.883 117.028 186.547 108.993H186.537Z" fill="#CD5036"/>
<path d="M113.699 175.761L107.296 175.07L102.462 220.028L108.865 220.719L113.699 175.761Z" fill="#263238"/>
<path d="M123.845 220.716L130.248 220.025L125.414 175.067L119.011 175.758L123.845 220.716Z" fill="#263238"/>
<path d="M42.8205 81.807C45.4451 74.4503 50.2461 68.8704 57.592 65.8259C64.9978 62.7564 73.3547 62.7115 81.2435 64.109C84.4757 64.6829 87.8026 65.5514 90.2927 67.6925C92.7879 69.8336 94.1873 73.5719 92.748 76.5315C99.586 72.6635 108.461 72.6885 115.274 76.6014C122.092 80.5143 126.604 88.1654 126.734 96.0362C133.86 95.4672 141.341 97.0444 146.994 101.426C152.646 105.809 156.147 113.235 154.867 120.282C159.529 119.873 163.996 122.883 166.476 126.855C168.957 130.828 169.768 135.62 170.097 140.296C170.301 143.181 170.331 146.155 169.37 148.886C168.902 150.213 168.205 151.466 167.901 152.838C167.532 154.5 167.761 156.232 167.811 157.934C168.045 165.815 164.131 173.701 157.721 178.267C151.306 182.834 142.586 183.942 135.24 181.127C127.077 189.572 112.45 190.625 103.167 183.433C97.1257 185.464 90.731 186.927 84.416 186.113C81.1937 185.699 78.0063 184.626 75.2522 182.884C72.7272 181.287 71.2829 178.197 68.9073 176.735C66.4819 175.243 63.7328 176.555 60.9986 176.521C57.8012 176.476 54.6138 175.692 51.78 174.205C46.3764 171.37 42.3623 166.084 40.8931 160.15C40.5943 158.947 40.3751 157.675 39.6181 156.696C38.9259 155.803 37.88 155.274 36.9039 154.7C30.8179 151.141 26.4353 144.798 25.2499 137.841C24.0646 130.883 26.1016 123.442 30.6635 118.061C30.6635 118.061 26.0568 106.223 30.3896 95.617C34.7225 85.0112 42.8155 81.802 42.8155 81.802L42.8205 81.807Z" fill="#CD5036"/>
<g opacity="0.3">
<path d="M183.415 148.726C179.744 154.471 173.036 157.7 166.546 157.32C164.938 162.167 161.835 166.529 157.676 169.493C151.262 174.06 142.541 175.173 135.195 172.353C127.033 180.798 112.405 181.851 103.122 174.659C97.081 176.69 90.6863 178.153 84.3713 177.339C81.149 176.925 77.9616 175.852 75.2075 174.11C72.6825 172.513 71.2382 169.423 68.8626 167.961C66.4372 166.469 63.688 167.781 60.9539 167.747C57.7565 167.702 54.5691 166.918 51.7353 165.431C46.3317 162.596 42.3176 157.31 40.8484 151.376C40.5496 150.173 40.3304 148.901 39.5734 147.922C38.8811 147.029 37.8353 146.5 36.8591 145.926C30.8878 142.437 26.5649 136.263 25.2849 129.456C24.7819 132.211 24.7371 135.051 25.2052 137.816C26.3905 144.773 30.7732 151.117 36.8591 154.675C37.8353 155.244 38.8811 155.773 39.5734 156.672C40.3304 157.65 40.5496 158.927 40.8484 160.125C42.3176 166.055 46.3367 171.34 51.7353 174.18C54.5691 175.667 57.7565 176.456 60.9539 176.496C63.693 176.531 66.4372 175.218 68.8626 176.71C71.2382 178.173 72.6875 181.262 75.2075 182.859C77.9616 184.601 81.149 185.674 84.3713 186.088C90.6863 186.902 97.086 185.439 103.122 183.408C112.405 190.6 127.033 189.547 135.195 181.102C142.546 183.917 151.267 182.809 157.676 178.243C161.835 175.278 164.943 170.921 166.546 166.07C173.031 166.449 179.744 163.22 183.415 157.475C186.263 153.013 187.105 147.304 186.064 142.043C185.586 144.419 184.704 146.7 183.415 148.721V148.726Z" fill="black"/>
</g>
<path d="M77.1548 134.217C77.1548 134.217 77.0801 134.127 76.9606 133.953C76.8311 133.778 76.6767 133.498 76.4277 133.174C75.9595 132.505 75.2125 131.577 74.1467 130.574C73.0909 129.57 71.6815 128.522 69.9583 127.654C68.2401 126.785 66.1932 126.137 63.9819 125.917C61.7657 125.722 59.6341 125.982 57.7864 126.516C55.9337 127.05 54.355 127.819 53.1348 128.607C51.9047 129.396 51.0032 130.169 50.4156 130.738C50.1118 131.013 49.9076 131.257 49.7482 131.407C49.5938 131.562 49.5141 131.637 49.5042 131.632C49.4992 131.627 49.5689 131.537 49.7083 131.372C49.8528 131.212 50.047 130.953 50.3408 130.668C50.9086 130.07 51.8051 129.271 53.0302 128.457C54.2554 127.639 55.8441 126.84 57.7167 126.286C59.5893 125.732 61.7557 125.458 64.0018 125.658C66.2479 125.882 68.3247 126.551 70.0629 127.439C71.801 128.328 73.2154 129.406 74.2662 130.439C75.3221 131.472 76.0542 132.42 76.5024 133.114C76.7414 133.448 76.8809 133.738 76.9954 133.923C77.105 134.112 77.1548 134.212 77.1498 134.217H77.1548Z" fill="#263238"/>
<path d="M84.0825 163.779C84.0825 163.779 84.0825 163.719 84.0825 163.604C84.0925 163.474 84.1024 163.305 84.1174 163.085C84.1373 162.85 84.1572 162.571 84.1821 162.241C84.2369 161.907 84.2967 161.528 84.3664 161.103C84.5208 160.25 84.7847 159.217 85.1931 158.049C85.6364 156.901 86.1792 155.593 87.0109 154.276C88.6196 151.636 91.1645 148.761 94.7952 146.789C96.598 145.801 98.6698 145.077 100.881 144.738C103.092 144.394 105.438 144.419 107.774 144.833C112.455 145.686 116.564 148.082 119.313 151.147C122.097 154.201 123.541 157.814 123.875 160.904C124.224 164.018 123.536 166.544 122.859 168.126C122.167 169.723 121.534 170.467 121.534 170.467C121.534 170.467 121.559 170.412 121.619 170.312C121.689 170.202 121.773 170.052 121.888 169.868C122.112 169.473 122.441 168.884 122.765 168.086C123.407 166.504 124.059 163.998 123.691 160.924C123.337 157.874 121.893 154.316 119.134 151.306C116.41 148.292 112.351 145.931 107.729 145.087C105.423 144.673 103.102 144.648 100.921 144.988C98.7346 145.322 96.6927 146.026 94.9097 146.999C91.3139 148.936 88.7789 151.77 87.1653 154.371C86.3286 155.668 85.7808 156.961 85.3276 158.099C84.9142 159.252 84.6353 160.275 84.466 161.123C84.3913 161.548 84.3216 161.922 84.2618 162.251C84.2269 162.576 84.1971 162.855 84.1722 163.09C84.1473 163.305 84.1273 163.474 84.1124 163.604C84.0975 163.719 84.0875 163.779 84.0825 163.779Z" fill="#263238"/>
<path d="M148.667 169.483C148.667 169.483 148.597 169.533 148.453 169.603C148.304 169.668 148.094 169.788 147.806 169.893C147.238 170.127 146.371 170.387 145.276 170.531C144.18 170.676 142.845 170.666 141.411 170.357C139.981 170.052 138.457 169.419 137.098 168.4C135.753 167.362 134.727 166.07 134.05 164.772C133.363 163.474 132.989 162.187 132.835 161.094C132.675 159.996 132.69 159.097 132.76 158.483C132.78 158.174 132.84 157.939 132.865 157.78C132.894 157.62 132.914 157.535 132.924 157.54C132.999 157.54 132.655 158.903 133.019 161.064C133.198 162.137 133.582 163.394 134.264 164.662C134.941 165.925 135.947 167.188 137.262 168.196C138.587 169.189 140.071 169.813 141.471 170.127C142.87 170.442 144.18 170.477 145.261 170.352C147.437 170.117 148.652 169.414 148.672 169.483H148.667Z" fill="#263238"/>
<path d="M73.031 72.9331C73.031 72.9331 73.041 72.7035 73.1057 72.2893C73.1655 71.875 73.29 71.2861 73.4842 70.5674C73.6735 69.8437 73.9573 69.0052 74.3259 68.0869C74.7094 67.1785 75.1825 66.2003 75.7652 65.2221C76.3579 64.2488 76.9953 63.3654 77.6179 62.6018C78.2504 61.8432 78.858 61.1994 79.4058 60.6903C79.9487 60.1812 80.4118 59.7919 80.7455 59.5474C81.0792 59.2978 81.2684 59.168 81.2784 59.178C81.3083 59.218 80.5811 59.7769 79.5353 60.8201C79.0074 61.3391 78.4197 61.9929 77.8021 62.7466C77.1945 63.5102 76.572 64.3836 75.9893 65.3469C75.4166 66.3151 74.9385 67.2784 74.545 68.1717C74.1665 69.0701 73.8677 69.8986 73.6585 70.6073C73.2302 72.0248 73.0758 72.9331 73.031 72.9231V72.9331Z" fill="#263238"/>
<path d="M53.573 80.5792C53.558 80.6291 52.6765 80.3746 51.2173 80.2198C50.4852 80.135 49.6136 80.11 48.6425 80.15C47.6763 80.2049 46.6155 80.3396 45.5248 80.5892C44.4391 80.8537 43.4281 81.2081 42.5366 81.5924C41.6551 81.9916 40.8832 82.4059 40.2656 82.8102C39.0255 83.6037 38.3532 84.2276 38.3183 84.1877C38.3084 84.1727 38.4677 84.013 38.7765 83.7335C38.9259 83.5888 39.1201 83.4241 39.3542 83.2494C39.5883 83.0697 39.8473 82.8551 40.161 82.6554C40.7686 82.2312 41.5455 81.792 42.437 81.3728C43.3335 80.9735 44.3544 80.6042 45.4601 80.3346C46.5657 80.0801 47.6464 79.9503 48.6275 79.9054C49.6087 79.8805 50.4952 79.9254 51.2322 80.0302C51.6008 80.0651 51.9295 80.145 52.2183 80.1999C52.5072 80.2498 52.7562 80.3147 52.9554 80.3746C53.3539 80.4894 53.573 80.5592 53.568 80.5742L53.573 80.5792Z" fill="#263238"/>
<path d="M53.573 121.979C53.573 121.979 53.5132 122.049 53.3788 122.159C53.2443 122.264 53.0501 122.443 52.7811 122.628C52.2482 123.022 51.4364 123.531 50.3557 124.026C49.28 124.52 47.9253 124.964 46.3764 125.198C44.8276 125.438 43.0795 125.438 41.2965 125.094C39.5186 124.729 37.9049 124.055 36.5652 123.242C35.2206 122.428 34.1398 121.5 33.338 120.632C32.5312 119.763 31.9734 118.98 31.6347 118.411C31.4554 118.136 31.3459 117.902 31.2612 117.747C31.1815 117.592 31.1417 117.512 31.1517 117.507C31.1716 117.497 31.3558 117.812 31.7244 118.356C32.0879 118.9 32.6657 119.663 33.4775 120.507C34.2892 121.35 35.365 122.249 36.6947 123.042C38.0195 123.831 39.6132 124.49 41.3563 124.844C43.1044 125.183 44.8226 125.188 46.3515 124.964C47.8805 124.744 49.2202 124.325 50.291 123.856C51.3667 123.392 52.1885 122.908 52.7313 122.543C53.2791 122.179 53.568 121.959 53.5829 121.979H53.573Z" fill="#263238"/>
<path d="M41.3565 145.367C41.4013 145.387 41.0128 146.255 40.6044 147.728C40.3953 148.461 40.211 149.355 40.0616 150.353C39.9321 151.351 39.8524 152.459 39.8723 153.622C39.9022 154.785 40.0317 155.888 40.206 156.881C40.3953 157.869 40.6194 158.753 40.8634 159.476C41.3365 160.929 41.7648 161.777 41.72 161.802C41.7051 161.812 41.5905 161.603 41.3963 161.218C41.2967 161.029 41.1822 160.789 41.0676 160.505C40.9531 160.22 40.8086 159.906 40.6891 159.536C40.4251 158.813 40.1761 157.924 39.9719 156.926C39.7827 155.923 39.6432 154.805 39.6134 153.627C39.5934 152.449 39.6831 151.326 39.8275 150.318C39.9869 149.31 40.1961 148.412 40.4301 147.678C40.5297 147.304 40.6642 146.984 40.7638 146.695C40.8634 146.405 40.968 146.166 41.0576 145.966C41.232 145.572 41.3415 145.362 41.3565 145.367Z" fill="#263238"/>
<path d="M73.6488 181.317C73.6488 181.317 73.5691 181.232 73.4346 181.057C73.3051 180.878 73.1059 180.623 72.8669 180.274C72.3887 179.585 71.7214 178.567 71.0042 177.244C70.2871 175.927 69.54 174.285 68.9573 172.378C68.6784 171.42 68.4344 170.402 68.2651 169.329C68.1057 168.256 68.026 167.133 68.031 165.98C68.0559 161.363 69.3308 157.29 70.6357 154.595C71.2831 153.238 71.9106 152.19 72.3738 151.491C72.5979 151.137 72.8021 150.877 72.9266 150.697C73.0561 150.518 73.1308 150.428 73.1358 150.433C73.1408 150.438 73.086 150.538 72.9665 150.727C72.8519 150.917 72.6676 151.181 72.4535 151.546C72.0152 152.26 71.4176 153.313 70.795 154.67C69.54 157.37 68.3049 161.408 68.28 165.98C68.28 167.118 68.3547 168.226 68.5091 169.289C68.6734 170.352 68.9075 171.36 69.1764 172.308C69.7392 174.2 70.4614 175.832 71.1586 177.159C71.8509 178.482 72.4884 179.515 72.9416 180.219C73.1557 180.553 73.33 180.823 73.4645 181.027C73.584 181.212 73.6438 181.312 73.6338 181.317H73.6488Z" fill="#263238"/>
<path d="M68.6386 160.2C68.6386 160.2 68.4593 160.32 68.0808 160.405C67.7072 160.49 67.1345 160.515 66.4622 160.365C65.7848 160.225 65.0278 159.906 64.231 159.481C63.4341 159.057 62.6074 158.488 61.8305 157.795C60.2617 156.402 59.2407 154.76 58.6929 153.512C58.419 152.883 58.2446 152.359 58.145 151.99C58.0504 151.621 58.0106 151.416 58.0255 151.411C58.0753 151.396 58.2745 152.22 58.8572 153.432C59.4449 154.64 60.4659 156.232 62.0048 157.595C62.7668 158.279 63.5736 158.838 64.3505 159.267C65.1274 159.696 65.8595 160.021 66.512 160.18C67.8218 160.53 68.6485 160.14 68.6485 160.19L68.6386 160.2Z" fill="#263238"/>
<path d="M104.701 184.247C104.701 184.247 104.531 184.177 104.243 184.012C103.954 183.847 103.555 183.588 103.072 183.243C102.111 182.555 100.861 181.477 99.7155 180.069C98.575 178.662 97.7732 177.214 97.2901 176.131C97.0511 175.592 96.8768 175.143 96.7722 174.829C96.6676 174.514 96.6178 174.339 96.6327 174.334C96.6726 174.319 96.9315 175.003 97.4545 176.056C97.9724 177.109 98.7892 178.517 99.9147 179.904C101.045 181.292 102.255 182.375 103.182 183.094C104.103 183.817 104.721 184.207 104.696 184.247H104.701Z" fill="#263238"/>
<path d="M138.124 168.685C138.124 168.685 138.159 168.874 138.173 169.214C138.188 169.553 138.203 170.047 138.198 170.656C138.188 171.869 138.134 173.571 137.715 175.398C137.302 177.229 136.54 178.767 135.888 179.8C135.554 180.314 135.27 180.718 135.051 180.978C134.837 181.242 134.712 181.387 134.697 181.372C134.657 181.342 135.116 180.743 135.728 179.705C136.331 178.662 137.053 177.14 137.456 175.343C137.865 173.546 137.949 171.869 138.009 170.656C138.059 169.443 138.074 168.69 138.114 168.69L138.124 168.685Z" fill="#263238"/>
<path d="M159.205 142.881C159.205 142.881 159.29 142.911 159.439 142.991C159.589 143.076 159.813 143.191 160.082 143.36C160.625 143.71 161.392 144.259 162.198 145.092C163.005 145.926 163.842 147.044 164.529 148.416C164.873 149.1 165.177 149.849 165.451 150.637C165.71 151.431 165.934 152.264 166.118 153.128C166.83 156.597 166.795 159.816 166.726 162.117C166.686 163.269 166.631 164.198 166.586 164.842C166.566 165.136 166.546 165.381 166.531 165.58C166.516 165.75 166.501 165.84 166.496 165.84C166.487 165.84 166.482 165.75 166.482 165.58C166.482 165.381 166.482 165.136 166.487 164.837C166.501 164.153 166.521 163.235 166.541 162.112C166.561 159.816 166.566 156.616 165.859 153.183C165.675 152.329 165.456 151.506 165.202 150.722C164.933 149.944 164.639 149.205 164.31 148.526C163.643 147.169 162.841 146.056 162.064 145.222C161.287 144.384 160.545 143.825 160.027 143.45C159.494 143.096 159.195 142.906 159.205 142.886V142.881Z" fill="#263238"/>
<path d="M153.383 148.416C153.383 148.416 153.558 148.247 153.896 147.977C154.235 147.713 154.718 147.313 155.306 146.809C156.471 145.801 158.005 144.309 159.474 142.467C160.938 140.62 162.049 138.789 162.766 137.426C163.13 136.742 163.409 136.183 163.588 135.789C163.772 135.4 163.887 135.185 163.902 135.19C163.917 135.195 163.837 135.425 163.683 135.829C163.528 136.233 163.274 136.812 162.931 137.506C162.248 138.904 161.153 140.765 159.678 142.627C158.199 144.483 156.63 145.971 155.425 146.949C154.823 147.438 154.32 147.817 153.961 148.057C153.602 148.302 153.398 148.431 153.388 148.416H153.383Z" fill="#263238"/>
<path d="M150.385 80.2498C150.385 80.2498 150.43 80.3096 150.495 80.4394C150.555 80.5692 150.654 80.7538 150.754 81.0034C150.968 81.4975 151.237 82.2362 151.466 83.1795C151.939 85.0511 152.163 87.8061 151.416 90.6909C150.669 93.5756 149.13 95.8765 147.81 97.2789C147.153 97.9877 146.56 98.5017 146.127 98.8311C145.918 99.0008 145.739 99.1156 145.624 99.1955C145.504 99.2753 145.445 99.3153 145.435 99.3053C145.42 99.2903 145.654 99.1006 146.062 98.7513C146.471 98.4019 147.038 97.8679 147.671 97.1542C148.941 95.7367 150.425 93.4608 151.162 90.626C151.899 87.7911 151.705 85.081 151.282 83.2194C151.077 82.2861 150.838 81.5424 150.654 81.0383C150.47 80.5342 150.36 80.2547 150.375 80.2498H150.385Z" fill="#263238"/>
<path d="M159.205 85.1758C159.205 85.2207 158.707 85.2108 157.93 85.3256C157.148 85.4403 156.088 85.7148 155.017 86.2638C153.946 86.8178 153.104 87.5216 152.557 88.0905C152.009 88.6595 151.73 89.0688 151.69 89.0438C151.665 89.0288 151.894 88.5847 152.422 87.9658C152.945 87.3519 153.797 86.5982 154.897 86.0293C155.998 85.4653 157.104 85.2058 157.905 85.1409C158.712 85.071 159.205 85.1459 159.205 85.1708V85.1758Z" fill="#263238"/>
<path d="M175.277 139.488C175.277 139.488 175.302 139.363 175.371 139.133C175.436 138.904 175.566 138.574 175.68 138.135C175.939 137.267 176.243 135.984 176.437 134.377C176.631 132.77 176.691 130.828 176.427 128.702C176.173 126.581 175.585 124.275 174.559 122.029C174.042 120.911 173.439 119.863 172.791 118.9C172.129 117.942 171.417 117.073 170.695 116.285C169.221 114.737 167.697 113.535 166.317 112.691C164.938 111.848 163.742 111.299 162.896 110.979C162.477 110.799 162.139 110.71 161.914 110.62C161.69 110.54 161.571 110.49 161.576 110.485C161.576 110.475 161.7 110.505 161.929 110.57C162.159 110.645 162.502 110.72 162.93 110.884C163.792 111.174 165.012 111.703 166.412 112.531C167.816 113.36 169.37 114.558 170.869 116.115C171.606 116.903 172.328 117.782 173.001 118.75C173.658 119.723 174.271 120.781 174.794 121.914C175.834 124.185 176.422 126.521 176.666 128.667C176.92 130.818 176.84 132.775 176.621 134.392C176.402 136.009 176.064 137.292 175.78 138.16C175.65 138.599 175.506 138.924 175.426 139.148C175.341 139.373 175.292 139.488 175.282 139.483L175.277 139.488Z" fill="#263238"/>
<path d="M175.247 107.54C175.277 107.545 175.202 108.029 174.943 108.778C174.684 109.522 174.221 110.525 173.514 111.508C172.806 112.491 172.005 113.25 171.372 113.724C170.74 114.198 170.301 114.418 170.286 114.393C170.232 114.323 171.93 113.31 173.305 111.363C174.704 109.437 175.162 107.51 175.247 107.545V107.54Z" fill="#263238"/>
<path d="M122.914 66.6493C122.914 66.6493 123.004 66.829 123.113 67.1683C123.173 67.338 123.238 67.5477 123.292 67.7972C123.352 68.0467 123.432 68.3262 123.477 68.6407C123.601 69.2695 123.681 70.0332 123.701 70.8816C123.711 71.7301 123.651 72.6684 123.492 73.6316C123.317 74.5999 123.058 75.4983 122.765 76.2918C122.456 77.0854 122.127 77.7741 121.798 78.3281C121.649 78.6126 121.48 78.8472 121.34 79.0618C121.206 79.2764 121.071 79.4511 120.957 79.5909C120.738 79.8703 120.608 80.0201 120.593 80.0101C120.553 79.9801 121.036 79.3563 121.634 78.2383C121.938 77.6843 122.247 76.9956 122.535 76.212C122.814 75.4234 123.063 74.54 123.233 73.5867C123.392 72.6334 123.457 71.7151 123.462 70.8816C123.452 70.0481 123.392 69.2945 123.297 68.6656C123.108 67.4129 122.864 66.6593 122.909 66.6443L122.914 66.6493Z" fill="#263238"/>
<g opacity="0.3">
<path d="M123.556 155.703C124 154.59 124.139 152.983 123.038 152.504C122.286 152.175 121.445 152.634 120.762 153.088C118.601 154.52 117.964 155.469 115.827 156.861C114.303 157.854 112.047 158.932 110.393 158.174C108.561 157.335 108.531 154.75 107.46 153.038C107.126 152.509 106.593 152.015 105.971 152.06C105.299 152.105 104.487 152.699 104.372 153.368C104.258 154.031 104.457 154.86 104.482 155.534C104.561 157.625 104.566 158.713 104.382 160.345C104.298 160.754 104.233 161.193 104.193 161.658C102.41 161.533 100.587 161.513 98.9836 161.413C98.5851 161.388 98.1319 161.393 97.853 161.717C97.6439 161.957 97.5791 162.316 97.5343 162.651C97.4546 163.23 97.3998 163.814 97.365 164.398C89.0578 164.442 81.2138 163.968 73.8679 159.926C65.9641 155.574 62.1791 148.541 62.1791 138.719C62.1791 138.719 62.2189 135.774 58.0106 135.714C53.364 135.65 53.4337 140.825 53.4337 140.825C52.5721 151.461 59.5893 161.613 68.7929 166.983C77.7774 172.223 88.4801 173.616 98.8889 173.656C99.1081 173.93 99.3621 174.16 99.6659 174.325C100.313 174.669 101.06 174.654 101.773 174.584C103.665 174.404 105.528 173.905 107.301 173.137C107.749 173.516 108.401 173.945 109.661 174.165C111.982 174.559 113.75 174.734 116.081 174.399C117.525 174.19 119.821 173.321 120.249 171.924C120.384 171.49 120.379 171.011 120.593 170.611C120.598 170.601 120.608 170.596 120.613 170.586C120.777 170.407 120.937 170.227 121.086 170.037C121.181 169.952 121.275 169.868 121.365 169.778C122.356 168.81 122.595 165.76 121.539 164.842C121.694 164.632 121.843 164.418 121.978 164.198L121.649 164.542C122.829 162.761 122.645 161.208 121.066 159.651C121.086 159.621 121.111 159.591 121.131 159.556L121.056 159.636C122.281 157.884 122.799 157.615 123.556 155.723V155.703Z" fill="black"/>
</g>
<path d="M62.1839 136.283C62.1839 146.106 65.9689 153.138 73.8727 157.49C81.7764 161.842 90.2628 162.057 99.2822 161.942C99.4067 165.036 99.5362 168.126 99.6607 171.22C89.0128 171.25 78.0063 169.918 68.8027 164.547C59.5991 159.177 52.5819 149.03 53.4435 138.39C53.4435 138.39 53.3737 133.214 58.0204 133.279C62.2287 133.339 62.1889 136.283 62.1889 136.283H62.1839Z" fill="#263238"/>
<path d="M123.043 150.074C122.291 149.744 121.449 150.203 120.767 150.657C118.606 152.09 117.968 153.038 115.832 154.431C114.308 155.424 112.052 156.502 110.398 155.743C108.565 154.905 108.535 152.319 107.465 150.608C107.131 150.079 106.598 149.584 105.976 149.629C105.303 149.674 104.491 150.268 104.377 150.937C104.262 151.601 104.462 152.429 104.486 153.103C104.566 155.194 104.571 156.282 104.387 157.914C104.203 159.541 103.854 162.546 104.77 163.903C105.234 166.134 105.791 167.627 106.772 169.683C107.031 170.232 106.215 169.808 106.703 170.172C107.226 170.561 107.729 171.4 109.671 171.734C111.992 172.129 113.76 172.303 116.091 171.969C117.535 171.759 119.831 170.891 120.259 169.493C120.394 169.059 120.389 168.58 120.603 168.181C120.782 167.846 121.096 167.612 121.37 167.342C122.381 166.354 122.615 163.205 121.484 162.351C122.859 160.46 122.724 158.833 121.056 157.196C122.281 155.444 122.799 155.174 123.556 153.283C123.999 152.17 124.139 150.563 123.038 150.083L123.043 150.074Z" fill="#F9F7FF"/>
<path d="M108.775 160.629C108.416 160.939 108.167 159.776 107.729 159.676C105.029 159.087 101.698 159.137 98.9932 158.972C98.5948 158.948 98.1416 158.953 97.8627 159.277C97.6535 159.516 97.5888 159.876 97.544 160.21C97.1754 162.935 97.2601 165.74 97.793 168.43C98.0669 169.803 98.5599 171.285 99.6755 171.884C100.323 172.228 101.07 172.214 101.782 172.144C105.756 171.759 109.626 170.007 112.749 167.173L108.78 160.619L108.775 160.629Z" fill="#F9F7FF"/>
<path d="M106.713 170.397C106.713 170.397 106.588 170.262 106.394 169.993C106.294 169.863 106.195 169.683 106.075 169.483C105.951 169.284 105.831 169.044 105.707 168.78C105.184 167.717 104.666 166.154 104.342 164.383C104.028 162.606 103.969 160.964 104.063 159.786C104.083 159.492 104.108 159.227 104.148 158.992C104.183 158.758 104.208 158.558 104.247 158.399C104.322 158.074 104.367 157.899 104.387 157.904C104.432 157.914 104.287 158.628 104.247 159.791C104.198 160.959 104.287 162.576 104.601 164.333C104.92 166.085 105.403 167.632 105.876 168.7C106.334 169.773 106.753 170.372 106.713 170.397Z" fill="#263238"/>
<path d="M119.547 164.293C119.507 164.228 120.15 163.769 120.817 163.07C121.489 162.376 121.923 161.713 121.987 161.752C122.047 161.782 121.703 162.531 121.006 163.25C120.314 163.973 119.582 164.353 119.552 164.293H119.547Z" fill="#263238"/>
<path d="M119.158 169.399C119.119 169.334 119.761 168.875 120.428 168.176C121.101 167.482 121.534 166.818 121.599 166.858C121.659 166.888 121.315 167.637 120.618 168.355C119.925 169.079 119.193 169.458 119.163 169.399H119.158Z" fill="#263238"/>
<path d="M118.7 159.651C118.66 159.586 119.303 159.127 119.97 158.428C120.643 157.735 121.076 157.071 121.141 157.111C121.2 157.141 120.857 157.889 120.159 158.608C119.467 159.332 118.735 159.711 118.705 159.651H118.7Z" fill="#263238"/>
<path d="M97.8978 110.56C97.7434 111.713 93.7193 112.067 89.2421 113.63C84.7299 115.102 81.3184 117.268 80.4966 116.444C80.1231 116.045 80.5514 114.897 81.8264 113.535C83.0864 112.177 85.2429 110.675 87.9372 109.762C90.6316 108.853 93.2562 108.738 95.084 109.053C96.9217 109.362 97.9576 110.016 97.8978 110.56Z" fill="#263238"/>
<path d="M140.948 91.9637C140.076 92.8571 136.759 91.8389 132.75 91.7092C128.746 91.4646 125.329 92.1683 124.567 91.1951C124.234 90.7259 124.787 89.8226 126.291 88.9891C127.77 88.1606 130.235 87.5068 132.989 87.6315C135.743 87.7613 138.114 88.6397 139.493 89.603C140.893 90.5712 141.336 91.5245 140.953 91.9587L140.948 91.9637Z" fill="#263238"/>
<path d="M141.884 109.337C148.418 111.898 151.526 119.594 148.826 126.526C146.122 133.459 138.632 137.007 132.097 134.447C125.563 131.886 122.456 124.19 125.155 117.258C127.859 110.325 135.35 106.777 141.884 109.337Z" fill="#F9F7FF"/>
<path d="M142.118 108.733C148.652 111.294 152.063 118.216 149.733 124.195C147.402 130.175 140.21 132.95 133.676 130.389C127.142 127.829 123.73 120.906 126.061 114.927C128.392 108.948 135.584 106.173 142.118 108.733Z" fill="#263238"/>
<path d="M102.435 118.211C107.749 122.803 108.127 131.098 103.277 136.738C98.4258 142.377 90.1834 143.221 84.8694 138.629C79.5554 134.037 79.1769 125.742 84.0277 120.108C88.8786 114.468 97.121 113.619 102.435 118.216V118.211Z" fill="#F9F7FF"/>
<path d="M102.858 117.722C108.172 122.314 109.089 129.98 104.905 134.841C100.722 139.702 93.0222 139.922 87.7082 135.33C82.3942 130.738 81.4778 123.072 85.6613 118.211C89.8448 113.35 97.5443 113.13 102.858 117.722Z" fill="#263238"/>
<g opacity="0.3">
<path d="M115.787 137.985C114.358 138.983 114.482 140.376 114.507 142.123C114.517 142.941 114.761 143.555 115.249 144.214C115.737 144.873 116.534 145.327 117.351 145.292C118.72 145.237 119.961 144.029 120.558 142.796C121.455 140.945 121.684 138.869 121.818 136.812C120.085 136.598 117.221 136.987 115.792 137.985H115.787Z" fill="black"/>
</g>
<path d="M120.553 142.796C120.553 142.796 120.533 142.866 120.468 142.981C120.404 143.096 120.299 143.261 120.15 143.465C119.841 143.865 119.358 144.409 118.616 144.953C118.232 145.202 117.759 145.417 117.211 145.467C116.669 145.527 116.051 145.367 115.563 144.978C115.075 144.593 114.711 144.014 114.547 143.37C114.378 142.727 114.373 142.038 114.402 141.354C114.432 140.67 114.512 139.982 114.766 139.358C115.02 138.734 115.458 138.23 115.936 137.865C116.913 137.127 118.003 136.862 118.89 136.747C119.786 136.633 120.513 136.648 121.011 136.658C121.509 136.673 121.788 136.693 121.788 136.708C121.788 136.727 121.509 136.737 121.011 136.757C120.513 136.777 119.791 136.792 118.915 136.927C118.048 137.067 116.997 137.346 116.081 138.055C115.628 138.409 115.229 138.874 114.995 139.453C114.761 140.031 114.681 140.685 114.652 141.364C114.622 142.038 114.627 142.702 114.781 143.306C114.93 143.909 115.259 144.438 115.697 144.793C116.136 145.152 116.678 145.302 117.177 145.257C117.68 145.222 118.133 145.032 118.501 144.803C119.218 144.309 119.731 143.78 120.055 143.41C120.379 143.031 120.518 142.791 120.538 142.806L120.553 142.796Z" fill="#263238"/>
<path d="M98.4208 213.224C94.2174 212.495 89.7749 212.42 85.6263 213.409C83.4699 213.923 81.2935 214.592 79.5255 215.929C77.7575 217.267 76.3132 218.654 76.4825 220.865L108.899 220.9C108.899 216.952 102.624 213.953 98.4208 213.224Z" fill="#263238"/>
<path d="M134.219 213.084C138.422 212.356 142.865 212.281 147.013 213.269C149.17 213.783 151.346 214.452 153.114 215.789C154.882 217.127 156.202 218.654 156.033 220.87L123.74 220.76C123.74 216.813 130.016 213.813 134.219 213.084Z" fill="#263238"/>
<path d="M86.3882 73.3324C86.3882 73.3324 85.9997 73.1726 85.3075 72.8981C84.6102 72.6187 83.5743 72.2892 82.2595 72.0647C80.9447 71.8401 79.3411 71.7602 77.588 71.9998C75.8399 72.2343 73.9574 72.8133 72.1893 73.8215C70.4313 74.8496 68.987 76.1922 67.9113 77.5897C66.8305 78.9871 66.0885 80.4145 65.6253 81.6723C65.1572 82.925 64.9231 83.9931 64.8135 84.7317C64.699 85.4754 64.6691 85.8896 64.6442 85.8896C64.6342 85.8896 64.6342 85.7848 64.6442 85.5852C64.6591 85.3855 64.6541 85.0911 64.7139 84.7168C64.7936 83.9681 65.0028 82.8851 65.456 81.6074C65.9042 80.3297 66.6363 78.8723 67.722 77.4449C68.8077 76.0175 70.2719 74.645 72.0599 73.5969C73.8627 72.5687 75.7802 71.9898 77.5531 71.7652C79.3311 71.5356 80.9597 71.6354 82.2844 71.885C83.6142 72.1345 84.6551 72.4939 85.3423 72.8033C85.691 72.9431 85.945 73.0928 86.1242 73.1776C86.2986 73.2675 86.3882 73.3224 86.3882 73.3274V73.3324Z" fill="#263238"/>
<g opacity="0.3">
<path d="M117.216 89.0388C117.714 85.4553 116.449 81.6672 113.904 79.0968C111.359 76.5315 107.589 75.2388 104.009 75.718C104.004 72.2093 103.994 68.6957 103.984 65.187C103.984 65.187 106.683 65.731 106.733 73.3323C106.733 73.3323 113.108 72.7184 116.639 78.8173C120.17 84.9163 117.216 89.0438 117.216 89.0438V89.0388Z" fill="black"/>
</g>
<path d="M108.152 104.211C108.152 104.211 108.152 104.062 108.177 103.782C108.192 103.637 108.207 103.463 108.222 103.263C108.247 103.058 108.267 102.824 108.257 102.559C108.302 101.496 108.187 99.9441 107.659 98.1174C107.555 97.6533 107.345 97.1991 107.171 96.71C106.982 96.2259 106.738 95.7467 106.494 95.2476C106.205 94.7735 105.956 94.2494 105.597 93.7753C105.428 93.5307 105.264 93.2812 105.079 93.0366C104.885 92.8021 104.691 92.5625 104.492 92.3229C103.66 91.3946 102.719 90.4563 101.578 89.7126C100.448 88.959 99.1777 88.3252 97.7982 87.9109C96.4087 87.5266 94.9993 87.3769 93.6397 87.4168C92.2751 87.4368 90.9851 87.7212 89.7849 88.0656C89.4861 88.1654 89.1972 88.2603 88.9034 88.3551C88.6195 88.4599 88.3456 88.5897 88.0717 88.7045C87.5139 88.9141 87.0258 89.2235 86.5278 89.4731C86.0596 89.7675 85.5915 90.042 85.1781 90.3515C84.7747 90.6759 84.3564 90.9454 84.0177 91.2798C82.6033 92.5425 81.677 93.7953 81.149 94.7136C80.9996 94.9332 80.8901 95.1428 80.8054 95.3275C80.7158 95.5072 80.6361 95.6569 80.5713 95.7916C80.4418 96.0412 80.3721 96.171 80.3622 96.166C80.3522 96.166 80.412 96.0262 80.5215 95.7667C80.5813 95.6319 80.656 95.4722 80.7357 95.2925C80.8154 95.1029 80.92 94.8883 81.0644 94.6587C81.5674 93.7154 82.4788 92.4327 83.8982 91.1351C84.2368 90.7907 84.6552 90.5112 85.0636 90.1818C85.4819 89.8674 85.9501 89.5829 86.4232 89.2784C86.9262 89.0239 87.4193 88.7045 87.982 88.4899C88.2609 88.3751 88.5348 88.2453 88.8237 88.1305C89.1175 88.0307 89.4164 87.9309 89.7152 87.831C90.9304 87.4767 92.2452 87.1772 93.6297 87.1573C95.0092 87.1173 96.4485 87.2621 97.8679 87.6564C99.2774 88.0806 100.572 88.7244 101.718 89.498C102.878 90.2567 103.829 91.2149 104.671 92.1632C104.87 92.4078 105.069 92.6523 105.264 92.8919C105.448 93.1414 105.612 93.396 105.787 93.6455C106.145 94.1297 106.394 94.6637 106.683 95.1478C106.922 95.6569 107.166 96.146 107.355 96.6401C107.525 97.1392 107.729 97.5984 107.834 98.0675C108.342 99.9192 108.431 101.496 108.356 102.564C108.356 102.834 108.327 103.068 108.297 103.273C108.267 103.473 108.247 103.642 108.227 103.792C108.187 104.072 108.162 104.216 108.152 104.216V104.211Z" fill="#263238"/>
<path d="M61.5565 119.504C61.5565 119.504 61.4619 119.494 61.2875 119.454C61.1182 119.409 60.8543 119.364 60.5355 119.249C59.8881 119.055 58.9667 118.68 57.9308 118.051C56.8899 117.422 55.7445 116.499 54.7135 115.256C53.6826 114.019 52.7912 112.442 52.2832 110.645C51.8001 108.838 51.7552 107.026 52.0092 105.434C52.2583 103.837 52.7662 102.46 53.339 101.387C53.9117 100.308 54.5044 99.5199 54.9626 99.0158C55.1767 98.7563 55.3809 98.5816 55.5054 98.4568C55.6349 98.332 55.7046 98.2722 55.7096 98.2771C55.7295 98.2921 55.4656 98.5616 55.0373 99.0807C54.609 99.5997 54.0412 100.398 53.4984 101.466C52.9555 102.534 52.4724 103.897 52.2383 105.469C52.0043 107.036 52.0541 108.808 52.5272 110.575C53.0252 112.332 53.8918 113.884 54.8928 115.107C55.8939 116.334 57.0045 117.258 58.0205 117.897C59.0315 118.535 59.9279 118.93 60.5654 119.154C61.1979 119.379 61.5615 119.479 61.5515 119.499L61.5565 119.504Z" fill="#263238"/>
<path d="M43.2737 101.147C43.2737 101.117 43.8265 101.137 44.6931 101.312C45.5596 101.481 46.745 101.836 47.9651 102.435C49.1803 103.034 50.1863 103.757 50.8537 104.341C51.5211 104.925 51.8747 105.349 51.8547 105.369C51.8249 105.399 51.4264 105.025 50.7392 104.486C50.0519 103.947 49.0508 103.263 47.8556 102.669C46.6603 102.08 45.5049 101.706 44.6582 101.491C43.8116 101.272 43.2737 101.187 43.2787 101.147H43.2737Z" fill="#263238"/>
<path d="M115.961 93.6405C115.946 93.6854 115.408 93.5108 114.522 93.356C113.635 93.2013 112.385 93.0915 111.026 93.2612C109.661 93.4309 108.476 93.8451 107.664 94.2245C106.847 94.6038 106.374 94.9182 106.349 94.8783C106.339 94.8633 106.449 94.7735 106.653 94.6237C106.857 94.469 107.176 94.2744 107.579 94.0598C108.386 93.6305 109.596 93.1764 110.991 93.0017C112.385 92.832 113.665 92.9717 114.557 93.1764C115.005 93.2812 115.359 93.386 115.598 93.4758C115.837 93.5657 115.966 93.6206 115.961 93.6405Z" fill="#263238"/>
<g opacity="0.3">
<path d="M112.007 91.0153C110.105 90.6759 108.087 91.0153 106.399 91.9636C103.615 87.1872 97.8978 84.2975 92.4095 84.9014C86.9212 85.5003 82.6082 89.7376 80.9199 95.0031C83.7288 89.7526 88.5896 87.6764 93.7143 87.5266C98.8391 87.3819 104.063 90.2068 106.334 94.8134C109.517 92.9967 113.486 92.6374 116.942 93.8452C115.687 92.3729 113.909 91.3547 112.007 91.0153Z" fill="black"/>
</g>
<g opacity="0.3">
<path d="M57.2037 97.1443C54.2255 97.3339 51.3818 99.0508 49.8329 101.606C47.8258 100.648 45.5 100.558 43.3535 101.147C46.6754 101.447 49.9524 103.158 52.1338 105.709C51.9545 102.195 54.0412 98.6715 57.2037 97.1443Z" fill="black"/>
</g>
<g opacity="0.3">
<path d="M177.02 118.97C174.141 114.103 167.876 110.46 162.238 110.66L162.099 110.65C166.571 112.347 171.626 115.895 174.301 121.38C176.397 125.687 177.274 131.217 176.412 135.934C179.286 131.068 179.898 123.836 177.02 118.97Z" fill="black"/>
</g>
<path d="M178.633 191.608C178.688 191.204 178.733 190.795 178.743 190.385C178.768 189.173 178.873 188.154 178.549 186.812C178.325 185.874 177.871 184.925 177.533 184.521C178.245 182.934 178.708 181.262 178.892 179.565C178.962 178.926 178.987 178.252 178.683 177.668C178.16 176.66 176.836 176.196 175.61 175.932C173.21 175.418 170.695 175.308 168.25 175.607C167.946 175.642 167.627 175.697 167.408 175.882C167.114 176.131 167.104 176.536 167.119 176.895C167.179 178.143 167.358 180.229 167.214 182.27C165.974 182.729 164.823 183.463 163.862 184.436C163.852 184.446 163.842 184.456 163.827 184.471C162.721 185.579 160.142 187.341 160.142 187.341C159.409 187.835 158.951 188.349 158.901 188.953C158.857 189.512 159.131 190.006 159.604 190.311C161.128 191.294 164.534 188.818 164.534 188.818C164.534 188.818 163.942 190.68 163.035 192.042C161.506 194.338 162.706 192.417 160.371 195.91C160.132 196.27 159.38 197.198 159.678 198.171C159.992 199.19 160.719 199.314 161.72 198.93C163.414 198.276 165.625 195.92 167.099 194.728C166.696 195.227 164.709 198.092 164.38 198.616C163.917 199.349 163.454 199.953 163.668 200.567C163.882 201.181 164.763 201.391 165.411 201.346C165.939 201.306 166.377 200.941 166.77 200.587C167.881 199.579 169.34 197.792 170.301 196.639C169.853 197.662 168.782 199.669 168.494 200.747C168.384 201.146 168.09 202.009 168.274 202.379C168.583 203.008 169.485 203.048 170.132 202.788C170.974 202.454 172.119 201.116 172.612 200.357C173.105 199.599 173.439 198.75 173.768 197.907C173.768 197.907 173.638 198.521 173.479 198.875C173.319 199.229 172.901 200.263 172.896 200.652C172.891 201.041 172.453 202.494 173.07 202.893C173.902 203.427 174.604 202.543 174.824 202.274C176.268 200.457 177.1 197.977 177.682 196.265C178.2 194.753 178.414 193.19 178.624 191.608H178.633Z" fill="#F9F7FF"/>
<path d="M178.633 191.608C178.633 191.608 178.628 191.718 178.604 191.938C178.574 192.162 178.534 192.482 178.479 192.901C178.355 193.739 178.185 195.002 177.652 196.539C177.393 197.308 177.104 198.161 176.721 199.07C176.338 199.978 175.869 200.956 175.202 201.905C174.863 202.354 174.515 202.918 173.862 203.107C173.534 203.192 173.18 203.102 172.916 202.858C172.677 202.573 172.662 202.209 172.672 201.885C172.682 201.55 172.742 201.221 172.797 200.891C172.811 200.812 172.821 200.727 172.821 200.652C172.821 200.557 172.841 200.467 172.861 200.382C172.901 200.213 172.951 200.043 173.006 199.878C173.115 199.549 173.245 199.22 173.384 198.895C173.529 198.581 173.613 198.236 173.688 197.887L173.867 197.942C173.484 198.925 173.08 199.978 172.368 200.891C172.02 201.346 171.631 201.785 171.193 202.189C170.974 202.389 170.74 202.583 170.476 202.743C170.207 202.908 169.903 203.008 169.584 203.038C169.27 203.073 168.937 203.038 168.633 202.883C168.484 202.803 168.349 202.688 168.254 202.543C168.15 202.409 168.115 202.199 168.12 202.039C168.13 201.705 168.215 201.396 168.294 201.091C168.379 200.792 168.464 200.477 168.578 200.173C169.036 198.965 169.659 197.807 170.207 196.594L170.401 196.714C169.629 197.647 168.837 198.611 167.976 199.549C167.542 200.018 167.099 200.482 166.591 200.911C166.337 201.121 166.048 201.321 165.705 201.416C165.351 201.505 165.012 201.475 164.669 201.416C164.335 201.341 163.986 201.206 163.737 200.916C163.483 200.622 163.449 200.193 163.563 199.848C163.673 199.504 163.862 199.21 164.046 198.92C164.225 198.631 164.42 198.351 164.619 198.072C165.406 196.949 166.203 195.806 167.009 194.648L167.189 194.827C165.849 195.935 164.604 197.243 163.105 198.306C162.731 198.571 162.333 198.815 161.9 199C161.471 199.18 160.993 199.339 160.48 199.219C160.226 199.16 160.002 198.995 159.853 198.79C159.698 198.586 159.609 198.356 159.549 198.116C159.424 197.622 159.549 197.108 159.763 196.679C161.362 193.944 163.608 191.708 164.43 188.788L164.629 188.933C163.966 189.392 163.284 189.802 162.562 190.131C161.845 190.455 161.073 190.73 160.251 190.67C159.843 190.62 159.439 190.415 159.175 190.101C158.901 189.792 158.762 189.362 158.802 188.948C158.837 188.529 159.066 188.16 159.335 187.88C159.604 187.596 159.922 187.366 160.226 187.161C161.441 186.308 162.637 185.454 163.673 184.491C164.674 183.453 165.894 182.654 167.194 182.18L167.119 182.28C167.214 180.923 167.174 179.585 167.104 178.287C167.084 177.963 167.069 177.639 167.049 177.319C167.039 177 166.99 176.675 167.059 176.336C167.094 176.166 167.174 175.997 167.303 175.867C167.433 175.737 167.597 175.662 167.756 175.612C168.08 175.522 168.389 175.507 168.693 175.472C171.153 175.223 173.499 175.403 175.61 175.852C176.651 176.086 177.712 176.401 178.429 177.159C178.788 177.534 178.977 178.038 179.017 178.517C179.062 179.001 179.002 179.47 178.947 179.919C178.708 181.716 178.185 183.273 177.603 184.566L177.593 184.501C177.966 184.99 178.18 185.514 178.369 186.013C178.549 186.513 178.663 186.997 178.733 187.451C178.873 188.359 178.828 189.138 178.808 189.757C178.793 190.376 178.743 190.845 178.708 191.159C178.673 191.474 178.648 191.633 178.648 191.633C178.648 191.633 178.648 191.474 178.673 191.159C178.698 190.845 178.738 190.376 178.743 189.757C178.753 189.138 178.788 188.364 178.638 187.471C178.564 187.022 178.449 186.547 178.265 186.058C178.081 185.574 177.852 185.05 177.498 184.586C177.483 184.566 177.483 184.541 177.488 184.521C178.056 183.233 178.564 181.686 178.788 179.904C178.843 179.46 178.897 179.001 178.853 178.542C178.813 178.083 178.638 177.629 178.305 177.284C177.637 176.58 176.606 176.266 175.576 176.041C173.484 175.602 171.153 175.438 168.718 175.692C168.414 175.732 168.1 175.747 167.821 175.827C167.537 175.902 167.328 176.101 167.278 176.391C167.219 176.675 167.258 176.995 167.278 177.319C167.298 177.639 167.318 177.963 167.333 178.287C167.408 179.59 167.448 180.938 167.358 182.31C167.358 182.355 167.323 182.395 167.283 182.41C166.013 182.879 164.838 183.653 163.847 184.676C162.786 185.664 161.596 186.517 160.376 187.381C160.067 187.591 159.773 187.8 159.524 188.065C159.275 188.324 159.086 188.639 159.061 188.983C159.031 189.332 159.146 189.682 159.38 189.946C159.614 190.216 159.937 190.38 160.296 190.425C161.023 190.48 161.775 190.226 162.472 189.906C163.175 189.587 163.852 189.183 164.494 188.733C164.554 188.689 164.634 188.704 164.674 188.763C164.699 188.798 164.704 188.838 164.689 188.878C164.45 189.597 164.166 190.301 163.827 190.989C163.498 191.683 163.055 192.327 162.622 192.961C162.408 193.285 162.164 193.595 161.944 193.899C161.725 194.219 161.506 194.533 161.287 194.852L160.635 195.821C160.415 196.155 160.181 196.455 160.017 196.799C159.818 197.198 159.718 197.647 159.823 198.062C159.927 198.481 160.166 198.89 160.57 198.98C160.968 199.08 161.422 198.945 161.82 198.775C162.228 198.601 162.612 198.366 162.98 198.107C164.45 197.063 165.695 195.766 167.054 194.643C167.109 194.598 167.189 194.608 167.234 194.658C167.268 194.703 167.273 194.768 167.239 194.812V194.822C166.432 195.97 165.635 197.103 164.853 198.221C164.654 198.496 164.46 198.78 164.285 199.07C164.106 199.354 163.927 199.639 163.832 199.933C163.732 200.228 163.767 200.547 163.956 200.767C164.146 200.991 164.445 201.121 164.748 201.186C165.052 201.246 165.386 201.271 165.67 201.196C165.959 201.116 166.223 200.936 166.467 200.737C166.955 200.327 167.398 199.863 167.826 199.399C168.683 198.466 169.475 197.508 170.247 196.579C170.286 196.529 170.361 196.524 170.411 196.564C170.451 196.599 170.466 196.654 170.446 196.704C169.893 197.932 169.265 199.085 168.812 200.268C168.698 200.562 168.618 200.862 168.533 201.166C168.449 201.465 168.374 201.77 168.364 202.059C168.339 202.349 168.518 202.573 168.762 202.708C169.007 202.838 169.305 202.873 169.589 202.843C170.172 202.803 170.655 202.439 171.083 202.054C171.512 201.665 171.89 201.231 172.239 200.787C172.936 199.903 173.334 198.87 173.723 197.892C173.743 197.842 173.793 197.817 173.842 197.837C173.887 197.852 173.912 197.902 173.902 197.947C173.822 198.306 173.733 198.656 173.583 198.99C173.444 199.309 173.314 199.634 173.205 199.958C173.15 200.118 173.1 200.283 173.065 200.442C173.046 200.522 173.036 200.602 173.031 200.677C173.031 200.772 173.016 200.857 173.001 200.941C172.946 201.276 172.886 201.595 172.876 201.915C172.861 202.224 172.891 202.558 173.07 202.768C173.275 202.953 173.588 203.048 173.857 202.973C174.425 202.818 174.779 202.284 175.112 201.84C175.775 200.911 176.248 199.943 176.636 199.045C177.025 198.141 177.324 197.293 177.588 196.529C178.135 195.007 178.32 193.754 178.459 192.916C178.524 192.502 178.574 192.182 178.609 191.958C178.643 191.743 178.668 191.633 178.668 191.633L178.633 191.608Z" fill="#263238"/>
<path d="M177.588 184.561C177.558 184.596 177.08 184.172 176.233 183.603C175.386 183.044 174.121 182.38 172.597 182.086C171.073 181.796 169.654 181.916 168.648 182.071C167.642 182.23 167.024 182.4 167.014 182.355C167.014 182.34 167.159 182.28 167.433 182.19C167.707 182.095 168.11 181.996 168.618 181.886C169.624 181.686 171.078 181.532 172.647 181.826C174.216 182.13 175.506 182.839 176.338 183.448C176.756 183.757 177.075 184.022 177.284 184.227C177.493 184.426 177.603 184.541 177.593 184.556L177.588 184.561Z" fill="#263238"/>
</g>
<defs>
<clipPath id="clip0_377_5459">
<rect width="220" height="221" fill="white"/>
</clipPath>
</defs>
</svg>
