<svg width="319" height="220" viewBox="0 0 319 220" fill="none" xmlns="http://www.w3.org/2000/svg">
<g clip-path="url(#clip0_377_5667)">
<path d="M248.615 119.63L287.97 121.966C290.986 94.1666 291.636 73.9779 287.97 56.1014C273.405 52.4646 259.36 53.9311 245.694 59.0227C250.59 77.3664 251.483 91.1625 248.615 119.624V119.63Z" fill="#263558"/>
<path d="M289.791 68.3601L281.21 71.8372C271.116 75.9294 260.33 78.0287 249.443 78.0287C250.744 89.2466 250.448 101.446 248.615 119.63L287.97 121.966C290.323 100.311 291.234 83.2799 289.791 68.3601Z" fill="#232147"/>
<path d="M288.307 117.531L280.779 213.868L270.856 213.359L273.298 116.75L288.307 117.531Z" fill="#323948"/>
<path d="M263.778 117.98L250.419 214.169L240.549 213.057L248.84 116.301L263.778 117.98Z" fill="#323948"/>
<path d="M287.899 220H270.832V212.561H280.838L287.899 220Z" fill="black"/>
<path d="M237.084 220H250.608V212.561H240.597L237.084 220Z" fill="black"/>
<path d="M287.473 128.157L288.301 117.531L273.292 116.756L272.695 140.499C277.248 135.951 282.139 131.759 287.473 128.157Z" fill="#001E3C"/>
<path d="M243.973 177.245C248.331 170.687 252.814 164.218 257.61 157.973C257.858 157.654 258.106 157.335 258.361 157.009L263.783 117.974L248.852 116.301L243.577 177.86C243.713 177.653 243.849 177.446 243.985 177.245H243.973Z" fill="#001E3C"/>
<path d="M299.111 101.718C299.755 99.6071 300.394 97.49 300.926 95.3789C301.476 93.2678 301.955 91.1567 302.31 89.0751C302.671 86.9936 302.931 84.9238 303.002 82.9428C303.073 80.9618 302.943 79.0695 302.558 77.4196L302.416 76.8046L302.227 76.231C302.121 75.8348 301.937 75.5036 301.807 75.1429C301.464 74.4747 301.127 73.836 300.66 73.2979C299.803 72.1802 298.578 71.2932 297.1 70.5126C295.616 69.738 293.83 69.1466 291.932 68.6795C290.028 68.2123 288.005 67.8752 285.929 67.6209C282.736 67.2306 280.471 64.3271 280.862 61.1338C281.252 57.9405 284.155 55.6757 287.349 56.066C287.467 56.0778 287.603 56.1014 287.715 56.1251C290.116 56.5745 292.547 57.1304 295.013 57.9051C297.473 58.6916 299.98 59.6614 302.434 61.1516C304.864 62.6359 307.295 64.6287 309.045 67.2366C309.956 68.508 310.63 69.9154 311.192 71.3228C311.428 72.0324 311.706 72.742 311.866 73.4517L312.132 74.5161L312.316 75.5687C312.771 78.3835 312.729 81.0623 312.481 83.6051C312.227 86.1479 311.754 88.5725 311.192 90.926C310.63 93.2855 309.956 95.5682 309.217 97.8035C308.495 100.051 307.679 102.239 306.857 104.415C306.059 106.538 303.694 107.608 301.577 106.81C299.542 106.047 298.472 103.835 299.093 101.783L299.117 101.706L299.111 101.718Z" fill="#263558"/>
<path d="M262.713 55.0665L263.198 59.4838C263.535 62.5648 266.45 64.6818 269.49 64.055C272.547 63.4222 274.38 60.2822 273.428 57.3077L272.447 54.2267L271.861 40.7913L262.128 41.1697L262.713 55.0665Z" fill="#EDA679"/>
<path d="M263.021 57.8635C267.781 63.1679 273.488 57.4969 273.428 57.3077L272.447 54.2267L271.861 40.7913L262.128 41.1697L262.713 55.0665L263.021 57.8635Z" fill="#CA7052"/>
<path d="M282.127 106.278C276.421 106.408 270.72 106.579 264.842 106.467C261.897 106.396 258.917 106.278 255.723 105.787L254.517 105.586C254.115 105.515 253.689 105.402 253.275 105.314C252.459 105.148 251.578 104.852 250.715 104.58C248.964 103.936 247.072 102.99 245.387 101.458C244.985 101.056 244.553 100.677 244.204 100.228C243.855 99.7786 243.5 99.3232 243.187 98.8561C242.909 98.383 242.637 97.8981 242.377 97.4132C242.146 96.9342 241.963 96.4552 241.768 95.9644C241.555 95.4676 241.46 95.0182 241.312 94.5451L241.117 93.8414C241.064 93.6108 241.022 93.392 240.975 93.1673C240.892 92.7238 240.798 92.2625 240.727 91.8249L240.573 90.5417C240.514 90.1041 240.49 89.6961 240.467 89.288L240.39 88.058C240.372 87.2656 240.354 86.4732 240.354 85.6926C240.366 84.9298 240.372 84.1551 240.402 83.3982L240.496 81.1511C240.833 75.2435 241.407 69.5961 241.88 63.9428C242.146 60.7377 244.961 58.3604 248.166 58.6265C251.371 58.8926 253.748 61.7075 253.482 64.9126C253.476 65.0013 253.464 65.0959 253.453 65.1846V65.226C252.684 70.8852 251.826 76.5444 251.241 81.9849C250.969 84.6755 250.75 87.3721 250.886 89.6606L250.939 90.5003L251.04 91.2631C251.058 91.3873 251.069 91.5233 251.093 91.6416L251.17 91.9669C251.229 92.1738 251.247 92.434 251.324 92.5937C251.554 93.392 251.815 93.8296 252.211 94.2495C252.607 94.6693 253.257 95.101 254.15 95.4972C254.641 95.6687 255.097 95.8757 255.67 96.0117C255.948 96.0886 256.208 96.1773 256.504 96.2423L257.397 96.4375C259.81 96.9401 262.524 97.2062 265.262 97.4073C270.761 97.7976 276.45 97.9099 282.127 98.0696H282.145C284.41 98.1346 286.196 100.015 286.131 102.28C286.072 104.474 284.292 106.212 282.121 106.266L282.127 106.278Z" fill="#263558"/>
<path d="M279.561 102.262C279.448 103.687 280.329 105.355 281.79 106.271C282.062 106.443 282.352 106.585 282.653 106.668C285.504 107.43 287.928 102.658 286.604 100.488C284.498 97.0286 279.75 99.8257 279.561 102.268V102.262Z" fill="#6ED6E3"/>
<path d="M293.156 99.1043C293.895 99.8908 294.492 100.772 295.001 101.86C295.237 102.363 295.438 102.942 295.249 103.463C294.658 105.101 291.878 105.727 290.388 106.118C288.313 106.656 286.113 106.721 284.002 106.301C282.511 105.999 282.139 103.906 282.523 102.67C282.99 101.168 284.179 100.027 285.45 99.1693C286.568 98.4183 287.786 97.685 289.087 97.2888C289.602 97.1351 290.152 96.9991 290.66 97.1705C290.92 97.2593 291.151 97.4189 291.376 97.5845C292.056 98.0694 292.641 98.5661 293.156 99.1102V99.1043Z" fill="#EDA679"/>
<path d="M281.305 40.4542C281.305 42.4944 280.14 44.1265 278.697 44.1088C277.254 44.0851 276.084 42.4175 276.078 40.3773C276.078 38.3372 277.243 36.7051 278.685 36.7228C280.128 36.7465 281.299 38.4141 281.305 40.4542Z" fill="#EDA679"/>
<path d="M255.274 45.2855C256.001 47.1896 257.675 48.3014 259.017 47.7632C260.36 47.2251 260.856 45.2441 260.129 43.3399C259.402 41.4358 257.728 40.3241 256.386 40.8622C255.043 41.4003 254.547 43.3813 255.274 45.2855Z" fill="#EDA679"/>
<path d="M279.04 37.0777C279.886 43.4584 276.374 54.2978 270.365 55.0962C264.357 55.8945 258.136 46.3501 257.291 39.9694C256.445 33.5888 258.195 26.7232 269.053 25.8421C275.09 25.3513 278.195 30.703 279.04 37.0836V37.0777Z" fill="#EDA679"/>
<path d="M257.947 42.7487C258.864 46.35 262.589 48.881 265.954 49.9809C265.93 49.9217 265.913 49.8567 265.895 49.7916C265.463 48.1418 266.581 46.5097 268.171 46.3027L272.157 45.7823C273.612 45.5931 274.972 46.6634 275.22 48.2009C275.256 48.4138 275.274 48.6149 275.268 48.7923C277.775 46.622 278.556 43.2809 279.147 39.9338C279.661 43.7835 279.064 46.6516 278.455 48.8455C277.828 51.0808 273.902 55.0428 270.424 55.5041C266.717 55.9949 263.009 53.0027 261.826 52.021C259.969 50.2233 258.349 46.1903 257.953 42.7487H257.947Z" fill="#EDA679"/>
<path d="M272.465 20.4075C268.562 22.7433 262.701 22.5009 260.845 23.9556L259.916 27.1193L258.81 26.1199C254.34 27.2139 252.643 36.0309 258.16 44.1088C260.141 42.9734 262.181 39.9339 260.738 35.2208C266.208 32.9855 271.471 31.448 277.858 32.2759L279.07 37.261C279.886 32.0098 279.472 24.2986 272.465 20.4134V20.4075Z" fill="black"/>
<path d="M272.772 47.2074L268.059 47.8342C267.74 47.8756 267.515 48.1713 267.562 48.4847C267.775 50.105 269.265 51.2463 270.886 51.0275C272.506 50.8146 273.647 49.3244 273.428 47.7041C273.387 47.3848 273.091 47.1601 272.778 47.2014L272.772 47.2074Z" fill="#EDA679"/>
<path d="M266.847 46.4564C265.978 46.4564 265.138 46.1726 264.44 45.6344C263.606 44.9899 263.068 44.0555 262.938 43.0148L262.613 40.4897L263.003 40.3596C265.28 39.6027 267.645 39.2952 270.04 39.4548L270.448 39.4844L270.773 42.0095C271.051 44.1679 269.52 46.1548 267.361 46.4328C267.19 46.4564 267.018 46.4682 266.847 46.4682V46.4564ZM263.707 41.1816L263.926 42.8847C264.026 43.6652 264.422 44.363 265.049 44.842C265.676 45.321 266.451 45.5339 267.231 45.4334C268.846 45.2264 269.987 43.7421 269.78 42.1277L269.561 40.4246C267.568 40.3419 265.611 40.5961 263.707 41.1816Z" fill="black"/>
<path d="M276.344 45.2324C275.475 45.2324 274.635 44.9486 273.937 44.4104C273.103 43.7659 272.565 42.8374 272.435 41.7908L272.11 39.2657L272.5 39.1356C274.777 38.3787 277.136 38.0771 279.537 38.2308L279.945 38.2604L280.271 40.7855C280.407 41.8322 280.123 42.867 279.478 43.7008C278.834 44.5346 277.905 45.0728 276.858 45.2029C276.687 45.2265 276.515 45.2383 276.344 45.2383V45.2324ZM273.204 39.9576L273.423 41.6607C273.523 42.4412 273.919 43.139 274.546 43.618C275.173 44.1029 275.948 44.3099 276.728 44.2094C277.509 44.1089 278.207 43.7067 278.686 43.0858C279.165 42.459 279.378 41.6902 279.277 40.9037L279.058 39.2006C277.071 39.1179 275.108 39.3721 273.204 39.9576Z" fill="black"/>
<path d="M280.519 38.0351L258.005 40.9512L258.133 41.9423L280.647 39.0262L280.519 38.0351Z" fill="black"/>
<path d="M299.128 106.153H237.007V220H299.128V106.153Z" fill="#4392CF"/>
<path d="M299.128 106.153H237.007V120.056H299.128V106.153Z" fill="#265C9C"/>
<path d="M300.69 106.153H235.44C234.356 106.153 233.477 107.032 233.477 108.117V113.468C233.477 114.553 234.356 115.432 235.44 115.432H300.69C301.774 115.432 302.653 114.553 302.653 113.468V108.117C302.653 107.032 301.774 106.153 300.69 106.153Z" fill="#4392CF"/>
<path d="M294.22 124.604H241.915V147.536H294.22V124.604Z" fill="#001E3C"/>
<path d="M256.38 140.061H250.129V137.767L255.398 129.086H259.49V137.513H261.146V140.055H259.49V143.509H256.38V140.055V140.061ZM256.38 137.519V135.177C256.38 134.243 256.468 132.859 256.516 131.948H256.427C256.06 132.74 255.652 133.562 255.244 134.379L253.334 137.513H256.38V137.519Z" fill="#66B70A"/>
<path d="M262.536 136.241C262.536 131.333 264.605 128.814 267.692 128.814C270.779 128.814 272.849 131.333 272.849 136.241C272.849 141.15 270.779 143.787 267.692 143.787C264.605 143.787 262.536 141.15 262.536 136.241ZM269.691 136.241C269.691 132.285 268.828 131.404 267.692 131.404C266.557 131.404 265.693 132.291 265.693 136.241C265.693 140.192 266.58 141.197 267.692 141.197C268.804 141.197 269.691 140.174 269.691 136.241Z" fill="#66B70A"/>
<path d="M274.528 136.241C274.528 131.333 276.598 128.814 279.685 128.814C282.772 128.814 284.841 131.333 284.841 136.241C284.841 141.15 282.772 143.787 279.685 143.787C276.598 143.787 274.528 141.15 274.528 136.241ZM281.684 136.241C281.684 132.285 280.82 131.404 279.685 131.404C278.55 131.404 277.686 132.291 277.686 136.241C277.686 140.192 278.573 141.197 279.685 141.197C280.797 141.197 281.684 140.174 281.684 136.241Z" fill="#66B70A"/>
<path d="M268.065 197.132C280.665 197.132 290.879 186.918 290.879 174.318C290.879 161.718 280.665 151.504 268.065 151.504C255.465 151.504 245.25 161.718 245.25 174.318C245.25 186.918 255.465 197.132 268.065 197.132Z" fill="#265C9C"/>
<path d="M259.78 181.822L262.37 178.28C263.819 179.688 265.605 180.717 267.663 180.717C270.022 180.717 271.583 179.688 271.583 177.86C271.583 175.732 270.33 174.395 265.073 174.395V170.439C269.413 170.439 270.779 169.144 270.779 167.204C270.779 165.531 269.715 164.543 267.811 164.543C266.096 164.543 264.807 165.342 263.281 166.672L260.466 163.248C262.672 161.344 265.108 160.167 268.077 160.167C273.062 160.167 276.409 162.562 276.409 166.79C276.409 169.304 274.96 171.054 272.376 172.16V172.314C275.155 173.112 277.172 175.093 277.172 178.215C277.172 182.704 273.062 185.258 268.189 185.258C264.268 185.258 261.53 183.886 259.78 181.834V181.822Z" fill="white"/>
<path d="M278.455 101.482H257.681V106.153H278.455V101.482Z" fill="white"/>
<path d="M259.478 101.482H276.651C276.651 99.3646 274.93 97.6438 272.813 97.6438H263.316C261.199 97.6438 259.478 99.3646 259.478 101.482Z" fill="#66B70A"/>
<path d="M300.477 100.258C299.471 100.648 298.555 101.192 297.626 101.955C297.195 102.31 296.769 102.747 296.716 103.297C296.55 105.03 298.791 106.786 299.974 107.78C301.618 109.157 303.581 110.163 305.663 110.683C307.135 111.05 308.371 109.317 308.56 108.034C308.785 106.479 308.2 104.935 307.419 103.616C306.733 102.457 305.941 101.275 304.941 100.358C304.545 99.9974 304.102 99.6367 303.569 99.5716C303.297 99.5361 303.02 99.5894 302.747 99.6367C301.926 99.7845 301.186 99.9796 300.483 100.252L300.477 100.258Z" fill="#EDA679"/>
<path d="M304.277 37.3311C312.82 36.4724 319.143 29.7833 318.4 22.3905C317.657 14.9977 310.129 9.70088 301.586 10.5596C293.043 11.4184 286.72 18.1075 287.463 25.5003C288.206 32.893 295.734 38.1899 304.277 37.3311Z" fill="#6ED6E3"/>
<path d="M284.167 43.0561C285.995 40.9273 287.621 38.6565 288.863 36.2674C290.104 33.8843 290.926 31.377 291.181 28.9229L295.959 30.2534C294.717 33.1569 292.907 35.6465 290.861 37.7281C288.815 39.8214 286.533 41.5423 284.167 43.0502V43.0561Z" fill="#6ED6E3"/>
<path d="M293.984 28.6686H298.336V24.541H293.984V28.6686ZM300.358 28.6686H304.711V24.541H300.358V28.6686ZM306.733 28.6686H311.085V24.541H306.733V28.6686Z" fill="white"/>
<path d="M79.0456 53.2214C81.9551 57.1066 84.7167 61.1218 87.2772 65.3204C88.5546 67.4197 89.7786 69.5663 90.9259 71.7957C91.4995 72.9134 92.0553 74.0488 92.5876 75.2255C93.1139 76.4082 93.6224 77.6205 94.0778 78.9984C94.3025 79.708 94.5213 80.4176 94.6987 81.4347L94.7282 81.624L94.7578 81.8546C94.7756 82.0142 94.7933 82.1503 94.8051 82.3277C94.817 82.5287 94.8169 82.7357 94.8169 82.9427C94.8169 83.0254 94.8051 83.2088 94.7992 83.3507C94.7874 83.4985 94.7696 83.6523 94.7519 83.8001C94.7401 83.9066 94.6868 84.2022 94.6218 84.4329C94.5568 84.6753 94.4858 84.9059 94.3912 85.1543C94.2256 85.5564 94.0068 85.9467 93.7525 86.3074C93.5751 86.5913 93.0311 87.1886 92.4811 87.5611C91.9193 87.9632 91.3398 88.2175 90.6893 88.3772C90.3641 88.454 90.0388 88.5073 89.7136 88.5309L89.4771 88.5427H89.3233L89.0099 88.525C88.596 88.4954 88.1702 88.4127 87.7799 88.3003C87.5611 88.2293 87.3364 88.1465 87.1235 88.0519L86.8042 87.9041L86.6563 87.8272L86.5617 87.774L86.201 87.5552C86.0886 87.4842 85.9526 87.3896 85.8639 87.3246L85.6333 87.1472C85.2962 86.887 85.1011 86.6977 84.8882 86.4967C84.6753 86.2956 84.5334 86.1419 84.356 85.9585L83.9243 85.4736C83.3921 84.8527 82.9663 84.285 82.5524 83.7232C80.9616 81.4998 79.6843 79.3768 78.4484 77.2184C76.0002 72.9193 73.8181 68.5906 71.7247 64.2323C70.3351 61.3347 71.5532 57.8576 74.4509 56.462C77.3485 55.0723 80.8256 56.2905 82.2153 59.1881C82.2626 59.2887 82.3158 59.4069 82.3572 59.5134C84.1076 63.8125 85.9526 68.0702 87.9514 72.1387C88.9448 74.1552 90.0093 76.1599 91.0796 77.8571C91.3398 78.2651 91.6059 78.6554 91.8247 78.957L92.0494 79.2526C92.0494 79.2526 91.9962 79.2112 91.9666 79.1994L91.9075 79.1639L91.7538 79.0575C91.6946 79.022 91.6355 78.9865 91.5764 78.957L91.4285 78.8801C91.3576 78.8446 91.2866 78.8091 91.2097 78.7736C91.0619 78.7086 90.9081 78.6554 90.7544 78.614C90.435 78.5135 90.0861 78.4425 89.7432 78.4247C89.6545 78.4247 89.5717 78.4188 89.4889 78.4188H89.1518C88.868 78.4425 88.5723 78.4839 88.2825 78.5548C87.703 78.7027 87.2004 78.9392 86.6859 79.2822C86.1951 79.6015 85.722 80.1692 85.5742 80.3821C85.3554 80.6778 85.172 81.0089 85.0479 81.346C84.9769 81.5234 84.9177 81.6772 84.8764 81.8546C84.835 82.0142 84.7995 82.239 84.7936 82.2744C84.7817 82.3513 84.7699 82.4282 84.7699 82.5051V82.6884C84.764 82.7475 84.7699 82.8007 84.7699 82.8599C84.7699 82.8894 84.7699 82.8776 84.7758 82.8894V82.9013V82.8717C84.7758 82.718 84.693 82.2804 84.5807 81.8546C84.3501 80.9676 84.0071 79.9623 83.6345 78.957C83.2561 77.9517 82.8303 76.9286 82.3809 75.9056C81.482 73.8654 80.4767 71.8253 79.4123 69.8088C77.2775 65.7758 74.8944 61.8196 72.3516 57.9581V57.9463C71.0979 56.054 71.6242 53.5112 73.5165 52.2634C75.3379 51.063 77.7624 51.5124 79.0575 53.2332L79.0456 53.2214Z" fill="#D88C34"/>
<path d="M78.1763 56.1073C63.6113 52.4705 49.5667 53.937 35.9006 59.0285C40.5427 76.4142 41.5835 89.7196 39.2358 115.29V119.66L78.1763 121.972C81.1921 94.1725 81.8426 73.9838 78.1763 56.1073Z" fill="#EBA934"/>
<path d="M65.0423 64.114C65.6573 60.5186 65.7874 57.142 65.0423 54.1735C59.9862 53.9369 54.9893 54.2799 50.0457 55.1492C51.0628 59.608 52.7777 63.5464 55.6517 66.6214L59.9626 60.6487L65.0423 64.114Z" fill="#212B3F"/>
<path d="M79.9976 68.3601L46.2019 78.0287H39.6497C40.8443 88.3241 40.6905 99.4592 39.2417 115.278V119.66L78.1821 121.972C80.5357 100.317 81.4464 83.2858 80.0035 68.366L79.9976 68.3601Z" fill="#D88C34"/>
<path d="M39.7681 108.897C39.6143 110.943 39.4428 113.06 39.2358 115.278V119.66L78.1762 121.972C78.673 117.413 79.0988 113.072 79.4536 108.903H39.7681V108.897Z" fill="#001E3C"/>
<path d="M78.4719 116.301C79.8615 132.462 81.5883 148.559 83.8472 164.585C86.0944 180.616 88.9033 196.577 92.0907 212.513L82.4044 214.713C78.3536 198.83 74.6695 182.804 71.5413 166.648C68.3953 150.499 65.7992 134.242 63.5403 117.974L78.4719 116.295V116.301Z" fill="#323948"/>
<path d="M79.8202 130.7C79.3352 125.904 78.8858 121.108 78.4719 116.301L63.5403 117.98C64.8294 127.282 66.2546 136.572 67.8039 145.851L79.8202 130.7Z" fill="#001E3C"/>
<path d="M54.0018 116.52L59.4836 213.205L49.5844 214.027L39.0288 117.761L54.0018 116.52Z" fill="#001E3C"/>
<path d="M52.9197 55.0664C54.5755 56.7577 56.9054 58.035 59.7853 58.9811C61.1572 57.485 62.1566 55.9061 62.6474 54.2326L62.062 40.7971L52.3284 41.1756L52.9138 55.0723L52.9197 55.0664Z" fill="#EDA679"/>
<path d="M62.6001 53.2689L62.1211 42.2402L52.3875 42.6187L52.8369 53.3635C55.9651 55.5397 60.5954 55.5397 62.6001 53.2748V53.2689Z" fill="#CA7052"/>
<path d="M92.7234 213.95L83.2973 220L81.8662 212.703L91.6826 210.775L92.7234 213.95Z" fill="black"/>
<path d="M42.5889 220H59.6611V212.561H49.6496L42.5889 220Z" fill="black"/>
<path d="M79.0454 53.2215C81.9549 57.1066 84.7165 61.1219 87.277 65.3205C88.5543 67.4198 89.7784 69.5664 90.9256 71.7958C92.5814 75.0541 95.6801 79.9741 91.925 83.0019C90.3993 84.2319 88.0694 84.3797 86.4373 83.2916C84.1369 81.7541 83.4214 78.2947 82.3688 75.8997C81.47 73.8596 80.4647 71.8194 79.4002 69.8029C77.2655 65.7699 74.8823 61.8138 72.3336 57.9404C71.0859 56.0481 71.6122 53.5053 73.5045 52.2576C75.3258 51.0571 77.7504 51.5065 79.0454 53.2274V53.2215Z" fill="#F6C740"/>
<path d="M70.7548 37.1427C70.9618 39.1592 69.9683 40.8859 68.5372 41.0101C67.1062 41.1284 65.7875 39.5968 65.5805 37.5803C65.3735 35.5638 66.367 33.837 67.7981 33.7128C69.2291 33.5887 70.5478 35.1262 70.7548 37.1427Z" fill="#EDA679"/>
<path d="M68.4012 33.222C69.8678 39.443 67.4669 50.5012 61.6125 51.885C55.7582 53.2687 48.662 44.4517 47.1954 38.2307C45.7289 32.0097 51.5655 24.4877 57.4199 23.104C63.2742 21.7202 66.9347 27.0009 68.4012 33.222Z" fill="#EDA679"/>
<path d="M48.1179 40.9097C49.3834 44.3809 53.3159 46.5098 56.7457 47.2608C56.7161 47.2076 56.6925 47.1425 56.6688 47.0775C56.0775 45.4927 57.0237 43.7659 58.573 43.4052L62.4641 42.4945C63.8833 42.1634 65.3321 43.0859 65.7283 44.582C65.7815 44.789 65.817 44.9841 65.8348 45.1615C68.0937 42.7665 68.5432 39.3899 68.7915 36.0251C69.6785 39.7802 69.377 42.6719 68.9867 44.9013C68.5905 47.1721 65.1015 51.4771 61.7071 52.2814C58.094 53.1329 54.1319 50.5428 52.8665 49.6853C50.8559 48.0887 48.8512 44.2686 48.1238 40.9038L48.1179 40.9097Z" fill="#EDA679"/>
<path d="M61.9377 19.3194C56.1306 18.2313 50.8144 20.4311 49.1231 22.0455L48.52 25.2625L47.3313 24.3814C43.0204 25.907 42.4468 35.067 48.6855 42.9084C50.5306 41.5896 54.0609 37.1782 51.66 30.1825C55.1963 32.3764 61.5237 31.2469 67.9222 31.4362L69.0812 36.5395C70.0865 29.1181 70.9794 22.1342 61.9436 19.3194H61.9377Z" fill="#CA7052"/>
<path d="M45.4746 43.7658C46.3794 45.5754 48.1475 46.5097 49.4189 45.8415C50.6903 45.1792 50.986 43.1745 50.0812 41.365C49.1764 39.5554 47.4083 38.6211 46.1369 39.2893C44.8655 39.9516 44.5698 41.9563 45.4746 43.7658Z" fill="#EDA679"/>
<path d="M35.8001 108.282C33.7954 107.188 31.7908 106.065 29.8452 104.681C28.8636 104.03 27.9174 103.25 26.9653 102.487C26.0369 101.653 25.1026 100.825 24.2392 99.8317C22.5066 97.9039 20.904 95.5148 20.0051 92.6409C19.059 89.7787 19.1004 86.5618 19.7272 83.7943C20.3481 80.9913 21.4894 78.5963 22.7135 76.4438C23.9494 74.2913 25.3096 72.3694 26.6756 70.554C29.3958 66.9408 32.2165 63.6884 34.375 60.5424C36.1963 57.8931 39.8213 57.2249 42.4705 59.0463C45.1198 60.8676 45.788 64.4926 43.9667 67.1419C43.8898 67.2542 43.8011 67.3725 43.7183 67.473C40.7438 71.1985 37.7102 74.2262 35.0727 77.3013C33.7599 78.8269 32.5418 80.3408 31.5365 81.8428C30.5312 83.3389 29.7388 84.8351 29.3426 86.2011C28.9464 87.5789 28.8163 88.7971 29.1297 90.0508C29.4194 91.3044 30.1054 92.6468 31.1403 93.9714C31.637 94.6396 32.2697 95.2783 32.8848 95.9229C33.5707 96.5438 34.2271 97.1824 35.0018 97.7679C36.4683 98.9802 38.1478 100.068 39.8331 101.15L39.9632 101.233C41.8733 102.451 42.4291 104.988 41.211 106.892C40.046 108.72 37.6629 109.305 35.7942 108.288L35.8001 108.282Z" fill="#EBA934"/>
<path d="M34.4756 104.687C34.5465 106.112 35.6287 107.655 37.1958 108.377C37.4855 108.513 37.793 108.619 38.1005 108.661C41.0277 109.051 42.8195 104.013 41.2288 102.026C38.6978 98.862 34.3455 102.239 34.4696 104.687H34.4756Z" fill="#212B3F"/>
<path d="M46.3852 99.9677C47.219 100.654 47.9227 101.452 48.5673 102.463C48.8689 102.93 49.1409 103.48 49.0167 104.024C48.6383 105.722 45.9654 106.703 44.5343 107.277C42.5414 108.075 40.3653 108.424 38.2246 108.276C36.7048 108.17 36.0721 106.136 36.2909 104.864C36.5629 103.315 37.5918 102.032 38.745 101.02C39.7562 100.127 40.8738 99.2522 42.1098 98.6904C42.6006 98.4716 43.1328 98.2646 43.6591 98.3711C43.9311 98.4243 44.1795 98.5544 44.4219 98.6904C45.1552 99.0866 45.7998 99.5065 46.3793 99.9796L46.3852 99.9677Z" fill="#EDA679"/>
<path d="M78.6375 57.8873C77.6973 58.9635 75.8936 59.5017 74.2142 59.0996C73.9008 59.0227 73.5933 58.9162 73.3272 58.7625C70.7844 57.2605 72.5052 52.1926 74.983 51.619C78.9273 50.7024 80.2519 56.0482 78.6375 57.8932V57.8873Z" fill="#212B3F"/>
<path d="M72.2096 46.2969C71.1334 46.3146 70.0867 46.5098 68.9513 46.906C68.425 47.0893 67.875 47.3495 67.6326 47.8521C66.9289 49.3128 68.0051 51.1755 68.7088 52.4351C69.5781 53.9844 70.6899 55.5338 72.0973 56.6514C72.9784 57.3433 74.7229 57.5917 75.7814 57.1895C77.1001 56.6928 77.9457 55.1376 77.993 53.7775C78.0285 52.7426 77.6146 51.8497 77.3662 50.8798C77.106 49.8686 76.8458 48.8752 76.3609 47.9467C76.1125 47.4737 75.8228 46.9828 75.3438 46.7345C75.0954 46.6103 74.8234 46.5571 74.5514 46.5098C73.7294 46.3619 72.9666 46.291 72.2156 46.3087L72.2096 46.2969Z" fill="#EDA679"/>
<path d="M74.5514 48.0945C74.0487 48.0945 73.617 47.716 73.5638 47.2015C73.5047 46.6338 72.3988 46.2376 71.3285 45.8533C70.4474 45.5339 69.5367 45.2087 68.8212 44.6706C68.3836 44.3394 68.2949 43.7185 68.6201 43.2809C68.9513 42.8433 69.5722 42.7546 70.0098 43.0798C70.4888 43.4346 71.2575 43.7126 72.0026 43.9787C73.4988 44.5168 75.3556 45.185 75.5389 46.9946C75.5921 47.5386 75.1959 48.0235 74.6519 48.0827C74.6164 48.0827 74.5868 48.0827 74.5514 48.0827V48.0945Z" fill="#EDA679"/>
<path d="M93.1138 106.153H30.9924V220H93.1138V106.153Z" fill="#4392CF"/>
<path d="M93.1138 106.153H30.9924V120.056H93.1138V106.153Z" fill="#265C9C"/>
<path d="M94.675 106.153H29.4254C28.3411 106.153 27.4622 107.032 27.4622 108.117V113.468C27.4622 114.553 28.3411 115.432 29.4254 115.432H94.675C95.7593 115.432 96.6383 114.553 96.6383 113.468V108.117C96.6383 107.032 95.7593 106.153 94.675 106.153Z" fill="#4392CF"/>
<path d="M88.2056 124.604H35.9006V147.536H88.2056V124.604Z" fill="#001E3C"/>
<path d="M44.6172 136.632C44.6172 131.244 47.4143 128.814 50.4538 128.814C52.3639 128.814 53.7476 129.606 54.6583 130.541L52.9079 132.539C52.4053 131.995 51.5005 131.516 50.6608 131.516C49.0701 131.516 47.7987 132.652 47.6863 136.017C48.4373 135.065 49.6851 134.497 50.5721 134.497C53.0498 134.497 54.8653 135.904 54.8653 138.95C54.8653 141.995 52.6832 143.787 50.0694 143.787C47.2724 143.787 44.6172 141.699 44.6172 136.632ZM51.8198 138.95C51.8198 137.43 51.0274 136.856 49.9334 136.856C49.1824 136.856 48.3427 137.264 47.7513 138.287C48.047 140.558 48.9991 141.286 49.9985 141.286C50.9979 141.286 51.8139 140.582 51.8139 138.944L51.8198 138.95Z" fill="#66B70A"/>
<path d="M56.521 136.241C56.521 131.333 58.5907 128.814 61.6776 128.814C64.7644 128.814 66.8341 131.333 66.8341 136.241C66.8341 141.15 64.7644 143.787 61.6776 143.787C58.5907 143.787 56.521 141.15 56.521 136.241ZM63.6763 136.241C63.6763 132.285 62.813 131.404 61.6776 131.404C60.5422 131.404 59.6788 132.291 59.6788 136.241C59.6788 140.192 60.5658 141.197 61.6776 141.197C62.7893 141.197 63.6763 140.174 63.6763 136.241Z" fill="#66B70A"/>
<path d="M68.5137 136.241C68.5137 131.333 70.5834 128.814 73.6702 128.814C76.7571 128.814 78.8268 131.333 78.8268 136.241C78.8268 141.15 76.7571 143.787 73.6702 143.787C70.5834 143.787 68.5137 141.15 68.5137 136.241ZM75.669 136.241C75.669 132.285 74.8056 131.404 73.6702 131.404C72.5349 131.404 71.6715 132.291 71.6715 136.241C71.6715 140.192 72.5585 141.197 73.6702 141.197C74.782 141.197 75.669 140.174 75.669 136.241Z" fill="#66B70A"/>
<path d="M62.0501 197.132C74.6501 197.132 84.8644 186.918 84.8644 174.318C84.8644 161.718 74.6501 151.504 62.0501 151.504C49.4501 151.504 39.2358 161.718 39.2358 174.318C39.2358 186.918 49.4501 197.132 62.0501 197.132Z" fill="#265C9C"/>
<path d="M54.4099 180.261H59.6611V166.294H55.1314V162.828C57.757 162.332 59.4305 161.646 61.1454 160.623H65.2553V180.261H69.785V184.791H54.4099V180.261Z" fill="white"/>
<path d="M72.4404 101.482H51.6663V106.153H72.4404V101.482Z" fill="white"/>
<path d="M53.4639 101.482H70.6367C70.6367 99.3646 68.9158 97.6438 66.7988 97.6438H57.3017C55.1847 97.6438 53.4639 99.3646 53.4639 101.482Z" fill="#66B70A"/>
<path d="M31.6314 32.2956C32.8231 24.4989 26.7411 17.1012 18.0469 15.7724C9.35272 14.4435 1.33863 19.6867 0.146966 27.4834C-1.0447 35.2801 5.0373 42.6778 13.7315 44.0067C22.4257 45.3355 30.4398 40.0923 31.6314 32.2956Z" fill="#6ED6E3"/>
<path d="M42.0922 37.805C37.521 38.627 32.737 38.8458 27.8879 38.3905L29.1889 33.6064C33.1687 35.5402 37.521 36.9771 42.0922 37.8109V37.805Z" fill="#6ED6E3"/>
<path d="M15.2567 40.8151H19.609V36.6874H15.2567V40.8151ZM19.5558 33.5001V34.8129H15.4163V30.9573C15.4163 29.9756 16.2087 29.1832 17.1904 29.1832C18.6392 29.1832 19.7805 27.8408 19.4375 26.3329C19.2483 25.4991 18.5682 24.825 17.7344 24.6298C16.2265 24.2809 14.8841 25.4222 14.8841 26.8769H10.1533C10.1533 22.9031 13.4649 19.6861 17.4742 19.8458C21.2352 19.9936 24.2807 23.2165 24.2275 26.9775C24.1861 29.9874 22.2464 32.5362 19.5558 33.5001Z" fill="white"/>
<path d="M201.018 46.8645C201.822 51.6307 202.52 56.4207 203.016 61.2934C203.265 63.7298 203.46 66.1898 203.56 68.6971C203.649 71.2222 203.679 73.7472 203.371 76.568C203.288 77.2776 203.176 78.0168 203.004 78.8033C202.821 79.6016 202.602 80.4532 202.129 81.4939C202.029 81.7364 201.851 82.0498 201.698 82.3218C201.627 82.4519 201.508 82.6293 201.408 82.7831C201.295 82.9427 201.195 83.0906 201.065 83.2562C200.521 83.9303 199.746 84.7109 198.516 85.2904C197.877 85.5683 197.197 85.7753 196.5 85.8404C196.328 85.8581 196.151 85.8758 195.979 85.8817C195.82 85.8817 195.66 85.8818 195.5 85.8699C195.193 85.8522 194.826 85.8226 194.578 85.7694C194.312 85.7162 194.04 85.6511 193.779 85.5743C193.519 85.4974 193.342 85.4205 193.117 85.3377C192.662 85.1603 192.366 84.9888 192.035 84.7996C190.811 84.0604 190.149 83.3803 189.522 82.7476C188.907 82.1089 188.428 81.5058 187.972 80.9144C187.079 79.7376 186.352 78.6022 185.666 77.4668C184.306 75.2079 183.147 72.9844 182.047 70.7491C180.953 68.5197 179.93 66.2844 178.942 64.0491C177.647 61.0983 178.984 57.6625 181.929 56.3675C184.874 55.0724 188.309 56.4089 189.599 59.3538C189.646 59.4543 189.693 59.5785 189.729 59.679C190.533 61.8552 191.367 64.0018 192.242 66.1011C193.117 68.1945 194.046 70.2583 195.027 72.1388C195.518 73.0731 196.032 73.972 196.529 74.7289C196.778 75.1014 197.02 75.4444 197.215 75.675C197.393 75.9116 197.594 76.0713 197.387 75.953C197.31 75.9116 197.268 75.8998 197.097 75.8229C197.014 75.7874 196.967 75.7815 196.849 75.746C196.73 75.7046 196.606 75.675 196.482 75.6632C195.926 75.5449 195.009 75.6041 194.294 75.9648C193.602 76.2841 193.277 76.6626 193.111 76.8814C193.076 76.9287 193.052 76.9524 193.028 76.9938C193.005 77.0292 192.981 77.0825 192.981 77.0825C192.969 77.0943 192.957 77.1593 192.969 77.1239C193.005 77.0884 193.135 76.7986 193.241 76.4438C193.348 76.0713 193.448 75.6455 193.531 75.1724C193.868 73.2742 194.004 71.027 194.051 68.7976C194.099 66.5505 194.051 64.2502 193.963 61.9439C193.774 57.3255 193.377 52.6538 192.881 47.9939V47.9821C192.638 45.7291 194.27 43.7067 196.523 43.4642C198.688 43.2336 200.645 44.7415 201.006 46.8586L201.018 46.8645Z" fill="#CC3C4C"/>
<path d="M185.5 56.1073C170.936 52.4705 156.891 53.937 143.225 59.0285C147.867 76.4142 146.377 89.7433 146.56 115.29V119.66L185.5 121.972C184.341 93.5516 189.167 73.9838 185.5 56.1073Z" fill="#E54750"/>
<path d="M185.843 95.3669H146.631C146.596 101.221 146.507 107.714 146.56 115.29V119.66L185.5 121.972C185.098 112.144 185.412 103.374 185.843 95.3669Z" fill="#001E3C"/>
<path d="M185.075 114.491C186.115 130.937 186.855 147.388 187.582 163.763C188.303 180.137 189.137 196.441 190.338 212.738L180.456 213.72C178.398 197.381 176.713 180.983 175.14 164.644C173.567 148.305 171.988 132.037 170.114 115.822L185.081 114.491H185.075Z" fill="#001E3C"/>
<path d="M146.554 114.249L161.444 117.034C164.667 117.637 167.766 115.496 168.339 112.268L168.434 112.599C169.303 115.674 172.461 117.501 175.566 116.721L185.323 114.249C185.234 100.358 186.382 88.661 186.766 78.1646C175.116 86.4198 161.622 86.4198 146.294 78.1646C146.95 88.2057 146.465 99.057 146.554 114.249Z" fill="#CC3C4C"/>
<path d="M161.574 117.844L149.937 214.081L140.049 213.146L146.613 116.437L161.574 117.844Z" fill="#001E3C"/>
<path d="M166.944 72.6651C166.944 72.6651 173.697 64.0018 172.609 54.2623C165.679 52.1867 163.662 51.6545 157.808 55.1257C163.662 68.3542 166.944 72.6592 166.944 72.6592V72.6651Z" fill="#001E3C"/>
<path d="M160.244 55.0665L166.429 58.9753L169.972 54.2267L169.392 40.7913L159.658 41.1697L160.244 55.0665Z" fill="#EDA679"/>
<path d="M169.924 53.2687L169.445 42.24L159.712 42.6185L160.161 53.3633C163.289 55.5395 167.92 55.5395 169.918 53.2746L169.924 53.2687Z" fill="#CA7052"/>
<path d="M134.23 220H150.12V212.561H140.108L134.23 220Z" fill="black"/>
<path d="M195.666 220H180.368V212.561H190.373L195.666 220Z" fill="black"/>
<path d="M201.006 46.7876C201.905 51.5598 202.614 56.3793 203.058 61.2757C203.277 63.7238 203.43 66.1898 203.478 68.6971C203.525 72.3516 204.14 78.135 199.433 79.1936C197.523 79.6252 195.364 78.7264 194.383 77.0292C192.999 74.6342 193.88 71.2103 193.992 68.6025C194.087 66.3731 194.081 64.1023 194.016 61.8197C193.88 57.2545 193.484 52.6538 192.91 48.0531C192.626 45.8059 194.217 43.7539 196.47 43.4701C198.629 43.1981 200.616 44.6705 201.012 46.7817L201.006 46.7876Z" fill="#E54750"/>
<path d="M157.908 100.086C156.779 100.281 155.667 100.512 154.52 100.683C153.367 100.837 152.231 101.026 151.031 101.109C148.677 101.334 146.217 101.405 143.544 101.038C142.894 100.979 142.184 100.801 141.492 100.648C140.812 100.524 140.061 100.216 139.352 99.9735C138.997 99.8671 138.618 99.6424 138.252 99.4709C137.885 99.2698 137.518 99.1161 137.152 98.8677C136.424 98.3651 135.697 97.8683 135.058 97.1646C134.378 96.5319 133.852 95.7277 133.343 94.9412C132.918 94.1251 132.498 93.2736 132.279 92.4398C131.977 91.5823 131.895 90.7958 131.753 89.9679C131.717 89.5776 131.699 89.1991 131.676 88.8089L131.646 88.2293L131.658 87.6853C131.735 84.7522 132.344 82.2508 133.042 79.9031C133.757 77.5614 134.609 75.3852 135.514 73.2741C137.323 69.0637 139.328 65.1075 141.25 61.2401C142.681 58.3602 146.176 57.1894 149.056 58.6263C151.935 60.0633 153.106 63.5523 151.669 66.4322C151.616 66.5445 151.557 66.651 151.492 66.7574L151.48 66.7751C149.292 70.5243 147.134 74.1789 145.283 77.8157C144.36 79.6311 143.515 81.4406 142.846 83.2088C142.178 84.9651 141.699 86.6977 141.563 88.0992L141.528 88.3653V88.596L141.516 89.0572C141.563 89.2997 141.534 89.6013 141.605 89.7668C141.622 89.9975 141.711 90.1098 141.735 90.2754C141.829 90.3818 141.835 90.5415 141.959 90.642C142.019 90.778 142.202 90.8845 142.332 91.0323C142.397 91.1092 142.545 91.1565 142.645 91.2334C142.764 91.2984 142.835 91.3931 143 91.4404C143.55 91.6946 144.242 91.943 145.052 92.1027C146.655 92.4457 148.559 92.558 150.522 92.493C151.492 92.493 152.503 92.3924 153.503 92.3274C154.508 92.2446 155.531 92.1027 156.548 91.9962L156.773 91.9726C159.026 91.736 161.042 93.3682 161.279 95.6212C161.504 97.7737 160.007 99.7134 157.914 100.086H157.908Z" fill="#E54750"/>
<path d="M154.135 96.248C154.206 97.6732 155.288 99.2166 156.855 99.9381C157.145 100.074 157.453 100.181 157.76 100.222C160.687 100.612 162.479 95.5739 160.888 93.587C158.357 90.4232 154.005 93.7998 154.129 96.248H154.135Z" fill="#001E3C"/>
<path d="M166.5 92.4043C167.334 93.0902 168.038 93.8885 168.683 94.8998C168.984 95.3669 169.256 95.9169 169.132 96.4609C168.754 98.1581 166.081 99.1397 164.65 99.7133C162.657 100.512 160.481 100.861 158.34 100.713C156.82 100.606 156.187 98.572 156.406 97.3006C156.678 95.7513 157.707 94.4681 158.86 93.4569C159.871 92.5639 160.989 91.6887 162.225 91.1269C162.716 90.9082 163.248 90.7012 163.774 90.8076C164.046 90.8608 164.295 90.9909 164.537 91.1269C165.27 91.5232 165.915 91.943 166.495 92.4161L166.5 92.4043Z" fill="#EDA679"/>
<path d="M198.575 49.4724C197.257 50.0224 195.4 49.7089 194.069 48.609C193.821 48.4021 193.596 48.1714 193.425 47.9112C191.81 45.4394 195.583 41.6488 198.061 42.2284C202.005 43.145 200.834 48.5322 198.575 49.4724Z" fill="#001E3C"/>
<path d="M197.919 36.2321C196.943 35.7708 195.92 35.487 194.725 35.3391C194.176 35.2682 193.56 35.2623 193.123 35.6052C191.846 36.6046 191.987 38.7571 192.07 40.1882C192.165 41.9623 192.478 43.8427 193.253 45.463C193.738 46.4743 195.193 47.4618 196.322 47.5742C197.724 47.7102 199.172 46.6871 199.811 45.4867C200.296 44.576 200.326 43.5885 200.527 42.6068C200.739 41.5838 200.946 40.5785 200.923 39.5318C200.911 38.9937 200.864 38.426 200.544 38.0002C200.379 37.7814 200.154 37.6099 199.929 37.4503C199.255 36.9594 198.599 36.5573 197.925 36.238L197.919 36.2321Z" fill="#EDA679"/>
<path d="M194.448 38.8811C193.691 38.8811 193.046 38.3075 192.969 37.5447C192.786 35.7233 192.679 31.8914 193.466 29.1061C193.685 28.3137 194.507 27.8524 195.299 28.0771C196.091 28.3019 196.553 29.1179 196.328 29.9103C195.748 31.9682 195.719 35.1556 195.926 37.249C196.009 38.065 195.411 38.7983 194.595 38.8811C194.542 38.8811 194.495 38.887 194.442 38.887L194.448 38.8811Z" fill="#EDA679"/>
<path d="M151.315 36.4329C151.581 38.4435 152.941 39.8982 154.36 39.6853C155.779 39.4725 156.714 37.6748 156.447 35.6701C156.181 33.6595 154.821 32.2048 153.402 32.4177C151.983 32.6305 151.048 34.4282 151.315 36.4329Z" fill="#EDA679"/>
<path d="M178.617 36.4329C178.351 38.4435 176.991 39.8982 175.572 39.6853C174.152 39.4725 173.218 37.6748 173.484 35.6701C173.75 33.6595 175.11 32.2048 176.53 32.4177C177.949 32.6305 178.883 34.4282 178.617 36.4329Z" fill="#EDA679"/>
<path d="M154.076 33.5769C154.076 39.9694 158.955 50.182 164.975 50.182C170.995 50.182 175.873 39.9753 175.873 33.5769C175.873 27.1785 170.995 21.4956 164.975 21.4956C158.955 21.4956 154.076 27.1785 154.076 33.5769Z" fill="#EDA679"/>
<path d="M175.584 36.4036C175.152 40.0699 172.828 43.4229 169.658 44.9427C169.67 44.8835 169.682 44.8185 169.694 44.7475C169.901 43.0681 168.588 41.6074 166.997 41.6134L163.005 41.6252C161.545 41.6252 160.35 42.8611 160.309 44.4104C160.309 44.6233 160.309 44.8244 160.339 45.0018C157.589 43.1923 155.365 39.6323 154.348 36.4154C154.348 40.271 155.306 43.0149 156.199 45.1023C157.104 47.2253 161.492 50.6078 164.975 50.6078C168.688 50.6078 171.947 47.172 172.987 46.0544C174.578 44.0379 175.649 39.863 175.589 36.4154L175.584 36.4036Z" fill="#8E4129"/>
<path d="M158.369 16.3035C162.515 18.0953 169.445 17.8292 171.468 19.0119L172.798 22.0041L173.756 20.8746C177.086 21.2767 176.855 26.9537 175.867 33.7542L173.756 27.2198C168.079 25.7355 162.195 25.5699 156.01 27.2198L154.076 33.7542C154.029 28.2428 151.989 21.0461 158.375 16.3035H158.369Z" fill="#8E4129"/>
<path d="M162.609 42.9143H167.334C167.653 42.9143 167.914 43.1745 167.914 43.4938C167.914 45.12 166.595 46.4328 164.975 46.4328C163.348 46.4328 162.036 45.1141 162.036 43.4938C162.036 43.1745 162.296 42.9143 162.615 42.9143H162.609Z" fill="#EDA679"/>
<path d="M196.121 106.153H134V220H196.121V106.153Z" fill="#4392CF"/>
<path d="M196.121 106.153H134V120.056H196.121V106.153Z" fill="#265C9C"/>
<path d="M197.682 106.153H132.433C131.348 106.153 130.469 107.032 130.469 108.117V113.468C130.469 114.553 131.348 115.432 132.433 115.432H197.682C198.767 115.432 199.646 114.553 199.646 113.468V108.117C199.646 107.032 198.767 106.153 197.682 106.153Z" fill="#4392CF"/>
<path d="M191.213 124.604H138.908V147.536H191.213V124.604Z" fill="#001E3C"/>
<path d="M147.648 139.831C147.648 138.08 148.736 137.016 150.102 136.289V136.2C148.991 135.36 148.169 134.313 148.169 132.794C148.169 130.34 150.102 128.82 152.781 128.82C155.46 128.82 157.169 130.387 157.169 132.77C157.169 134.154 156.282 135.271 155.283 135.928V136.017C156.666 136.768 157.784 137.879 157.784 139.789C157.784 142.06 155.738 143.787 152.675 143.787C149.789 143.787 147.654 142.173 147.654 139.831H147.648ZM154.668 139.671C154.668 138.4 153.443 137.921 151.622 137.152C150.983 137.743 150.51 138.559 150.51 139.446C150.51 140.718 151.533 141.469 152.74 141.469C153.851 141.469 154.673 140.877 154.673 139.671H154.668ZM154.461 132.989C154.461 131.877 153.804 131.126 152.71 131.126C151.823 131.126 151.096 131.67 151.096 132.782C151.096 133.965 152.095 134.532 153.574 135.1C154.141 134.444 154.461 133.734 154.461 132.989Z" fill="#66B70A"/>
<path d="M159.528 136.241C159.528 131.333 161.598 128.814 164.685 128.814C167.772 128.814 169.841 131.333 169.841 136.241C169.841 141.15 167.772 143.787 164.685 143.787C161.598 143.787 159.528 141.15 159.528 136.241ZM166.684 136.241C166.684 132.285 165.82 131.404 164.685 131.404C163.55 131.404 162.686 132.291 162.686 136.241C162.686 140.192 163.573 141.197 164.685 141.197C165.797 141.197 166.684 140.174 166.684 136.241Z" fill="#66B70A"/>
<path d="M171.521 136.241C171.521 131.333 173.591 128.814 176.678 128.814C179.764 128.814 181.834 131.333 181.834 136.241C181.834 141.15 179.764 143.787 176.678 143.787C173.591 143.787 171.521 141.15 171.521 136.241ZM178.676 136.241C178.676 132.285 177.813 131.404 176.678 131.404C175.542 131.404 174.679 132.291 174.679 136.241C174.679 140.192 175.566 141.197 176.678 141.197C177.789 141.197 178.676 140.174 178.676 136.241Z" fill="#66B70A"/>
<path d="M165.057 197.132C177.657 197.132 187.872 186.918 187.872 174.318C187.872 161.718 177.657 151.504 165.057 151.504C152.457 151.504 142.243 161.718 142.243 174.318C142.243 186.918 152.457 197.132 165.057 197.132Z" fill="#265C9C"/>
<path d="M156.749 181.592C162.917 175.767 167.251 171.622 167.251 168.192C167.251 165.832 165.921 164.537 163.827 164.537C162.077 164.537 160.747 165.72 159.528 167.009L156.483 164.005C158.884 161.456 161.125 160.161 164.59 160.161C169.351 160.161 172.585 163.207 172.585 167.849C172.585 171.923 168.777 176.258 164.856 180.368C166.075 180.214 167.748 180.066 168.889 180.066H173.762V184.785H156.749V181.586V181.592Z" fill="white"/>
<path d="M175.448 101.482H154.674V106.153H175.448V101.482Z" fill="white"/>
<path d="M156.471 101.482H173.644C173.644 99.3646 171.923 97.6438 169.806 97.6438H160.309C158.192 97.6438 156.471 99.3646 156.471 101.482Z" fill="#66B70A"/>
<path d="M134.477 31.1623C142.093 29.3648 146.64 21.0122 144.632 12.5062C142.625 4.00028 134.823 -1.43797 127.207 0.359555C119.591 2.15708 115.045 10.5097 117.053 19.0156C119.06 27.5216 126.862 32.9598 134.477 31.1623Z" fill="#6ED6E3"/>
<path d="M147.642 33.7542C146.495 34.2332 145.306 34.6649 144.011 34.9014C142.722 35.132 141.279 35.1616 139.831 34.6649C138.376 34.1859 137.051 33.151 136.111 31.9742C135.147 30.7974 134.449 29.526 133.852 28.2605L139.151 26.7881C139.222 27.8762 139.363 28.9229 139.653 29.8513C139.937 30.7915 140.381 31.5839 141.108 32.2226C141.829 32.8613 142.87 33.3048 144.023 33.5236C145.176 33.7483 146.412 33.7897 147.654 33.7542H147.642Z" fill="#6ED6E3"/>
<path d="M128.045 5.26904H134.183L133.527 20.6796H128.701L128.045 5.26904ZM128.701 27.5275H133.527V22.9563H128.701V27.5275Z" fill="white"/>
</g>
<defs>
<clipPath id="clip0_377_5667">
<rect width="318.46" height="220" fill="white"/>
</clipPath>
</defs>
</svg>
