<svg width="194" height="220" viewBox="0 0 194 220" fill="none" xmlns="http://www.w3.org/2000/svg">
<path d="M80.0837 159.519C85.6814 149.337 89.2685 133.669 89.2685 116.096C89.2685 114.472 89.237 112.866 89.1785 111.278H105.38C105.322 112.866 105.29 114.472 105.29 116.096C105.29 133.669 108.877 149.337 114.475 159.519H80.0837Z" fill="#F8B805"/>
<path opacity="0.5" d="M105.29 116.096C105.29 114.472 105.322 112.866 105.38 111.278H89.1785C89.237 112.866 89.2684 114.472 89.2684 116.096C89.2684 119.228 89.1515 122.3 88.9333 125.292C88.9333 125.292 96.7305 120.522 105.625 125.292C105.407 122.3 105.29 119.228 105.29 116.096Z" fill="#F8B805"/>
<path opacity="0.5" d="M93.2177 111.278H90.89C90.935 112.866 90.962 114.472 90.962 116.096C90.962 133.669 88.1328 149.337 83.7203 159.519H88.6635C91.468 149.337 93.2672 133.669 93.2672 116.096C93.2672 114.472 93.2492 112.866 93.2199 111.278H93.2177Z" fill="#F8B805"/>
<path opacity="0.5" d="M114.475 159.519H105.895C103.091 149.337 101.294 133.669 101.294 116.096C101.294 114.472 101.309 112.866 101.339 111.278H105.38C105.322 112.866 105.29 114.472 105.29 116.096C105.29 133.669 108.877 149.337 114.475 159.519Z" fill="#F8B805"/>
<path d="M75.0168 101.606H74.9966C62.3485 101.556 52.6217 100.591 44.386 98.5672C34.5153 96.1406 26.6687 92.1329 20.3964 86.3126C6.94982 73.8377 0.688721 52.8953 0.688721 20.4069C0.688721 18.9945 1.2667 17.6451 2.28548 16.6691C3.30651 15.693 4.68062 15.178 6.09072 15.241C6.48879 15.259 46.1559 16.9974 74.7785 15.6863C76.1886 15.6233 77.5672 16.1361 78.5882 17.1121C79.6092 18.0882 80.1872 19.4398 80.1872 20.8522V96.433C80.1872 97.8093 79.6385 99.1272 78.6647 100.097C77.6954 101.061 76.382 101.606 75.0146 101.606H75.0168ZM11.0947 25.7864C11.7064 52.0992 16.942 68.9956 27.4311 78.7291C36.1031 86.7737 48.9446 90.5834 69.842 91.1794V26.2272C48.0698 26.9289 22.173 26.1799 11.0924 25.7841L11.0947 25.7864Z" fill="#F8B805"/>
<path opacity="0.5" d="M15.7972 21.0165C13.1592 20.9333 10.9732 23.1013 11.0924 25.7393C11.0924 25.755 11.0924 25.7708 11.0924 25.7865C22.2653 26.1846 48.18 26.9267 69.842 26.2296V21.3021C50.7348 21.9183 28.4521 21.4168 15.795 21.0187L15.7972 21.0165Z" fill="#F8B805"/>
<g opacity="0.5">
<path d="M69.8442 91.1791V89.9175C69.9499 90.5562 69.9567 90.9902 69.8442 91.1791Z" fill="#F8B805"/>
<path d="M11.0924 25.7368L11.2093 25.7885C11.1711 25.7885 11.1329 25.7863 11.0946 25.784C11.7063 52.0969 16.9419 68.9933 27.4311 78.7268C36.1031 86.7713 48.9446 90.5811 69.842 91.1771C68.3801 93.6554 60.041 92.396 60.041 92.396C3.54487 91.6921 11.0924 25.7368 11.0924 25.7368Z" fill="#F8B805"/>
</g>
<g opacity="0.5">
<path d="M80.05 97.2403V21.6595C80.05 20.2472 79.472 18.8956 78.451 17.9195C77.4299 16.9435 76.0536 16.4285 74.6412 16.4937C46.0187 17.8048 6.34932 16.0664 5.95351 16.0484C4.54341 15.9877 3.16705 16.5027 2.14827 17.4765C1.44209 18.1512 0.949571 19.0058 0.711182 19.9368C0.82363 18.6977 1.37912 17.5372 2.28545 16.6691C3.30648 15.693 4.6806 15.178 6.09069 15.241C6.48876 15.259 46.1559 16.9974 74.7784 15.6863C76.1885 15.6233 77.5671 16.1361 78.5882 17.1121C79.6092 18.0882 80.1872 19.4398 80.1872 20.8522V96.433C80.1872 96.867 80.1332 97.2966 80.0275 97.7104C80.041 97.5552 80.05 97.3978 80.05 97.2403Z" fill="#F8B805"/>
</g>
<g opacity="0.5">
<path d="M65.7623 99.6132C70.4941 99.6694 74.6637 99.9415 78.3363 100.398C77.4097 101.174 76.2357 101.606 75.0168 101.606H74.9966C62.3484 101.556 52.6217 100.591 44.386 98.5674C34.5153 96.1408 26.6687 92.1332 20.3963 86.3128C13.3391 79.7639 8.26318 70.8827 5.02917 59.2241C10.737 76.5186 25.8343 99.1387 65.7623 99.6132Z" fill="#F8B805"/>
</g>
<path d="M115.889 100.099C114.916 99.1276 114.367 97.8098 114.367 96.4356V20.8503C114.367 19.438 114.945 18.0864 115.966 17.1103C116.987 16.1343 118.363 15.6193 119.776 15.6845C148.398 16.9956 188.068 15.2572 188.463 15.2392C189.874 15.1785 191.25 15.6935 192.269 16.6673C193.29 17.6433 193.865 18.9927 193.865 20.4051C193.865 52.8935 187.604 73.8358 174.158 86.3108C167.885 92.1311 160.037 96.1388 150.168 98.5654C141.932 100.589 132.206 101.554 119.558 101.604H119.537C118.17 101.604 116.857 101.062 115.887 100.095L115.889 100.099ZM124.712 26.2299V91.1798C145.609 90.5838 158.453 86.7764 167.123 78.7296C177.612 68.9961 182.848 52.0996 183.459 25.7868C172.381 26.1826 146.484 26.9315 124.71 26.2299H124.712Z" fill="#F8B805"/>
<path opacity="0.5" d="M124.712 21.3001V26.2276C146.374 26.927 172.289 26.1826 183.462 25.7846C183.462 25.7688 183.462 25.7531 183.464 25.7373C183.583 23.0993 181.399 20.9313 178.759 21.0145C166.102 21.4148 143.819 21.9141 124.712 21.2979V21.3001Z" fill="#F8B805"/>
<g opacity="0.5">
<path d="M124.712 91.1796V89.918C124.606 90.5567 124.6 90.9907 124.712 91.1796Z" fill="#F8B805"/>
<path d="M183.464 25.7373L183.347 25.789C183.385 25.789 183.424 25.7868 183.462 25.7845C182.85 52.0974 177.615 68.9938 167.125 78.7273C158.453 86.7718 145.612 90.5816 124.714 91.1775C126.176 93.6559 134.515 92.3965 134.515 92.3965C191.014 91.6926 183.464 25.7373 183.464 25.7373Z" fill="#F8B805"/>
</g>
<g opacity="0.5">
<path d="M114.506 97.2408V21.66C114.506 20.2477 115.084 18.8961 116.105 17.92C117.126 16.944 118.503 16.4289 119.915 16.4942C148.538 17.8053 188.207 16.0669 188.603 16.0489C190.013 15.9881 191.389 16.5032 192.408 17.477C193.114 18.1516 193.607 19.0063 193.845 19.9373C193.733 18.6981 193.177 17.5377 192.271 16.6696C191.25 15.6935 189.876 15.1785 188.466 15.2415C188.068 15.2595 148.4 16.9979 119.778 15.6868C118.368 15.6238 116.989 16.1366 115.968 17.1126C114.947 18.0887 114.369 19.4403 114.369 20.8526V96.4334C114.369 96.8675 114.423 97.297 114.529 97.7109C114.515 97.5557 114.506 97.3982 114.506 97.2408Z" fill="#F8B805"/>
</g>
<g opacity="0.5">
<path d="M128.794 99.6132C124.062 99.6694 119.893 99.9415 116.22 100.398C117.147 101.174 118.321 101.606 119.54 101.606H119.56C132.208 101.556 141.935 100.591 150.17 98.5674C160.041 96.1408 167.888 92.1332 174.16 86.3128C181.217 79.7639 186.293 70.8827 189.527 59.2241C183.819 76.5186 168.722 99.1387 128.794 99.6132Z" fill="#F8B805"/>
</g>
<path d="M38.6962 0C37.2838 8.09401 36.5282 16.6176 36.5282 25.42C36.5282 78.2413 63.7136 121.062 97.2501 121.062C130.787 121.062 157.972 78.2413 157.972 25.42C157.972 16.6176 157.216 8.09626 155.804 0L38.6962 0Z" fill="#F8B805"/>
<path d="M38.6962 0C37.2838 8.09401 36.5282 16.6176 36.5282 25.42C36.5282 78.2413 63.7136 121.062 97.2501 121.062C130.787 121.062 157.972 78.2413 157.972 25.42C157.972 16.6176 157.216 8.09626 155.804 0L38.6962 0Z" fill="#F8B805"/>
<path opacity="0.5" d="M155.802 0H133.915C134.799 8.09401 135.273 16.6176 135.273 25.42C135.273 78.2413 118.249 121.062 97.25 121.062C130.786 121.062 157.972 78.2413 157.972 25.42C157.972 16.6176 157.216 8.09626 155.804 0L155.802 0Z" fill="#F8B805"/>
<path opacity="0.5" d="M98.1024 31.3438L106.059 47.4665L123.853 50.0528L110.978 62.6043L114.018 80.3261L98.1024 71.9577L82.1865 80.3261L85.2271 62.6043L72.3518 50.0528L90.1456 47.4665L98.1024 31.3438Z" fill="#F7A108"/>
<path opacity="0.5" d="M59.2246 25.42C59.2246 16.6176 59.6969 8.09626 60.583 0H45.6094C44.3635 8.09401 43.6956 16.6176 43.6956 25.42C43.6956 78.2413 67.6717 121.062 97.2478 121.062C76.247 121.062 59.2246 78.2413 59.2246 25.42Z" fill="#F8B805"/>
<path d="M65.8208 16.539C58.7703 16.539 53.0557 10.8244 53.0557 3.77393C53.0557 10.8244 47.3411 16.539 40.2906 16.539C47.3411 16.539 53.0557 22.2536 53.0557 29.3041C53.0557 22.2536 58.7703 16.539 65.8208 16.539Z" fill="white"/>
<path d="M70.8811 29.3038C68.0856 29.3038 65.8209 27.0391 65.8209 24.2437C65.8209 27.0391 63.5562 29.3038 60.7607 29.3038C63.5562 29.3038 65.8209 31.5685 65.8209 34.364C65.8209 31.5685 68.0856 29.3038 70.8811 29.3038Z" fill="white"/>
<path opacity="0.5" d="M96.4067 1.88688C128.279 1.88688 154.117 1.04352 154.117 0H38.6962C38.6962 1.04127 64.5345 1.88688 96.4067 1.88688Z" fill="#F8B805"/>
<path d="M121.806 159.519H72.7499C66.2729 159.519 61.0216 164.77 61.0216 171.247H133.535C133.535 164.77 128.284 159.519 121.806 159.519Z" fill="#F8B805"/>
<path opacity="0.5" d="M72.7499 160.398H121.806C127.987 160.398 133.049 165.181 133.499 171.247H133.535C133.535 164.77 128.284 159.519 121.806 159.519H72.7499C66.2729 159.519 61.0216 164.77 61.0216 171.247H61.0576C61.5074 165.181 66.5698 160.398 72.7499 160.398Z" fill="#F8B805"/>
<path opacity="0.5" d="M133.535 171.247H120.417C120.417 164.77 117.066 159.519 112.932 159.519H121.806C128.283 159.519 133.535 164.77 133.535 171.247Z" fill="#F8B805"/>
<path opacity="0.5" d="M87.2332 159.519H77.5491C71.0721 159.519 65.8208 164.77 65.8208 171.247H75.5048C75.5048 164.77 80.7561 159.519 87.2332 159.519Z" fill="#F8B805"/>
<path d="M152.48 171.247H42.0786C41.4786 171.247 40.9923 171.733 40.9923 172.333V215.219C40.9923 215.819 41.4786 216.305 42.0786 216.305H152.48C153.08 216.305 153.566 215.819 153.566 215.219V172.333C153.566 171.733 153.08 171.247 152.48 171.247Z" fill="#44352A"/>
<path opacity="0.3" d="M152.48 208.559H42.0786C41.4781 208.559 40.9923 208.074 40.9923 207.473V215.216C40.9923 215.817 41.4781 216.303 42.0786 216.303H152.48C153.08 216.303 153.566 215.817 153.566 215.216V207.473C153.566 208.074 153.08 208.559 152.48 208.559Z" fill="#44352A"/>
<g opacity="0.3">
<path d="M42.0786 216.305H48.8705C46.3224 216.305 43.8081 216.201 41.3297 216.003C41.5254 216.19 41.7862 216.305 42.0786 216.305Z" fill="#44352A"/>
<path d="M152.48 171.247H118.728C113.515 196.764 84.2241 216.305 48.8705 216.305H152.48C153.081 216.305 153.566 215.819 153.566 215.219V172.333C153.566 171.733 153.081 171.247 152.48 171.247Z" fill="#44352A"/>
</g>
<path opacity="0.3" d="M152.48 171.247H42.0786C41.4781 171.247 40.9923 171.733 40.9923 172.333V173.741C40.9923 173.141 41.4781 172.655 42.0786 172.655H152.48C153.08 172.655 153.566 173.141 153.566 173.741V172.333C153.566 171.733 153.08 171.247 152.48 171.247Z" fill="#44352A"/>
<path d="M33.6989 210.496H160.857C161.613 210.496 162.225 211.108 162.225 211.863V218.633C162.225 219.388 161.613 220 160.857 220H33.6989C32.9433 220 32.3315 219.388 32.3315 218.633V211.863C32.3315 211.108 32.9433 210.496 33.6989 210.496Z" fill="#44352A"/>
<path opacity="0.3" d="M160.857 218.772H33.6989C32.9433 218.772 32.3315 218.16 32.3315 217.405V218.633C32.3315 219.388 32.9433 220 33.6989 220H160.857C161.613 220 162.225 219.388 162.225 218.633V217.405C162.225 218.16 161.613 218.772 160.857 218.772Z" fill="#44352A"/>
<path opacity="0.3" d="M160.857 210.496H33.6989C32.9433 210.496 32.3315 211.108 32.3315 211.863V213.13C32.3315 212.374 32.9433 211.762 33.6989 211.762H160.857C161.613 211.762 162.225 212.374 162.225 213.13V211.863C162.225 211.108 161.613 210.496 160.857 210.496Z" fill="#44352A"/>
<path opacity="0.3" d="M160.857 210.496H124.6C125.355 210.496 125.967 211.108 125.967 211.863V218.633C125.967 219.388 125.355 220 124.6 220H160.857C161.613 220 162.225 219.388 162.225 218.633V211.863C162.225 211.108 161.613 210.496 160.857 210.496Z" fill="#44352A"/>
<path opacity="0.3" d="M62.6633 218.633V211.863C62.6633 211.108 63.275 210.496 64.0307 210.496H44.3073C43.5517 210.496 42.9399 211.108 42.9399 211.863V218.633C42.9399 219.388 43.5517 220 44.3073 220H64.0307C63.275 220 62.6633 219.388 62.6633 218.633Z" fill="#44352A"/>
<path d="M143.385 177.893H50.9822V205.116H143.385V177.893Z" fill="#EFCA6F"/>
<g style="mix-blend-mode:multiply" opacity="0.5">
<path d="M143.385 204.536H50.9822V205.116H143.385V204.536Z" fill="#EFCA6F"/>
</g>
<g style="mix-blend-mode:screen" opacity="0.5">
<path d="M143.385 177.893H50.9822V178.473H143.385V177.893Z" fill="#EFCA6F"/>
</g>
<path opacity="0.5" d="M61.0216 171.247H133.535C133.535 170.525 133.467 169.821 133.341 169.135H61.215C61.0913 169.821 61.0216 170.525 61.0216 171.247Z" fill="#F8B805"/>
<path opacity="0.3" d="M116.78 177.893C112.583 188.825 103.857 198.306 92.2303 205.116H143.385V177.893H116.78Z" fill="#EFCA6F"/>
<path opacity="0.5" d="M54.6188 182.856C55.4932 182.856 56.2021 182.147 56.2021 181.273C56.2021 180.398 55.4932 179.689 54.6188 179.689C53.7444 179.689 53.0355 180.398 53.0355 181.273C53.0355 182.147 53.7444 182.856 54.6188 182.856Z" fill="#EFCA6F"/>
<path opacity="0.5" d="M141.449 181.28C141.449 180.405 140.74 179.696 139.866 179.696C138.991 179.696 138.282 180.405 138.282 181.28C138.282 182.154 138.991 182.863 139.866 182.863C140.74 182.863 141.449 182.154 141.449 181.28Z" fill="#EFCA6F"/>
<path opacity="0.5" d="M139.866 203.297C140.74 203.297 141.449 202.588 141.449 201.714C141.449 200.839 140.74 200.13 139.866 200.13C138.991 200.13 138.282 200.839 138.282 201.714C138.282 202.588 138.991 203.297 139.866 203.297Z" fill="#EFCA6F"/>
<path d="M54.5018 182.688C55.3763 182.688 56.0851 181.979 56.0851 181.104C56.0851 180.23 55.3763 179.521 54.5018 179.521C53.6274 179.521 52.9186 180.23 52.9186 181.104C52.9186 181.979 53.6274 182.688 54.5018 182.688Z" fill="#44352A"/>
<path opacity="0.5" d="M54.6188 203.279C55.4932 203.279 56.2021 202.57 56.2021 201.696C56.2021 200.821 55.4932 200.112 54.6188 200.112C53.7444 200.112 53.0355 200.821 53.0355 201.696C53.0355 202.57 53.7444 203.279 54.6188 203.279Z" fill="#EFCA6F"/>
<path d="M54.5018 203.104C55.3763 203.104 56.0851 202.395 56.0851 201.52C56.0851 200.646 55.3763 199.937 54.5018 199.937C53.6274 199.937 52.9186 200.646 52.9186 201.52C52.9186 202.395 53.6274 203.104 54.5018 203.104Z" fill="#44352A"/>
<path d="M139.866 182.688C140.74 182.688 141.449 181.979 141.449 181.104C141.449 180.23 140.74 179.521 139.866 179.521C138.991 179.521 138.282 180.23 138.282 181.104C138.282 181.979 138.991 182.688 139.866 182.688Z" fill="#44352A"/>
<path d="M139.866 203.104C140.74 203.104 141.449 202.395 141.449 201.52C141.449 200.646 140.74 199.937 139.866 199.937C138.991 199.937 138.282 200.646 138.282 201.52C138.282 202.395 138.991 203.104 139.866 203.104Z" fill="#44352A"/>
</svg>
