<svg width="25" height="24" viewBox="0 0 25 24" fill="none" xmlns="http://www.w3.org/2000/svg">
<path fill-rule="evenodd" clip-rule="evenodd" d="M22.25 12C22.25 12.2724 22.1023 12.5233 21.8642 12.6556L19.5819 13.9236C15.0705 16.4299 10.3147 18.4687 5.38879 20.008L4.72371 20.2159C4.49598 20.287 4.24798 20.2456 4.05575 20.1043C3.86352 19.9629 3.75 19.7386 3.75 19.5L3.75 13.75C3.75 13.359 4.05041 13.0336 4.44019 13.0024L4.66752 12.9842C6.81898 12.8121 8.95387 12.4829 11.0552 11.9997C8.92436 11.5098 6.75902 11.1782 4.5769 11.0083L4.44175 10.9977C4.05131 10.9673 3.75 10.6416 3.75 10.25L3.75 4.50001C3.75 4.26142 3.86352 4.03706 4.05575 3.89574C4.24798 3.75441 4.49598 3.71298 4.72371 3.78415L5.38878 3.99198C10.3147 5.53134 15.0705 7.57008 19.5819 10.0764L21.8642 11.3444C22.1023 11.4767 22.25 11.7276 22.25 12ZM19.9557 12L18.8534 11.3877C14.5256 8.98333 9.96847 7.01801 5.25 5.52089L5.25 9.55957C8.18008 9.82384 11.0783 10.3702 13.9043 11.1912L14.2092 11.2798C14.5299 11.3729 14.7503 11.6668 14.75 12.0007C14.7497 12.3346 14.5287 12.6281 14.2078 12.7206L13.8173 12.8333C11.0188 13.6404 8.15003 14.1784 5.25 14.44L5.25 18.4791C9.96846 16.982 14.5256 15.0167 18.8534 12.6124L19.9557 12Z" fill="white"/>
</svg>
