<svg width="36" height="36" viewBox="0 0 36 36" fill="none" xmlns="http://www.w3.org/2000/svg">
<path d="M20.6254 9.85796C20.4148 10.1976 20.048 10.3945 19.6472 10.3945H16.7061C16.251 10.3945 15.8299 10.1229 15.6397 9.7017L15.0623 8.41116L13.011 3.83306C12.848 3.47304 12.8819 3.05191 13.0925 2.71908C13.3099 2.38626 13.6767 2.1825 14.0774 2.1825H17.0186C17.2903 2.1825 17.5484 2.27756 17.7522 2.44737C17.8948 2.55607 18.0103 2.70549 18.085 2.8753L18.8593 4.60736L20.7137 8.74399C20.8767 9.11076 20.8427 9.52514 20.6254 9.85796Z" fill="#FC6559"/>
<path d="M20.6253 9.85798C20.4147 10.1976 20.0479 10.3946 19.6472 10.3946H16.706C16.2509 10.3946 15.8298 10.1229 15.6396 9.70172L15.0623 8.41118L17.6706 2.59684C17.6909 2.54249 17.7181 2.49494 17.7521 2.44739C17.8947 2.55609 18.0102 2.7055 18.0849 2.87532L18.8593 4.60738L20.7136 8.744C20.8766 9.11078 20.8426 9.52515 20.6253 9.85798Z" fill="#F05543"/>
<path d="M23.7082 14.3683H12.2924V10.2584C12.2924 9.18908 13.162 8.31946 14.2306 8.31946H21.7693C22.8386 8.31946 23.7082 9.18908 23.7082 10.2584V14.3683ZM13.3112 13.3495H22.6893V10.2584C22.6893 9.75091 22.2767 9.33833 21.7693 9.33833H14.2306C13.7238 9.33833 13.3112 9.75091 13.3112 10.2584V13.3495Z" fill="#E4E3FF"/>
<path d="M29.4297 22.3914C29.4297 28.7008 24.313 33.8175 18.0036 33.8175C11.6871 33.8175 6.57043 28.7008 6.57043 22.3914C6.57043 16.082 11.6871 10.9653 18.0036 10.9653C24.313 10.9653 29.4297 16.082 29.4297 22.3914Z" fill="#F9B938"/>
<g opacity="0.3">
<path d="M8.48621 25.1921C8.25637 25.1921 8.04775 25.0356 7.99137 24.8021C7.80199 24.018 7.70581 23.2068 7.70581 22.3915C7.70581 17.5181 11.1684 13.2775 15.9387 12.307C16.213 12.2546 16.4833 12.4291 16.5393 12.705C16.5954 12.9809 16.4173 13.2496 16.1417 13.306C11.844 14.1796 8.72468 18.001 8.72468 22.3915C8.72468 23.1265 8.81124 23.8575 8.98172 24.5633C9.05842 24.8809 8.81919 25.1921 8.48621 25.1921Z" fill="white"/>
</g>
<g opacity="0.3">
<path d="M21.4379 13.7762C20.8797 13.5533 20.2963 13.3848 19.7043 13.2747C19.4277 13.2236 19.245 12.9576 19.2964 12.681C19.3475 12.4044 19.6128 12.218 19.8901 12.2731C20.5477 12.3951 21.1958 12.5822 21.816 12.8303C22.0774 12.9344 22.2044 13.2309 22.0999 13.4923C21.9935 13.7584 21.6917 13.8793 21.4379 13.7762Z" fill="white"/>
</g>
<path d="M29.4284 22.3901C29.4284 28.7003 24.3137 33.815 18.0035 33.815C14.6209 33.815 11.5778 32.3478 9.48572 30.0112C11.5031 31.7976 14.1589 32.8844 17.0661 32.8844C23.3763 32.8844 28.4978 27.7629 28.4978 21.4595C28.4978 18.5455 27.4042 15.8829 25.6042 13.8588C27.9544 15.9508 29.4284 19.0006 29.4284 22.3901Z" fill="#E5A320"/>
<path d="M26.1558 22.3914C26.1558 26.8936 22.5047 30.5447 18.0025 30.5447C13.4953 30.5447 9.84424 26.8936 9.84424 22.3914C9.84424 17.8893 13.4953 14.2382 18.0025 14.2382C22.5047 14.2382 26.1558 17.8893 26.1558 22.3914Z" fill="#F7F363"/>
<path d="M24.2729 17.1802C22.86 16.0188 21.0533 15.3191 19.0834 15.3191C14.58 15.3191 10.9257 18.9735 10.9257 23.4701C10.9257 25.4534 11.6389 27.2739 12.814 28.6867C11.0004 27.1855 9.8457 24.9237 9.8457 22.3901C9.8457 17.8867 13.4932 14.2391 18.0034 14.2391C20.5234 14.2391 22.7785 15.3871 24.2729 17.1802Z" fill="#EDD318"/>
<path d="M18.9928 17.9409L19.9553 19.8912L22.1075 20.2039C23.0155 20.3359 23.378 21.4517 22.721 22.0921L21.1636 23.6102L21.5313 25.7537C21.6864 26.658 20.7372 27.3477 19.9251 26.9207L18.0001 25.9087L16.0751 26.9207C15.2629 27.3477 14.3137 26.658 14.4688 25.7537L14.8365 23.6102L13.2791 22.0921C12.6221 21.4517 12.9846 20.3359 13.8926 20.2039L16.0449 19.8912L17.0074 17.9409C17.4134 17.1182 18.5867 17.1182 18.9928 17.9409Z" fill="#F9B938"/>
<g opacity="0.4">
<path d="M18.2434 19.1884C18.2549 19.3426 18.135 19.4796 17.9808 19.4911C17.9352 19.4968 17.878 19.5082 17.8267 19.5538C17.7981 19.5767 17.781 19.6052 17.7638 19.6338L17.1872 20.8042C17.0673 21.0497 16.8332 21.221 16.5592 21.2609L15.2688 21.4493C15.1661 21.4608 15.0861 21.5293 15.0576 21.6264C15.0233 21.7234 15.0519 21.8205 15.1204 21.8947L15.1261 21.9004L16.0453 22.7968C16.1595 22.9053 16.1595 23.088 16.051 23.2022C15.9436 23.3096 15.7708 23.3204 15.6457 23.2079L14.7664 22.34C14.755 22.3343 14.7379 22.3229 14.7264 22.3057C14.4924 22.0831 14.4124 21.7519 14.5152 21.4493C14.6123 21.1468 14.8692 20.9241 15.1889 20.8784L16.4735 20.6957C16.5592 20.6843 16.6334 20.6272 16.6734 20.5473L17.25 19.3826C17.29 19.2969 17.3471 19.2284 17.4099 19.1656C17.4213 19.1485 17.4327 19.1371 17.4498 19.1199C17.5869 19.0058 17.7524 18.9373 17.9408 18.9258C18.0893 18.9087 18.232 19.0286 18.2434 19.1884Z" fill="white"/>
</g>
<path d="M22.7195 22.0945L21.1609 23.6074L21.4806 25.4516L21.532 25.7542C21.6854 26.6573 20.7374 27.3448 19.9267 26.9184L19.1569 26.5136L17.9979 25.9083L16.0738 26.9189C15.2631 27.3471 14.3153 26.6563 14.4695 25.7542L14.5209 25.4401C14.7378 26.0282 15.4458 26.3594 16.0738 26.0339L17.6945 25.1779C17.8805 25.0797 18.106 25.0948 18.2772 25.217L19.2079 25.8811C19.7116 26.2406 20.4579 25.9268 20.4812 25.3084C20.4826 25.2709 20.481 25.2366 20.4758 25.2061L20.1594 23.3524C20.1287 23.1725 20.1883 22.9889 20.3187 22.8613L21.6633 21.5464C22.0687 21.1524 22.0858 20.5758 21.8289 20.1647L22.1087 20.2047C23.0164 20.336 23.3761 21.4493 22.7195 22.0945Z" fill="#E5A320"/>
<path d="M23.3673 3.83562L20.7386 9.70431C20.5484 10.1254 20.1273 10.3971 19.6654 10.3971H16.731C16.3303 10.3971 15.9635 10.2001 15.7461 9.86052C15.5288 9.5277 15.4948 9.11333 15.6578 8.74655L18.2933 2.87786C18.4767 2.45673 18.8978 2.18506 19.3597 2.18506H22.3009C22.6948 2.18506 23.0616 2.38882 23.279 2.72165C23.4963 3.05447 23.5303 3.4756 23.3673 3.83562Z" fill="#FC6559"/>
</svg>
