<svg width="36" height="36" viewBox="0 0 36 36" fill="none" xmlns="http://www.w3.org/2000/svg">
<path d="M28.3518 6.23562V32.8212C28.3518 34.4853 27.0069 35.8302 25.3427 35.8302H4.55792C2.89372 35.8302 1.54883 34.4853 1.54883 32.8212V6.23562C1.54883 4.57133 2.89372 3.22644 4.55792 3.22644H25.3427C27.0069 3.22644 28.3518 4.57133 28.3518 6.23562Z" fill="#E4E3FF"/>
<path d="M3.51208 10.3921V9.87601C3.51208 9.59476 3.74027 9.36658 4.02152 9.36658C4.30277 9.36658 4.53095 9.59476 4.53095 9.87601V10.3921C4.53095 10.6733 4.30277 10.9015 4.02152 10.9015C3.74027 10.9015 3.51208 10.6733 3.51208 10.3921Z" fill="white"/>
<path d="M3.51208 20.7168V12.6361C3.51208 12.3549 3.74027 12.1267 4.02152 12.1267C4.30277 12.1267 4.53095 12.3549 4.53095 12.6361V20.7168C4.53095 20.998 4.30277 21.2262 4.02152 21.2262C3.74027 21.2262 3.51208 20.998 3.51208 20.7168Z" fill="white"/>
<path d="M28.3519 6.23563V32.8212C28.3519 34.4853 27.007 35.8302 25.3428 35.8302H4.55802C3.45076 35.8302 2.47949 35.2326 1.96326 34.3359C2.23489 34.4243 2.52708 34.4649 2.82591 34.4649H23.6108C25.275 34.4649 26.6199 33.12 26.6199 31.4559V4.87017C26.6199 4.31331 26.4705 3.79708 26.2055 3.35547C27.4486 3.72229 28.3519 4.87017 28.3519 6.23563Z" fill="#D0D0F7"/>
<path d="M1.54871 7.70264H28.3517V8.38188H1.54871V7.70264Z" fill="#C2C2EF"/>
<path d="M6.57507 7.93018H7.25432V35.8302H6.57507V7.93018Z" fill="#C2C2EF"/>
<path d="M1.54871 12.3011H28.3517V12.9804H1.54871V12.3011Z" fill="#C2C2EF"/>
<path d="M1.54871 16.8928H28.3517V17.5721H1.54871V16.8928Z" fill="#C2C2EF"/>
<path d="M1.54871 21.4845H28.3517V22.1637H1.54871V21.4845Z" fill="#C2C2EF"/>
<path d="M1.54871 26.0762H28.3517V26.7554H1.54871V26.0762Z" fill="#C2C2EF"/>
<path d="M1.54871 30.6747H28.3517V31.3539H1.54871V30.6747Z" fill="#C2C2EF"/>
<path d="M18.9794 26.0078L29.1071 12.5435L32.5658 15.1452L22.4381 28.6094L18.9794 26.0078Z" fill="#F9B938"/>
<path d="M32.5774 15.1521L22.4443 28.6168L18.9852 26.0136L19.6675 25.1071L20.5397 25.7635C21.4849 26.4748 22.8278 26.2853 23.5391 25.3401L31.702 14.4933L32.5774 15.1521Z" fill="#E5A320"/>
<path d="M32.8972 14.7272L34.016 13.2405C34.7349 12.2853 34.5433 10.9282 33.5881 10.2093C32.6329 9.4905 31.2758 9.68209 30.557 10.6373L29.4381 12.124L32.8972 14.7272Z" fill="#474646"/>
<path d="M34.0165 13.2399L32.8972 14.7272L29.4381 12.124L30.0116 11.3619L32.1361 12.9608C32.5837 13.2976 33.2196 13.2079 33.5565 12.7602L34.0659 12.0834C34.2151 11.8851 34.324 11.6697 34.3938 11.4471C34.5347 12.0501 34.4173 12.7072 34.0165 13.2399Z" fill="#2D2C2C"/>
<path d="M29.1083 12.5457L29.6835 11.781L33.1422 14.3826L32.567 15.1473L29.1083 12.5457Z" fill="#E4E3FF"/>
<path d="M31.7031 14.498L32.2784 13.7332L33.1426 14.3832L32.5673 15.1481L31.7031 14.498Z" fill="#D0D0F7"/>
<path d="M22.4443 28.6169L19.5254 30.3962L18.4465 31.0575C18.0809 31.2837 17.6305 30.9448 17.7439 30.5287L18.0785 29.3117L18.9852 26.0137L22.4443 28.6169Z" fill="#F4B37D"/>
<path d="M19.5254 30.3962L18.4465 31.0575C18.0809 31.2838 17.6305 30.9448 17.7439 30.5288L18.0785 29.3118C18.3898 29.3286 18.7009 29.434 18.9672 29.6344C19.2364 29.837 19.4231 30.1018 19.5254 30.3962Z" fill="#474646"/>
<g opacity="0.4">
<path d="M23.2977 22.108C23.1804 22.0197 23.1568 21.8529 23.2451 21.7356L26.679 17.1727C26.7673 17.0554 26.9341 17.0318 27.0514 17.1201C27.1687 17.2084 27.1922 17.3752 27.104 17.4925L23.67 22.0554C23.5818 22.1727 23.415 22.1962 23.2977 22.108Z" fill="white"/>
</g>
<g opacity="0.4">
<path d="M27.6207 16.3637C27.5034 16.2754 27.4798 16.1086 27.5681 15.9913L28.0114 15.4023C28.0996 15.285 28.2664 15.2614 28.3837 15.3497C28.501 15.438 28.5246 15.6048 28.4363 15.7221L27.993 16.3111C27.9048 16.4284 27.738 16.4519 27.6207 16.3637Z" fill="white"/>
</g>
<path d="M8.12643 5.52146C8.12643 6.05736 7.68938 6.48615 7.16174 6.48615C6.634 6.48615 6.2052 6.05736 6.2052 5.52146C6.2052 4.99362 6.634 4.56482 7.16174 4.56482C7.68938 4.56482 8.12643 4.99362 8.12643 5.52146Z" fill="#FC6559"/>
<path d="M7.95778 4.98574C7.80837 4.88376 7.61816 4.82273 7.42124 4.82273C6.89141 4.82273 6.46348 5.25058 6.46348 5.78041C6.46348 5.98421 6.52467 6.16762 6.62649 6.32384C6.37526 6.15402 6.20544 5.8552 6.20544 5.52237C6.20544 4.99254 6.63329 4.5647 7.16312 4.5647C7.48915 4.5647 7.78797 4.73451 7.95778 4.98574Z" fill="#F05543"/>
<path d="M8.66301 2.93437C8.66301 3.03636 8.65621 3.13138 8.64941 3.2264C8.54071 4.61889 7.67125 5.69895 6.61847 5.69895C6.42835 5.69895 6.27885 5.54937 6.27885 5.35933C6.27885 5.17592 6.42835 5.0197 6.61847 5.0197C7.29092 5.0197 7.87506 4.22504 7.97016 3.2264C7.97696 3.13138 7.98376 3.03636 7.98376 2.93437C7.98376 1.80689 7.35883 0.849045 6.61847 0.849045C5.87812 0.849045 5.24638 1.80689 5.24638 2.93437C5.24638 3.03636 5.25318 3.13138 5.25998 3.2264H4.58074C4.57394 3.13138 4.56714 3.0294 4.56714 2.93437C4.56714 1.41287 5.4909 0.1698 6.61847 0.1698C7.74604 0.1698 8.66301 1.41287 8.66301 2.93437Z" fill="#F05543"/>
<path d="M13.6833 5.52146C13.6833 6.05736 13.2463 6.48615 12.7186 6.48615C12.1909 6.48615 11.7621 6.05736 11.7621 5.52146C11.7621 4.99362 12.1909 4.56482 12.7186 4.56482C13.2463 4.56482 13.6833 4.99362 13.6833 5.52146Z" fill="#FC6559"/>
<path d="M13.5145 4.98574C13.3651 4.88376 13.1749 4.82273 12.978 4.82273C12.4482 4.82273 12.0202 5.25058 12.0202 5.78041C12.0202 5.98421 12.0814 6.16762 12.1833 6.32384C11.932 6.15402 11.7622 5.8552 11.7622 5.52237C11.7622 4.99254 12.1901 4.5647 12.7199 4.5647C13.0459 4.5647 13.3447 4.73451 13.5145 4.98574Z" fill="#F05543"/>
<path d="M14.2199 2.93437C14.2199 3.03636 14.2131 3.13138 14.2063 3.2264C14.0976 4.61889 13.2281 5.69895 12.1754 5.69895C11.9852 5.69895 11.8357 5.54937 11.8357 5.35933C11.8357 5.17592 11.9852 5.0197 12.1754 5.0197C12.8478 5.0197 13.4319 4.22504 13.527 3.2264C13.5338 3.13138 13.5406 3.03636 13.5406 2.93437C13.5406 1.80689 12.9157 0.849045 12.1754 0.849045C11.435 0.849045 10.8033 1.80689 10.8033 2.93437C10.8033 3.03636 10.8101 3.13138 10.8169 3.2264H10.1376C10.1308 3.13138 10.124 3.0294 10.124 2.93437C10.124 1.41287 11.0478 0.1698 12.1754 0.1698C13.3029 0.1698 14.2199 1.41287 14.2199 2.93437Z" fill="#F05543"/>
<path d="M19.2402 5.52146C19.2402 6.05736 18.8032 6.48615 18.2755 6.48615C17.7478 6.48615 17.319 6.05736 17.319 5.52146C17.319 4.99362 17.7478 4.56482 18.2755 4.56482C18.8032 4.56482 19.2402 4.99362 19.2402 5.52146Z" fill="#FC6559"/>
<path d="M19.0714 4.98574C18.922 4.88376 18.7318 4.82273 18.5349 4.82273C18.0051 4.82273 17.5771 5.25058 17.5771 5.78041C17.5771 5.98421 17.6383 6.16762 17.7401 6.32384C17.4889 6.15402 17.3191 5.8552 17.3191 5.52237C17.3191 4.99254 17.7469 4.5647 18.2768 4.5647C18.6028 4.5647 18.9016 4.73451 19.0714 4.98574Z" fill="#F05543"/>
<path d="M19.7768 2.93437C19.7768 3.03636 19.77 3.13138 19.7632 3.2264C19.6545 4.61889 18.785 5.69895 17.7322 5.69895C17.5421 5.69895 17.3926 5.54937 17.3926 5.35933C17.3926 5.17592 17.5421 5.0197 17.7322 5.0197C18.4047 5.0197 18.9888 4.22504 19.0839 3.2264C19.0907 3.13138 19.0975 3.03636 19.0975 2.93437C19.0975 1.80689 18.4726 0.849045 17.7322 0.849045C16.9919 0.849045 16.3602 1.80689 16.3602 2.93437C16.3602 3.03636 16.367 3.13138 16.3738 3.2264H15.6945C15.6877 3.13138 15.6809 3.0294 15.6809 2.93437C15.6809 1.41287 16.6047 0.1698 17.7322 0.1698C18.8598 0.1698 19.7768 1.41287 19.7768 2.93437Z" fill="#F05543"/>
<path d="M24.797 5.52146C24.797 6.05736 24.3599 6.48615 23.8323 6.48615C23.3045 6.48615 22.8757 6.05736 22.8757 5.52146C22.8757 4.99362 23.3045 4.56482 23.8323 4.56482C24.3599 4.56482 24.797 4.99362 24.797 5.52146Z" fill="#FC6559"/>
<path d="M24.6283 4.98574C24.4789 4.88376 24.2887 4.82273 24.0918 4.82273C23.5619 4.82273 23.134 5.25058 23.134 5.78041C23.134 5.98421 23.1952 6.16762 23.297 6.32384C23.0458 6.15402 22.876 5.8552 22.876 5.52237C22.876 4.99254 23.3038 4.5647 23.8337 4.5647C24.1597 4.5647 24.4585 4.73451 24.6283 4.98574Z" fill="#F05543"/>
<path d="M25.3335 2.93437C25.3335 3.03636 25.3267 3.13138 25.3199 3.2264C25.2112 4.61889 24.3418 5.69895 23.289 5.69895C23.0989 5.69895 22.9494 5.54937 22.9494 5.35933C22.9494 5.17592 23.0989 5.0197 23.289 5.0197C23.9615 5.0197 24.5456 4.22504 24.6407 3.2264C24.6475 3.13138 24.6543 3.03636 24.6543 2.93437C24.6543 1.80689 24.0294 0.849045 23.289 0.849045C22.5487 0.849045 21.9169 1.80689 21.9169 2.93437C21.9169 3.03636 21.9237 3.13138 21.9305 3.2264H21.2513C21.2445 3.13138 21.2377 3.0294 21.2377 2.93437C21.2377 1.41287 22.1614 0.1698 23.289 0.1698C24.4166 0.1698 25.3335 1.41287 25.3335 2.93437Z" fill="#F05543"/>
</svg>
