<svg width="36" height="36" viewBox="0 0 36 36" fill="none" xmlns="http://www.w3.org/2000/svg">
<path d="M28.6354 20.9638V21.0182C28.6354 28.3811 22.6716 34.3517 15.3086 34.3517C7.94557 34.3517 1.97498 28.3811 1.97498 21.0182C1.97498 13.6551 7.94557 7.69128 15.3086 7.69128C17.6927 7.69128 19.9342 8.31614 21.8701 9.42339C24.9335 11.1487 27.2429 14.0695 28.1735 17.5471C28.2957 17.9887 28.3976 18.4438 28.4655 18.9056C28.5742 19.5781 28.6354 20.2641 28.6354 20.9638Z" fill="#7979F7"/>
<path d="M28.4655 18.9057H22.6172C21.7682 18.9057 21.0006 18.4711 20.5591 17.751C20.1176 17.031 20.0836 16.1481 20.4708 15.3941C21.3334 13.6891 21.7953 11.7396 21.8701 9.42346C24.9335 11.1488 27.2429 14.0696 28.1734 17.5472C28.2957 17.9888 28.3976 18.4439 28.4655 18.9057Z" fill="#5E5EEF"/>
<path d="M28.6353 20.9639C28.2821 21.1473 27.8745 21.2491 27.4534 21.2491C26.1017 21.2491 24.9809 20.2166 24.8383 18.9057C24.8315 18.8107 24.8247 18.7155 24.8247 18.6205C24.8247 18.4847 24.8383 18.3217 24.8587 18.1383L24.9402 17.5472H28.1734C28.2956 17.9889 28.3975 18.4439 28.4655 18.9057C28.5742 19.5782 28.6353 20.2642 28.6353 20.9639Z" fill="#5E5EEF"/>
<g opacity="0.3">
<path d="M4.25188 25.9846C3.54146 24.4056 3.18127 22.7353 3.18127 21.0203C3.18127 16.5183 5.65548 12.4113 9.63808 10.3029C9.88551 10.1703 10.1953 10.2668 10.3266 10.5145C10.458 10.7633 10.3631 11.0717 10.1144 11.2031C6.46673 13.135 4.20014 16.8964 4.20014 21.0203C4.20014 22.5904 4.52982 24.12 5.18054 25.5667C5.29596 25.8234 5.18186 26.1249 4.92516 26.2403C4.67215 26.3544 4.36869 26.2442 4.25188 25.9846Z" fill="white"/>
</g>
<g opacity="0.3">
<path d="M13.149 9.59715C13.1092 9.31889 13.3029 9.06085 13.5815 9.02106C14.404 8.90398 15.2584 8.86716 16.0802 8.92885C16.3608 8.94975 16.5711 9.19385 16.5505 9.47444C16.53 9.75536 16.2925 9.96729 16.0046 9.94507C15.257 9.89001 14.4763 9.92251 13.7247 10.03C13.4444 10.0689 13.1881 9.87465 13.149 9.59715Z" fill="white"/>
</g>
<path d="M28.6353 21.0216C28.6353 28.3847 22.6716 34.3552 15.3085 34.3552C11.2942 34.3552 7.69421 32.5824 5.2489 29.7703C7.58551 31.808 10.6489 33.0443 13.9976 33.0443C21.3606 33.0443 27.3244 27.0737 27.3244 19.7107C27.3244 16.3484 26.0881 13.2782 24.0301 10.9417C26.8489 13.3869 28.6353 16.9937 28.6353 21.0216Z" fill="#5E5EEF"/>
<path d="M25.2255 21.0182C25.2255 26.4995 20.7832 30.9418 15.3085 30.9418C9.82702 30.9418 5.38477 26.4995 5.38477 21.0182C5.38477 15.5434 9.82701 11.1079 15.3085 11.1079C17.5772 11.1079 19.6693 11.8687 21.3334 13.1524C23.0044 14.4293 24.2542 16.2226 24.8452 18.2944C24.8995 18.4982 24.9538 18.7018 24.9946 18.9056C25.0693 19.2249 25.1236 19.5578 25.1576 19.8905C25.2051 20.2573 25.2255 20.6377 25.2255 21.0182Z" fill="white"/>
<path d="M25.2255 21.0217C25.2255 26.4964 20.7832 30.9386 15.3085 30.9386C12.1704 30.9386 9.37192 29.4851 7.55835 27.2096C9.25646 28.5749 11.4029 29.3832 13.7463 29.3832C19.2278 29.3832 23.6632 24.9409 23.6632 19.4594C23.6632 17.116 22.8549 14.9696 21.4964 13.2715C23.7719 15.0851 25.2255 17.8835 25.2255 21.0217Z" fill="#E4E3FF"/>
<path d="M24.9946 18.9057H22.6172C21.7682 18.9057 21.0006 18.471 20.5591 17.751C20.1176 17.0309 20.0836 16.148 20.4708 15.394C20.824 14.6944 21.1161 13.9471 21.3334 13.1525C23.0044 14.4294 24.2542 16.2227 24.8452 18.2944C24.8995 18.4982 24.9538 18.7018 24.9946 18.9057Z" fill="#E4E3FF"/>
<path d="M25.1575 19.8906C24.9877 19.5917 24.8791 19.2589 24.8383 18.9057C24.8315 18.8107 24.8247 18.7155 24.8247 18.6205C24.8247 18.5254 24.8315 18.4167 24.8451 18.2944C24.8994 18.4982 24.9538 18.7019 24.9945 18.9057C25.0692 19.2249 25.1236 19.5579 25.1575 19.8906Z" fill="#E4E3FF"/>
<path d="M15.3053 13.6243C15.1176 13.6243 14.9657 13.4724 14.9657 13.2846V12.8939C14.9657 12.7062 15.1176 12.5543 15.3053 12.5543C15.493 12.5543 15.6449 12.7062 15.6449 12.8939V13.2846C15.6449 13.4724 15.493 13.6243 15.3053 13.6243Z" fill="#231F20"/>
<path d="M11.1423 14.4912L10.9466 14.1529C10.8524 13.9911 10.9081 13.7828 11.0706 13.6893C11.2298 13.5951 11.4401 13.6501 11.5343 13.8133L11.73 14.1516C11.8242 14.3135 11.7684 14.5218 11.6059 14.6153C11.4471 14.7086 11.2375 14.6556 11.1423 14.4912Z" fill="#231F20"/>
<path d="M8.43329 17.4483L8.09499 17.2533C7.93248 17.1591 7.87676 16.9515 7.97029 16.789C8.06382 16.6264 8.27077 16.5707 8.43462 16.6643L8.77291 16.8593C8.93543 16.9535 8.99115 17.1611 8.89762 17.3236C8.80399 17.4852 8.5977 17.5417 8.43329 17.4483Z" fill="#231F20"/>
<path d="M7.56626 21.3633H7.17556C6.98784 21.3633 6.83594 21.2114 6.83594 21.0237C6.83594 20.836 6.98784 20.6841 7.17556 20.6841H7.56626C7.75398 20.6841 7.90588 20.836 7.90588 21.0237C7.90588 21.2114 7.75398 21.3633 7.56626 21.3633Z" fill="#231F20"/>
<path d="M7.97099 25.2583C7.8768 25.0965 7.93252 24.8882 8.09504 24.7947L8.43333 24.599C8.59319 24.5041 8.8028 24.5605 8.897 24.723C8.99119 24.8849 8.93547 25.0932 8.77296 25.1867L8.43466 25.3824C8.27582 25.4757 8.06621 25.4227 7.97099 25.2583Z" fill="#231F20"/>
<path d="M11.0706 28.3581C10.9081 28.2645 10.8524 28.0569 10.9466 27.8944L11.1423 27.5554C11.2358 27.3929 11.4447 27.3379 11.6059 27.4314C11.7684 27.5249 11.8242 27.7325 11.73 27.8951L11.5343 28.234C11.4413 28.3963 11.2329 28.4522 11.0706 28.3581Z" fill="#231F20"/>
<path d="M15.3053 29.5069C15.1176 29.5069 14.9657 29.355 14.9657 29.1673V28.7434C14.9657 28.5557 15.1176 28.4038 15.3053 28.4038C15.493 28.4038 15.6449 28.5557 15.6449 28.7434V29.1673C15.6449 29.355 15.493 29.5069 15.3053 29.5069Z" fill="#231F20"/>
<path d="M19.0763 28.234L18.8807 27.895C18.7865 27.7325 18.8422 27.5249 19.0047 27.4314C19.1666 27.3365 19.3748 27.3929 19.4684 27.5554L19.664 27.8944C19.7582 28.0569 19.7025 28.2645 19.54 28.358C19.3781 28.452 19.1695 28.3965 19.0763 28.234Z" fill="#231F20"/>
<path d="M22.1761 25.3824L21.8371 25.1867C21.6746 25.0932 21.6189 24.8856 21.7131 24.723C21.8066 24.5605 22.0149 24.5055 22.1767 24.599L22.5157 24.7947C22.6782 24.8882 22.7339 25.0958 22.6397 25.2583C22.5467 25.4207 22.3383 25.4765 22.1761 25.3824Z" fill="#231F20"/>
<path d="M23.4351 21.3633H23.0437C22.856 21.3633 22.7041 21.2114 22.7041 21.0237C22.7041 20.836 22.856 20.6841 23.0437 20.6841H23.4351C23.6228 20.6841 23.7747 20.836 23.7747 21.0237C23.7747 21.2114 23.6228 21.3633 23.4351 21.3633Z" fill="#231F20"/>
<path d="M21.7124 17.3229C21.6189 17.1604 21.6753 16.9528 21.8378 16.8593L22.1768 16.6642C22.3366 16.5707 22.5462 16.6264 22.6404 16.7896C22.734 16.9521 22.6776 17.1597 22.5151 17.2533L22.1761 17.4483C22.0152 17.5408 21.807 17.4872 21.7124 17.3229Z" fill="#231F20"/>
<path d="M19.0047 14.6153C18.8422 14.5218 18.7865 14.3135 18.8807 14.1517L19.0763 13.8134C19.1705 13.6509 19.3801 13.5958 19.54 13.6893C19.7025 13.7829 19.7582 13.9911 19.664 14.153L19.4684 14.4913C19.3733 14.6553 19.1638 14.7088 19.0047 14.6153Z" fill="#231F20"/>
<path d="M17.9825 21.5994H15.3378C15.0566 21.5994 14.8284 21.3712 14.8284 21.0899V16.1077C14.8284 15.8265 15.0566 15.5983 15.3378 15.5983C15.6191 15.5983 15.8472 15.8265 15.8472 16.1077V20.5805H17.9825C18.2637 20.5805 18.4919 20.8087 18.4919 21.0899C18.4919 21.3712 18.2637 21.5994 17.9825 21.5994Z" fill="#231F20"/>
<path d="M11.1621 23.5722C11.0607 23.4143 11.1064 23.204 11.2643 23.1025L14.7109 20.8844C14.8681 20.7822 15.0784 20.8286 15.1806 20.9865C15.2821 21.1444 15.2363 21.3547 15.0784 21.4562L11.6318 23.6743C11.4744 23.775 11.2642 23.7304 11.1621 23.5722Z" fill="#E24B40"/>
<path d="M16.4752 21.0208C16.4752 21.6713 15.9515 22.1951 15.301 22.1951C14.659 22.1951 14.1351 21.6713 14.1351 21.0208C14.1351 20.3787 14.659 19.855 15.301 19.855C15.9515 19.855 16.4752 20.3787 16.4752 21.0208Z" fill="#231F20"/>
<path d="M27.5788 4.52905H27.4502C24.776 4.52905 22.6283 6.67529 22.5545 9.34848C22.4933 11.5633 22.1001 13.6948 21.0724 15.7043C20.4828 16.8572 21.3221 18.2253 22.617 18.2253H32.2878C33.5763 18.2253 34.4175 16.8688 33.8391 15.7175C32.8319 13.7127 32.4757 11.5863 32.4412 9.37679C32.3993 6.69742 30.2585 4.52905 27.5788 4.52905Z" fill="#F9B938"/>
<g opacity="0.4">
<path d="M24.0251 8.80084C23.8742 8.75965 23.7852 8.60404 23.8263 8.4534C24.0992 7.45282 24.7708 6.59929 25.6697 6.11172C25.807 6.03737 25.979 6.08822 26.0533 6.2256C26.1279 6.36297 26.0768 6.53461 25.9394 6.60924C25.176 7.02357 24.6047 7.74995 24.3725 8.6021C24.3305 8.75646 24.1712 8.84142 24.0251 8.80084Z" fill="white"/>
</g>
<g opacity="0.4">
<path d="M26.9898 6.25877C26.8496 6.25877 26.728 6.15484 26.7095 6.01221C26.689 5.85743 26.7985 5.71536 26.9536 5.69518C27.1061 5.67528 27.2612 5.66422 27.4143 5.66284H27.4171C27.5721 5.66284 27.6987 5.78778 27.7001 5.94311C27.7015 6.09956 27.576 6.22753 27.4198 6.22891C27.2891 6.23002 27.157 6.23942 27.0265 6.25628C27.0144 6.25794 27.0019 6.25877 26.9898 6.25877Z" fill="white"/>
</g>
<path d="M32.2884 18.2241H22.6171C21.8189 18.2241 21.1962 17.7061 20.9727 17.041C21.0859 17.0664 21.2047 17.0778 21.3293 17.0778H31.0006C32.2884 17.0778 33.129 15.722 32.5516 14.5701C31.544 12.5662 31.1874 10.4406 31.1535 8.23007C31.1336 7.09792 30.7459 6.0592 30.0949 5.2356C31.4846 6.0847 32.413 7.62157 32.4413 9.37638C32.4752 11.5869 32.8319 13.7124 33.8395 15.7164C34.4169 16.8683 33.5762 18.2241 32.2884 18.2241Z" fill="#E5A320"/>
<path d="M29.3986 18.6203C29.3986 19.6959 28.5268 20.5677 27.4513 20.5677C26.3786 20.5677 25.5068 19.6959 25.5068 18.6203C25.5068 18.51 25.5153 18.377 25.5351 18.2241H29.3703C29.3901 18.377 29.3986 18.51 29.3986 18.6203Z" fill="#FC6559"/>
<g opacity="0.3">
<path d="M27.9221 20.046C27.8729 20.046 27.8248 20.0201 27.7988 19.9742C27.7604 19.9062 27.7844 19.8197 27.8524 19.7813C28.1565 19.6096 28.3967 19.3368 28.5288 19.0131C28.5584 18.9407 28.6407 18.9059 28.7134 18.9357C28.7856 18.9653 28.8204 19.048 28.7908 19.1204C28.6347 19.5026 28.3508 19.8249 27.9917 20.0278C27.9696 20.0402 27.9459 20.046 27.9221 20.046Z" fill="white"/>
</g>
<path d="M26.0035 18.9629C26.0035 19.5176 26.2356 20.0186 26.6092 20.3724C25.9582 20.061 25.5082 19.393 25.5082 18.6203C25.5082 18.51 25.5167 18.377 25.5365 18.2241H29.3716C29.3886 18.3543 29.3971 18.4676 29.3971 18.5666H26.4062C26.1877 18.5666 26.0038 18.741 26.0035 18.9596L26.0035 18.9629Z" fill="#F05543"/>
<path d="M27.4527 5.1197C26.4947 5.1197 25.7152 4.34025 25.7152 3.38224C25.7152 2.42423 26.4947 1.64478 27.4527 1.64478C28.4107 1.64478 29.1901 2.42423 29.1901 3.38224C29.1901 4.34025 28.4107 5.1197 27.4527 5.1197ZM27.4527 2.49388C26.9629 2.49388 26.5643 2.89246 26.5643 3.38224C26.5643 3.87202 26.9629 4.2706 27.4527 4.2706C27.9425 4.2706 28.341 3.87202 28.341 3.38224C28.341 2.89245 27.9425 2.49388 27.4527 2.49388Z" fill="#F9B938"/>
</svg>
