<svg width="14" height="14" viewBox="0 0 14 14" fill="none" xmlns="http://www.w3.org/2000/svg">
<path fill-rule="evenodd" clip-rule="evenodd" d="M3.24998 0.4375C3.56065 0.4375 3.81248 0.68934 3.81248 1V2.25072C5.93329 2.06185 8.06668 2.06185 10.1875 2.25073V1C10.1875 0.68934 10.4393 0.4375 10.75 0.4375C11.0606 0.4375 11.3125 0.68934 11.3125 1V2.36233C12.4323 2.52066 13.3169 3.40635 13.4667 4.53613L13.5316 5.02584C13.8046 7.08559 13.781 9.17383 13.4616 11.2269C13.3033 12.2439 12.4771 13.0251 11.4527 13.1261L10.558 13.2143C8.19171 13.4477 5.80821 13.4477 3.44193 13.2143L2.54718 13.1261C1.52287 13.0251 0.696626 12.2439 0.538368 11.2269C0.2189 9.17383 0.195319 7.08559 0.468346 5.02584L0.533259 4.53613C0.683017 3.40634 1.56768 2.52063 2.68748 2.36232V1C2.68748 0.68934 2.93932 0.4375 3.24998 0.4375ZM3.58386 3.4021C5.85575 3.17806 8.14418 3.17806 10.4161 3.4021L11.0952 3.46907C11.7452 3.53318 12.2656 4.03641 12.3514 4.68396L12.4163 5.17367C12.439 5.34475 12.4595 5.51604 12.4779 5.6875H1.52203C1.54039 5.51604 1.56091 5.34475 1.58359 5.17367L1.6485 4.68396C1.73434 4.03641 2.25471 3.53318 2.90477 3.46907L3.58386 3.4021ZM1.43261 6.8125C1.35897 8.22856 1.43152 9.64991 1.64999 11.0539C1.72937 11.564 2.1438 11.9559 2.65758 12.0065L3.55234 12.0948C5.84519 12.3209 8.15473 12.3209 10.4476 12.0948L11.3423 12.0065C11.8561 11.9559 12.2706 11.564 12.3499 11.0539C12.5684 9.64991 12.641 8.22856 12.5673 6.8125H1.43261Z" fill="white"/>
</svg>
