<svg width="36" height="36" viewBox="0 0 36 36" fill="none" xmlns="http://www.w3.org/2000/svg">
<path d="M22.7754 20.5465C22.7754 23.1855 20.639 25.3219 18 25.3219C15.361 25.3219 13.2246 23.1855 13.2246 20.5465C13.2246 17.9075 15.361 15.7712 18 15.7712C20.639 15.7712 22.7754 17.9075 22.7754 20.5465ZM32.5478 8.57856C34.455 8.57856 36 10.1235 36 12.0307V21.0788V28.7519C36 30.7847 34.3515 32.4332 32.3187 32.4332H3.68131C1.64846 32.4332 0 30.7847 0 28.7519V21.0714V12.0307C0 10.1235 1.54497 8.57856 3.45216 8.57856H10.3565L10.6817 7.20361C11.177 5.07466 13.0768 3.56665 15.2649 3.56665H20.7425C22.9306 3.56665 24.8304 5.07466 25.3257 7.20361L25.6435 8.57856H32.5478ZM7.2 13.5609C7.2 12.6073 6.42382 11.8311 5.47023 11.8311C4.50924 11.8311 3.73306 12.6073 3.73306 13.5609C3.73306 14.5145 4.50924 15.2907 5.46283 15.2907C6.42382 15.2981 7.2 14.5219 7.2 13.5609ZM26.5158 20.5465C26.5158 15.8451 22.7014 12.0307 18 12.0307C13.2986 12.0307 9.48419 15.8451 9.48419 20.5465C9.48419 25.248 13.2986 29.0623 18 29.0623C22.7014 29.0623 26.5158 25.248 26.5158 20.5465Z" fill="#5736CD"/>
</svg>
