<svg width="14" height="14" viewBox="0 0 14 14" fill="none" xmlns="http://www.w3.org/2000/svg">
<path d="M7.5625 3.25C7.5625 2.93934 7.31066 2.6875 7 2.6875C6.68934 2.6875 6.4375 2.93934 6.4375 3.25V7C6.4375 7.19394 6.53741 7.37421 6.70188 7.477L8.95188 8.88325C9.21531 9.0479 9.56235 8.96781 9.727 8.70437C9.89165 8.44094 9.81156 8.0939 9.54812 7.92925L7.5625 6.68824V3.25Z" fill="white"/>
<path fill-rule="evenodd" clip-rule="evenodd" d="M7 0.4375C3.37563 0.4375 0.4375 3.37563 0.4375 7C0.4375 10.6244 3.37563 13.5625 7 13.5625C10.6244 13.5625 13.5625 10.6244 13.5625 7C13.5625 3.37563 10.6244 0.4375 7 0.4375ZM1.5625 7C1.5625 3.99695 3.99695 1.5625 7 1.5625C10.003 1.5625 12.4375 3.99695 12.4375 7C12.4375 10.003 10.003 12.4375 7 12.4375C3.99695 12.4375 1.5625 10.003 1.5625 7Z" fill="white"/>
</svg>
