<svg width="44" height="44" viewBox="0 0 44 44" fill="none" xmlns="http://www.w3.org/2000/svg">
<g filter="url(#filter0_b_377_2815)">
<rect width="44" height="44" rx="22" fill="#F9F7FF" fill-opacity="0.15"/>
<path d="M21.0303 18.5303C21.3232 18.2374 21.3232 17.7626 21.0303 17.4697C20.7374 17.1768 20.2626 17.1768 19.9697 17.4697L15.9697 21.4697C15.8232 21.6161 15.75 21.8081 15.75 22C15.75 22.1017 15.7702 22.1987 15.8069 22.2871C15.8435 22.3755 15.8978 22.4584 15.9697 22.5303L19.9697 26.5303C20.2626 26.8232 20.7374 26.8232 21.0303 26.5303C21.3232 26.2374 21.3232 25.7626 21.0303 25.4697L18.3107 22.75H28C28.4142 22.75 28.75 22.4142 28.75 22C28.75 21.5858 28.4142 21.25 28 21.25H18.3107L21.0303 18.5303Z" fill="#F9F7FF"/>
</g>
<defs>
<filter id="filter0_b_377_2815" x="-20" y="-20" width="84" height="84" filterUnits="userSpaceOnUse" color-interpolation-filters="sRGB">
<feFlood flood-opacity="0" result="BackgroundImageFix"/>
<feGaussianBlur in="BackgroundImageFix" stdDeviation="10"/>
<feComposite in2="SourceAlpha" operator="in" result="effect1_backgroundBlur_377_2815"/>
<feBlend mode="normal" in="SourceGraphic" in2="effect1_backgroundBlur_377_2815" result="shape"/>
</filter>
</defs>
</svg>
