<svg width="14" height="14" viewBox="0 0 14 14" fill="none" xmlns="http://www.w3.org/2000/svg">
<path d="M6.69067 4.976C6.77271 5.05805 6.88399 5.10414 7.00003 5.10414C7.11606 5.10414 7.22734 5.05805 7.30939 4.976L7.89272 4.39267C8.01784 4.26754 8.05527 4.07937 7.98756 3.91588C7.91984 3.7524 7.76031 3.64581 7.58336 3.64581H6.41669C6.23974 3.64581 6.08021 3.7524 6.0125 3.91588C5.94478 4.07937 5.98221 4.26754 6.10733 4.39267L6.69067 4.976Z" fill="#F9F7FF"/>
<path d="M6.69067 9.02395C6.77271 8.9419 6.88399 8.89581 7.00003 8.89581C7.11606 8.89581 7.22734 8.9419 7.30939 9.02395L7.89272 9.60728C8.01784 9.7324 8.05527 9.92058 7.98756 10.0841C7.91984 10.2475 7.76031 10.3541 7.58336 10.3541H6.41669C6.23974 10.3541 6.08021 10.2475 6.0125 10.0841C5.94478 9.92058 5.98221 9.7324 6.10733 9.60728L6.69067 9.02395Z" fill="#F9F7FF"/>
<path fill-rule="evenodd" clip-rule="evenodd" d="M7.67029 6.99997L7.77955 6.90584C8.93188 5.913 9.88997 4.71494 10.6051 3.3725C10.8858 2.84571 10.5374 2.20341 9.94275 2.15142L9.25818 2.09157C7.75561 1.9602 6.24445 1.9602 4.74188 2.09157L4.05732 2.15142C3.4627 2.20341 3.11427 2.84571 3.39492 3.3725C4.1101 4.71494 5.06818 5.913 6.22052 6.90584L6.32977 6.99997L6.22052 7.09411C5.06818 8.08695 4.1101 9.28501 3.39492 10.6274C3.11427 11.1542 3.4627 11.7965 4.05732 11.8485L4.74188 11.9084C6.24445 12.0397 7.75561 12.0397 9.25818 11.9084L9.94275 11.8485C10.5374 11.7965 10.8858 11.1542 10.6051 10.6274C9.88997 9.28501 8.93188 8.08695 7.77955 7.09411L7.67029 6.99997ZM7.00216 6.42029C7.00242 6.4202 7.0029 6.42001 7.00382 6.41922L7.20841 6.24295C8.26256 5.3347 9.14169 4.24156 9.80264 3.01751L9.18197 2.96325C7.73011 2.83631 6.26995 2.83631 4.8181 2.96325L4.19743 3.01751C4.85837 4.24156 5.73751 5.3347 6.79166 6.24295L6.99625 6.41922C6.99683 6.41973 6.99724 6.41998 6.99753 6.42013C6.99743 6.42009 6.99769 6.42021 6.99753 6.42013C6.99797 6.42029 6.99909 6.42063 7.00003 6.42063C7.00098 6.42063 7.00171 6.42046 7.00216 6.42029ZM7.00382 7.58072C7.0029 7.57993 7.00242 7.57975 7.00216 7.57965C7.00194 7.57957 7.00167 7.57949 7.00133 7.57943C7.00097 7.57936 7.00053 7.57932 7.00003 7.57932C6.99909 7.57932 6.99835 7.57949 6.99791 7.57965C6.99764 7.57975 6.99716 7.57993 6.99625 7.58072L6.79166 7.757C5.73751 8.66524 4.85837 9.75838 4.19743 10.9824L4.8181 11.0367C6.26995 11.1636 7.73011 11.1636 9.18197 11.0367L9.80264 10.9824C9.14169 9.75839 8.26256 8.66524 7.20841 7.757L7.00382 7.58072Z" fill="#F9F7FF"/>
</svg>
