<svg width="36" height="36" viewBox="0 0 36 36" fill="none" xmlns="http://www.w3.org/2000/svg">
<path d="M9.37497 29.25C6.97347 29.25 4.83747 27.7124 4.06197 25.4234L4.00947 25.2509C3.82647 24.6449 3.74997 24.1349 3.74997 23.6249V13.3979L0.110972 25.545C-0.357028 27.3315 0.709472 29.184 2.49897 29.6775L25.6935 35.889C25.983 35.964 26.2725 36 26.5575 36C28.0515 36 29.4165 35.0084 29.799 33.5475L31.1505 29.25H9.37497Z" fill="#5736CD"/>
<path d="M13.5 13.5C15.1545 13.5 16.5 12.1545 16.5 10.5C16.5 8.8455 15.1545 7.5 13.5 7.5C11.8455 7.5 10.5 8.8455 10.5 10.5C10.5 12.1545 11.8455 13.5 13.5 13.5Z" fill="#5736CD"/>
<path d="M32.25 3H9.75C7.683 3 6 4.683 6 6.75V23.25C6 25.317 7.683 27 9.75 27H32.25C34.317 27 36 25.317 36 23.25V6.75C36 4.683 34.317 3 32.25 3ZM9.75 6H32.25C32.664 6 33 6.336 33 6.75V17.3985L28.2615 11.8695C27.759 11.28 27.0315 10.965 26.25 10.947C25.473 10.9515 24.744 11.2965 24.246 11.8935L18.675 18.5805L16.86 16.77C15.834 15.744 14.1645 15.744 13.14 16.77L9 20.9085V6.75C9 6.336 9.336 6 9.75 6Z" fill="#5736CD"/>
</svg>
