<svg width="56" height="26" viewBox="0 0 56 26" fill="none" xmlns="http://www.w3.org/2000/svg">
<rect width="56" height="26" rx="2" fill="#12AE47"/>
<circle cx="10.5" cy="13" r="2.5" fill="#E8382F"/>
<path d="M19.212 17.042C18.8107 17.042 18.4933 16.9253 18.26 16.692C18.0267 16.4587 17.91 16.1413 17.91 15.74V8.502C18.0127 8.48333 18.176 8.46 18.4 8.432C18.624 8.39467 18.8387 8.376 19.044 8.376C19.2587 8.376 19.4453 8.39467 19.604 8.432C19.772 8.46 19.912 8.516 20.024 8.6C20.136 8.684 20.22 8.80067 20.276 8.95C20.332 9.09933 20.36 9.29533 20.36 9.538V15.068H23.566C23.6313 15.1707 23.692 15.3107 23.748 15.488C23.804 15.656 23.832 15.8333 23.832 16.02C23.832 16.3933 23.7527 16.6593 23.594 16.818C23.4353 16.9673 23.2253 17.042 22.964 17.042H19.212ZM24.8497 8.306C24.8497 7.95133 24.9664 7.65267 25.1997 7.41C25.4424 7.16733 25.7597 7.046 26.1517 7.046C26.5437 7.046 26.8564 7.16733 27.0897 7.41C27.3324 7.65267 27.4537 7.95133 27.4537 8.306C27.4537 8.66067 27.3324 8.95933 27.0897 9.202C26.8564 9.44467 26.5437 9.566 26.1517 9.566C25.7597 9.566 25.4424 9.44467 25.1997 9.202C24.9664 8.95933 24.8497 8.66067 24.8497 8.306ZM27.3417 16.986C27.2391 17.0047 27.0851 17.028 26.8797 17.056C26.6837 17.0933 26.4831 17.112 26.2777 17.112C26.0724 17.112 25.8857 17.098 25.7177 17.07C25.5591 17.042 25.4237 16.986 25.3117 16.902C25.1997 16.818 25.1111 16.706 25.0457 16.566C24.9897 16.4167 24.9617 16.2253 24.9617 15.992V10.294C25.0644 10.2753 25.2137 10.252 25.4097 10.224C25.6151 10.1867 25.8204 10.168 26.0257 10.168C26.2311 10.168 26.4131 10.182 26.5717 10.21C26.7397 10.238 26.8797 10.294 26.9917 10.378C27.1037 10.462 27.1877 10.5787 27.2437 10.728C27.3091 10.868 27.3417 11.0547 27.3417 11.288V16.986ZM33.4069 16.818C33.2762 16.9207 33.0849 17.0047 32.8329 17.07C32.5809 17.1353 32.2962 17.168 31.9789 17.168C31.6149 17.168 31.2976 17.1213 31.0269 17.028C30.7656 16.9347 30.5836 16.7853 30.4809 16.58C30.3969 16.4213 30.2942 16.202 30.1729 15.922C30.0609 15.6327 29.9396 15.3153 29.8089 14.97C29.6782 14.6153 29.5429 14.2373 29.4029 13.836C29.2629 13.4347 29.1276 13.038 28.9969 12.646C28.8756 12.254 28.7636 11.876 28.6609 11.512C28.5582 11.148 28.4742 10.826 28.4089 10.546C28.5396 10.4153 28.7122 10.3033 28.9269 10.21C29.1509 10.1073 29.3936 10.056 29.6549 10.056C29.9816 10.056 30.2476 10.126 30.4529 10.266C30.6676 10.3967 30.8262 10.6487 30.9289 11.022L31.4749 13.164C31.5776 13.584 31.6756 13.9667 31.7689 14.312C31.8622 14.648 31.9322 14.9093 31.9789 15.096H32.0489C32.2262 14.4053 32.4129 13.64 32.6089 12.8C32.8049 11.96 32.9822 11.134 33.1409 10.322C33.2996 10.238 33.4769 10.1727 33.6729 10.126C33.8782 10.0793 34.0742 10.056 34.2609 10.056C34.5876 10.056 34.8629 10.126 35.0869 10.266C35.3109 10.406 35.4229 10.6487 35.4229 10.994C35.4229 11.1433 35.3856 11.3627 35.3109 11.652C35.2456 11.932 35.1569 12.254 35.0449 12.618C34.9422 12.9727 34.8162 13.3507 34.6669 13.752C34.5269 14.1533 34.3822 14.5453 34.2329 14.928C34.0836 15.3107 33.9342 15.67 33.7849 16.006C33.6449 16.3327 33.5189 16.6033 33.4069 16.818ZM40.0155 17.224C39.4648 17.224 38.9515 17.1493 38.4755 17C38.0088 16.8413 37.5981 16.608 37.2435 16.3C36.8981 15.992 36.6228 15.6047 36.4175 15.138C36.2215 14.6713 36.1235 14.1253 36.1235 13.5C36.1235 12.884 36.2215 12.3567 36.4175 11.918C36.6228 11.47 36.8888 11.106 37.2155 10.826C37.5421 10.5367 37.9155 10.3267 38.3355 10.196C38.7555 10.056 39.1848 9.986 39.6235 9.986C40.1181 9.986 40.5661 10.0607 40.9675 10.21C41.3781 10.3593 41.7281 10.5647 42.0175 10.826C42.3161 11.0873 42.5448 11.4 42.7035 11.764C42.8715 12.128 42.9555 12.5247 42.9555 12.954C42.9555 13.2713 42.8668 13.514 42.6895 13.682C42.5121 13.85 42.2648 13.9573 41.9475 14.004L38.4895 14.522C38.5921 14.83 38.8021 15.0633 39.1195 15.222C39.4368 15.3713 39.8008 15.446 40.2115 15.446C40.5941 15.446 40.9535 15.3993 41.2895 15.306C41.6348 15.2033 41.9148 15.0867 42.1295 14.956C42.2788 15.0493 42.4048 15.18 42.5075 15.348C42.6101 15.516 42.6615 15.6933 42.6615 15.88C42.6615 16.3 42.4655 16.6127 42.0735 16.818C41.7748 16.9767 41.4388 17.084 41.0655 17.14C40.6921 17.196 40.3421 17.224 40.0155 17.224ZM39.6235 11.722C39.3995 11.722 39.2035 11.7593 39.0355 11.834C38.8768 11.9087 38.7461 12.0067 38.6435 12.128C38.5408 12.24 38.4615 12.3707 38.4055 12.52C38.3588 12.66 38.3308 12.8047 38.3215 12.954L40.7155 12.562C40.6875 12.3753 40.5848 12.1887 40.4075 12.002C40.2301 11.8153 39.9688 11.722 39.6235 11.722Z" fill="#F9F7FF"/>
</svg>
