<svg width="311" height="314" viewBox="0 0 311 314" fill="none" xmlns="http://www.w3.org/2000/svg">
<path d="M178 299H242L222.512 0H200.135L178 299Z" fill="#292045"/>
<path d="M278.939 302.618C296.634 302.618 310.98 301.074 310.98 299.168C310.98 297.262 296.634 295.717 278.939 295.717C261.243 295.717 246.898 297.262 246.898 299.168C246.898 301.074 261.243 302.618 278.939 302.618Z" fill="#4C3773"/>
<path d="M209.627 302.618C227.323 302.618 241.668 301.074 241.668 299.168C241.668 297.262 227.323 295.717 209.627 295.717C191.931 295.717 177.586 297.262 177.586 299.168C177.586 301.074 191.931 302.618 209.627 302.618Z" fill="#4C3773"/>
<path d="M140.315 302.618C158.011 302.618 172.356 301.074 172.356 299.168C172.356 297.262 158.011 295.717 140.315 295.717C122.62 295.717 108.275 297.262 108.275 299.168C108.275 301.074 122.62 302.618 140.315 302.618Z" fill="#4C3773"/>
<path d="M53.8022 313.057C83.038 313.057 106.738 310.505 106.738 307.357C106.738 304.209 83.038 301.657 53.8022 301.657C24.5663 301.657 0.866028 304.209 0.866028 307.357C0.866028 310.505 24.5663 313.057 53.8022 313.057Z" fill="#4C3773"/>
<path d="M270.247 199.886L269.212 202.581L263.2 218.195L268.521 220.821L276.742 206.727L274.739 203.479L270.247 199.886Z" fill="#FFA526"/>
<path d="M276.742 181.784L270.316 184.755C270.316 184.755 266.93 189.453 268.105 195.879C269.279 202.305 274.102 194.705 274.102 194.705L272.299 188.349L276.741 184.688V181.786L276.742 181.784Z" fill="#FFCB49"/>
<path d="M271.63 188.002L265.343 198.458C265.343 198.458 265.965 205.205 273.288 204.03L275.982 217.019H288.764C288.764 217.019 290.63 205.412 295.051 192.63L292.771 185.445L287.369 184.271L278.654 185.376L276.744 187.386V184.685L274.103 184.823L270.958 186.549L271.631 188.001L271.63 188.002Z" fill="#FFCB49"/>
<path d="M277.226 184.686C277.226 184.686 274.185 186.69 275.083 189.247C275.981 191.803 283.95 191.948 286.944 185.105C289.939 178.262 276.12 183.443 276.12 183.443L277.226 184.686Z" fill="#FFAD97"/>
<path d="M276.328 173.77L279.581 182.06L284.273 177.916L281.617 170.573L278.125 173.217L276.742 173.839L276.328 173.77Z" fill="#FFAD97"/>
<path d="M277.789 177.491L283.54 177.156L281.806 171.093L272.873 172.319L276.742 174.826L277.789 177.491Z" fill="#FD988E"/>
<path d="M272.857 214.733L271.438 207.727L289.704 207.31L288.871 214.733L276.025 213.899L272.857 214.733Z" fill="#FF5F4D"/>
<path d="M267.172 240.949V297.33L299.7 296.496L295.529 239.448L267.172 240.949Z" fill="#CCC5F8"/>
<path d="M295.766 242.685L295.529 239.448L267.172 240.949V250.236L295.766 242.685Z" fill="#A99CF8"/>
<path d="M266.099 217.151C266.099 217.151 271.079 213.144 281.396 212.648C289.868 212.239 295.873 216.234 295.873 216.234L278.025 217.942H268.934L266.098 217.153L266.099 217.151Z" fill="#7268C4"/>
<path d="M257.474 219.36L258.978 240.096C259.088 241.624 260.395 242.786 261.926 242.72L302.245 240.954C303.731 240.89 304.913 239.685 304.952 238.199L305.473 218.131C305.515 216.51 304.19 215.186 302.569 215.228L260.225 216.325C258.61 216.367 257.358 217.749 257.474 219.36Z" fill="#F9F7FF"/>
<path d="M260.73 221.327L262.193 237.959C262.247 238.58 262.771 239.054 263.395 239.046L300.401 238.574C301.041 238.566 301.559 238.055 301.577 237.416L302.067 219.167C302.086 218.472 301.507 217.909 300.813 217.945L261.853 220.033C261.181 220.07 260.672 220.656 260.73 221.327Z" fill="#50C7CF"/>
<g style="mix-blend-mode:screen">
<path d="M271.519 225.711V223.749H275.161V231.249H276.596V233.226H271.398V231.249H272.806V225.711H271.519Z" fill="#6FDCE3"/>
<path d="M279.981 226.985C282.188 226.85 284.327 227.297 284.34 230.113C284.354 231.737 283.202 233.416 281.01 233.416C279.209 233.416 277.895 232.252 277.814 230.33H279.9C279.913 230.952 280.32 231.278 280.956 231.278C281.592 231.278 282.025 230.885 282.038 230.114C282.011 229.546 281.713 229.247 281.185 229.099C280.224 228.815 278.681 229.018 277.976 229.031V223.751H283.878V225.809H279.98V226.986L279.981 226.985Z" fill="#6FDCE3"/>
<path d="M293.06 226.835V230.152C293.06 232.223 291.461 233.415 289.498 233.415C287.536 233.415 285.966 232.223 285.966 230.152V226.835C285.966 224.764 287.576 223.572 289.498 223.572C291.421 223.572 293.06 224.762 293.06 226.835ZM290.771 230.098V226.875C290.771 226.13 290.217 225.739 289.498 225.739C288.78 225.739 288.266 226.131 288.266 226.875V230.098C288.266 230.87 288.807 231.261 289.498 231.261C290.19 231.261 290.771 230.869 290.771 230.098Z" fill="#6FDCE3"/>
</g>
<path d="M269.516 297.553C269.516 297.553 266.43 252.991 283.28 250.334C300.131 247.677 294.8 297.553 294.8 297.553H269.516Z" fill="#C2BAF2"/>
<path d="M260.861 295.718L261.417 299.388H305.566L306.01 295.718H260.861Z" fill="#7268C4"/>
<path d="M279.809 277.191C279.839 278.602 280.758 279.306 282.233 279.306C283.707 279.306 284.563 278.172 284.595 276.73C284.563 273.632 281.496 273.755 279.165 273.847V273.111L282.018 267.16H275.822V262.283H289.471V263.081L285.515 270.321C288.919 271.179 289.901 273.94 289.901 276.701C289.933 280.351 287.325 284.185 282.356 284.185C280.73 284.185 279.564 283.848 278.522 283.264C276.497 282.129 274.995 279.952 274.995 277.191H279.811H279.809Z" fill="#A79DDE"/>
<path d="M286.735 203.172L285.122 202.967L283.565 203.104C283.565 203.104 281.278 197.133 279.051 197.052C276.825 196.971 271.033 201.297 271.974 204.889C272.915 208.481 275.329 207.854 275.329 207.854C275.329 207.854 274.966 209.031 276.479 209.227C277.992 209.422 280.097 205.769 280.097 205.769C280.097 205.769 281.018 207.561 285.06 206.996L286.928 205.375L287.494 204.076L286.734 203.172H286.735Z" fill="#FFAD97"/>
<path d="M287.244 179.643C287.244 179.643 293.116 179.16 295.465 180.68C297.814 182.2 311.621 197.73 310.98 200.646C309.859 205.736 289.87 208.384 284.688 206.864L285.103 202.857C285.103 202.857 291.873 202.789 297.608 198.297C297.608 198.297 296.225 196.155 291.459 192.425L287.037 186.207L284.688 181.025L287.245 179.643H287.244Z" fill="#FFCB49"/>
<path d="M266.378 163.061C266.378 163.061 259.746 163.89 261.335 155.668C262.924 147.447 274.019 145.204 274.917 147C275.815 148.797 276.741 150.637 278.206 151.998C278.206 151.998 282.476 146.661 289.552 149.632C296.629 152.604 298.781 169.071 293.116 178.329C287.45 187.588 279.506 189.039 276.189 185.86C272.872 182.682 274.806 177.735 277.709 178.688C277.709 178.688 276.88 180.125 278.123 180.816C279.367 181.507 282.959 178.121 281.024 170.107L280.058 166.001L277.086 161.263L273.425 158.568L269.902 158.085L266.378 163.06V163.061Z" fill="#FF5E4C"/>
<path d="M271.215 154.839C271.215 154.839 262.026 161.955 261.819 172.25L265.274 171.076C265.274 171.076 264.568 177.614 268.519 178.575C272.614 179.57 278.462 178.076 281.918 169.452C283.301 166.004 284.551 157.396 284.551 157.396L273.358 156.43L271.215 154.841V154.839Z" fill="#FFAD97"/>
<path d="M273.495 152.628L271.215 154.839C271.215 154.839 268.59 166.182 280.059 166.002L282.616 167.551L288.489 167.068L292.15 160.089L284.757 154.494L279.091 155.876L274.102 153.181L273.494 152.629L273.495 152.628Z" fill="#FF5E4C"/>
<path d="M279.714 167.552L280.059 166.004C280.059 166.004 281.994 163.062 283.168 164.028C284.343 164.995 282.616 171.836 279.714 171.352C276.812 170.869 277.779 168.866 277.779 168.866L279.714 167.553V167.552Z" fill="#FFAD97"/>
<path d="M226.413 141.991C226.413 141.991 232.824 152.046 236.265 161.763L227.223 172.493L231.002 181.063L234.216 179.93C234.216 179.93 243.283 172.56 247.67 162.168C247.67 162.168 239.168 146.242 227.425 140.44L226.413 141.992V141.991Z" fill="#FFAD97"/>
<path d="M204.178 179.42L203.2 178.768C203.2 178.768 196.294 179.511 191.885 180.77C187.476 182.03 180.009 192.017 180.009 192.017L190.716 199.485L194.151 221.327L205.202 213.79L211.5 214.689L213.928 211.269C213.928 211.269 217.257 197.143 223.015 191.295C228.773 185.446 234.711 180.767 234.711 180.767L228.053 169.521C228.053 169.521 222.88 176.449 214.939 177.483L205.92 180.316L204.177 179.417L204.178 179.42Z" fill="#F2F0FF"/>
<path d="M207.113 170.468L205.773 172.771L203.2 178.768C203.2 178.768 198.808 183.23 202.39 185.314C206.101 187.474 213.12 181.13 214.941 177.487L212.713 177.014L215.817 166.689L209.338 167.027C209.338 167.027 207.921 168.377 207.583 169.052C207.246 169.727 207.111 170.469 207.111 170.469L207.113 170.468Z" fill="#FFAD97"/>
<path d="M207.586 169.05C207.248 169.725 207.113 170.468 207.113 170.468L205.771 172.771L204.177 176.486C206.556 176.106 211.674 174.538 215.398 168.081L215.817 166.688L209.338 167.025C209.338 167.025 207.921 168.375 207.583 169.05H207.586Z" fill="#FD988E"/>
<path d="M202.158 152.101C202.158 152.101 196.774 156.289 195.128 165.636H198.12C198.12 165.636 195.876 170.796 200.737 172.89C205.599 174.984 212.926 171.394 216.292 166.683C216.292 166.683 215.973 164.739 217.169 164.514C218.366 164.29 220.63 161.598 218.834 159.281C216.085 155.731 215.918 157.112 215.918 157.112C215.918 157.112 216.816 150.905 216.366 150.905C215.917 150.905 210.235 149.035 209.785 149.035C209.335 149.035 205.672 148.063 204.999 148.287C204.326 148.512 200.438 152.101 200.438 152.101H202.158Z" fill="#FFAD97"/>
<path d="M218.309 144.428C218.309 144.428 218.907 142.68 217.337 141.558C217.337 141.558 220.777 140.838 223.394 142.993C226.012 145.147 225.04 149.858 223.394 151.503C223.394 151.503 226.834 152.999 226.31 157.561C225.787 162.122 221.599 164.142 220.477 163.916C219.355 163.692 217.337 160.878 217.337 160.878C217.337 160.878 214.071 165.936 213.373 165.487C212.675 165.038 212.327 163.543 213.373 162.944C213.373 162.944 211.953 162.175 212.476 160.878C212.999 159.579 213.971 160.402 213.971 160.402C213.971 160.402 211.653 157.86 213.373 156.589C213.373 156.589 209.709 158.234 209.56 155.915C209.41 153.597 210.681 152.849 210.681 152.849C210.681 152.849 207.092 153.821 207.391 152.699C207.691 151.577 208.071 150.979 208.071 150.979C208.071 150.979 202.904 155.541 202.53 153.821C202.53 153.821 200.586 157.015 198.94 155.83C197.295 154.643 198.94 152.849 198.94 152.849C198.94 152.849 197.329 152.923 198.209 151.429C199.089 149.933 199.85 149.409 199.85 149.409C199.85 149.409 197.85 150.007 198.319 148.288C198.789 146.568 202.081 144.922 203.352 144.922C203.352 144.922 202.456 141.88 207.166 140.884C211.054 140.062 215.242 142.138 218.308 144.428H218.309Z" fill="#31193B"/>
<path d="M214.271 165.515C214.271 165.515 215.917 158.607 218.833 159.281C221.749 159.954 218.907 166.01 216.291 166.684C213.673 167.358 214.645 166.086 214.645 166.086L214.271 165.516V165.515Z" fill="#FFAD97"/>
<path d="M228.303 143.243L227.425 140.439C227.425 140.439 229.518 132.925 229.279 130.938C228.947 128.175 227.425 133.936 227.425 133.936C227.425 133.936 227.943 127.841 226.728 127.795C225.513 127.75 225.513 132.383 225.513 132.383C225.513 132.383 225.287 128.2 224.298 128.514C223.308 128.829 223.937 133.148 223.937 133.148C223.937 133.148 223.397 129.413 222.543 130.133C221.688 130.852 223.038 136.747 223.038 136.747C223.038 136.747 221.778 134.587 220.878 134.857C219.978 135.127 222.586 140.573 226.41 141.989C230.235 143.405 228.3 143.24 228.3 143.24L228.303 143.243Z" fill="#FFAD97"/>
<path d="M203.031 214.733L201.613 207.727L219.879 207.31L219.045 214.733L206.201 213.899L203.031 214.733Z" fill="#FF5F4D"/>
<path d="M197.181 240.949V297.33L229.71 296.496L225.54 239.448L197.181 240.949Z" fill="#CCC5F8"/>
<path d="M225.776 242.685L225.54 239.448L197.181 240.949V250.236L225.776 242.685Z" fill="#A99CF8"/>
<path d="M196.11 217.151C196.11 217.151 201.09 213.144 211.406 212.648C219.879 212.239 225.884 216.234 225.884 216.234L208.035 217.942H198.945L196.108 217.153L196.11 217.151Z" fill="#7268C4"/>
<path d="M187.483 219.36L188.987 240.096C189.098 241.624 190.404 242.786 191.935 242.72L232.254 240.954C233.741 240.89 234.922 239.685 234.961 238.199L235.482 218.131C235.524 216.51 234.2 215.186 232.578 215.228L190.234 216.325C188.62 216.367 187.367 217.749 187.483 219.36Z" fill="#F9F7FF"/>
<path d="M190.741 221.327L192.204 237.959C192.258 238.58 192.782 239.054 193.405 239.046L230.412 238.574C231.052 238.566 231.57 238.055 231.588 237.416L232.078 219.167C232.096 218.472 231.517 217.909 230.823 217.945L191.864 220.033C191.192 220.07 190.683 220.656 190.741 221.327Z" fill="#50C7CF"/>
<g style="mix-blend-mode:screen">
<path d="M201.503 226.985C203.71 226.85 205.848 227.297 205.862 230.113C205.875 231.737 204.725 233.416 202.532 233.416C200.731 233.416 199.417 232.252 199.336 230.33H201.422C201.435 230.952 201.842 231.278 202.478 231.278C203.113 231.278 203.547 230.885 203.56 230.114C203.533 229.546 203.235 229.247 202.707 229.099C201.746 228.815 200.203 229.018 199.498 229.031V223.751H205.4V225.809H201.501V226.986L201.503 226.985Z" fill="#6FDCE3"/>
<path d="M214.582 226.835V230.152C214.582 232.223 212.983 233.415 211.02 233.415C209.057 233.415 207.487 232.223 207.487 230.152V226.835C207.487 224.764 209.098 223.572 211.02 223.572C212.943 223.572 214.582 224.762 214.582 226.835ZM212.293 230.098V226.875C212.293 226.13 211.739 225.739 211.02 225.739C210.302 225.739 209.788 226.131 209.788 226.875V230.098C209.788 230.87 210.329 231.261 211.02 231.261C211.712 231.261 212.293 230.869 212.293 230.098Z" fill="#6FDCE3"/>
<path d="M223.477 226.835V230.152C223.477 232.223 221.878 233.415 219.915 233.415C217.953 233.415 216.383 232.223 216.383 230.152V226.835C216.383 224.764 217.993 223.572 219.915 223.572C221.838 223.572 223.477 224.762 223.477 226.835ZM221.188 230.098V226.875C221.188 226.13 220.634 225.739 219.915 225.739C219.197 225.739 218.683 226.131 218.683 226.875V230.098C218.683 230.87 219.224 231.261 219.915 231.261C220.607 231.261 221.188 230.869 221.188 230.098Z" fill="#6FDCE3"/>
</g>
<path d="M199.557 297.553C199.557 297.553 196.471 252.991 213.322 250.334C230.173 247.677 224.842 297.553 224.842 297.553H199.557Z" fill="#C2BAF2"/>
<path d="M190.872 295.718L191.428 299.388H235.575L236.021 295.718H190.872Z" fill="#7268C4"/>
<path d="M213.171 266.852C211.942 266.852 211.053 267.436 211.053 268.938H206.392C206.33 264.306 209.46 262.037 213.264 261.945C219.428 261.791 222.128 267.896 218.939 272.836L214.614 278.847H220.993V283.756H205.901V282.928L213.969 271.117C215.043 269.675 215.869 266.854 213.172 266.854L213.171 266.852Z" fill="#F9F7FF"/>
<path d="M181.932 193.357L177.309 202.903C177.309 202.903 187.749 210.354 204.5 206.93L204.949 203.601L190.715 199.484L181.93 193.357H181.932Z" fill="#FFAD97"/>
<path d="M201.352 204.118L204.951 203.601C204.951 203.601 211.946 201.217 214.442 202.094C216.939 202.972 219.774 204.591 220.921 206.481C221.442 207.338 222.609 209.584 222.069 209.989C221.529 210.394 220.111 209.044 220.111 209.044C220.111 209.044 222.136 210.597 221.326 211.405C220.516 212.215 218.695 210.055 218.695 210.055C218.695 210.055 219.91 211.498 218.83 211.586C217.75 211.674 213.769 208.435 213.769 208.435C213.769 208.435 209.811 209.469 204.501 206.929L203.377 205.062L201.352 204.117V204.118Z" fill="#FFAD97"/>
<path d="M105.581 194.243L101.546 207.406C101.546 207.406 106.875 223.068 123.536 231.658L125.075 229.731C125.075 229.731 114.64 212.443 112.798 206.106L118.344 196.644L112.069 195.918L109.402 194.241H105.581V194.243Z" fill="#FFAD97"/>
<path d="M159.809 196.645L155.178 192.875L157.455 188.636L160.439 186.186L161.537 185.338L172.53 194.525L159.809 196.645Z" fill="#FFAD97"/>
<path d="M128.089 177.412L126.911 178.585C126.911 178.585 120.08 177.958 116.155 179.371C112.229 180.784 101.707 195.31 101.707 195.31L116.155 205.361L120.551 198.374L127.222 224.026L145.965 221.723L153.93 219.42L152.665 192.643L157.377 196.019L166.72 185.341C166.72 185.341 155.963 177.333 148.112 176.703C140.26 176.076 136.256 176.86 136.256 176.86L133.194 179.687L128.09 177.415L128.089 177.412Z" fill="#31193B"/>
<path d="M136.333 186.044C144.602 184.882 141.759 179.077 139.333 176.539C137.289 176.657 136.253 176.859 136.253 176.859L133.192 179.686L128.087 177.414L126.91 178.587C126.91 178.587 125.139 178.425 122.883 178.451C123.926 180.592 127.879 187.234 136.333 186.046V186.044Z" fill="#5B2E6E"/>
<path d="M128.01 166.886L123.497 169.026L126.91 178.587C126.91 178.587 129.385 184.91 136.253 183.22C141.358 181.963 136.253 176.86 136.253 176.86L132.72 168.066L128.009 166.889L128.01 166.886Z" fill="#FFAD97"/>
<path d="M136.255 176.858L133.007 168.773L126.267 167.711L123.497 169.025L124.502 171.837C126.68 173.633 130.71 176.233 136.491 177.109C136.346 176.949 136.255 176.858 136.255 176.858Z" fill="#FD988E"/>
<path d="M135.977 148.26C135.977 148.26 142.002 150.742 144.66 161.197L141.027 162.527C141.027 162.527 143.33 168.375 140.407 171.299C137.483 174.223 129.154 175.021 122.952 168.73L122.597 160.579L127.115 149.591L135.975 148.262L135.977 148.26Z" fill="#FFAD97"/>
<path d="M132.876 137.45C132.876 137.45 138.813 136.202 141.648 140.769C144.483 145.336 141.028 154.175 133.452 156.09C125.876 158.006 125.433 156.09 125.433 156.09L122.952 168.728C122.952 168.728 119.585 170.766 114.535 168.728C109.484 166.689 110.016 159.513 115.154 157.563C115.154 157.563 109.395 155.703 111.698 150.208C114.001 144.715 118.964 143.828 125.61 143.917C132.256 144.007 138.458 140.727 132.876 137.45Z" fill="#C43B71"/>
<path d="M120.292 152.779C120.292 152.779 124.989 157.12 131.102 157.031C137.216 156.942 140.446 151.149 140.446 151.149L138.012 144.715L123.924 146.842L122.594 149.975L120.29 152.779H120.292Z" fill="#C43B71"/>
<path d="M127.47 152.513C127.47 152.513 126.794 159.359 124.341 161.651C121.888 163.943 121.977 160.88 121.977 160.88L123.129 153.463L125.698 153.035L127.47 152.513Z" fill="#C43B71"/>
<path d="M124.812 162.26C124.812 162.26 122.331 158.627 120.294 159.957C118.255 161.286 121.534 168.64 122.952 168.729C124.369 168.818 125.699 164.934 125.699 164.934L124.813 162.261L124.812 162.26Z" fill="#FFAD97"/>
<path d="M172.53 194.525C172.53 194.525 165.543 210.228 141.201 213.369L140.73 210.229C140.73 210.229 149.838 203.084 159.809 196.646C163.338 194.402 167.637 193.821 172.529 194.526L172.53 194.525Z" fill="#FFAD97"/>
<path d="M133.042 214.733L131.624 207.727L149.89 207.31L149.055 214.733L136.211 213.899L133.042 214.733Z" fill="#FF5F4D"/>
<path d="M127.192 240.949V297.33L159.719 296.496L155.549 239.448L127.192 240.949Z" fill="#CCC5F8"/>
<path d="M155.786 242.685L155.549 239.448L127.192 240.949V250.236L155.786 242.685Z" fill="#A99CF8"/>
<path d="M126.119 217.151C126.119 217.151 131.099 213.144 141.416 212.648C149.888 212.239 155.893 216.234 155.893 216.234L138.045 217.942H128.954L126.118 217.153L126.119 217.151Z" fill="#7268C4"/>
<path d="M117.492 219.36L118.996 240.096C119.107 241.624 120.414 242.786 121.945 242.72L162.264 240.954C163.75 240.89 164.931 239.685 164.97 238.199L165.492 218.131C165.533 216.51 164.209 215.186 162.588 215.228L120.244 216.325C118.629 216.367 117.376 217.749 117.492 219.36Z" fill="#F9F7FF"/>
<path d="M120.75 221.327L122.213 237.959C122.267 238.58 122.791 239.054 123.415 239.046L160.421 238.574C161.061 238.566 161.579 238.055 161.597 237.416L162.087 219.167C162.106 218.472 161.527 217.909 160.833 217.945L121.873 220.033C121.201 220.07 120.692 220.656 120.75 221.327Z" fill="#50C7CF"/>
<g style="mix-blend-mode:screen">
<path d="M131.518 230.328C131.531 230.951 131.937 231.263 132.587 231.263C133.236 231.263 133.615 230.762 133.629 230.126C133.615 228.758 132.261 228.812 131.233 228.853V228.528L132.492 225.902H129.757V223.749H135.782V224.101L134.035 227.296C135.538 227.676 135.971 228.893 135.971 230.112C135.985 231.723 134.833 233.416 132.641 233.416C131.923 233.416 131.408 233.267 130.948 233.01C130.054 232.509 129.391 231.547 129.391 230.328H131.518Z" fill="#6FDCE3"/>
<path d="M144.691 226.835V230.152C144.691 232.223 143.092 233.415 141.13 233.415C139.167 233.415 137.597 232.223 137.597 230.152V226.835C137.597 224.764 139.207 223.572 141.13 223.572C143.052 223.572 144.691 224.762 144.691 226.835ZM142.403 230.098V226.875C142.403 226.13 141.848 225.739 141.13 225.739C140.411 225.739 139.897 226.131 139.897 226.875V230.098C139.897 230.87 140.438 231.261 141.13 231.261C141.821 231.261 142.403 230.869 142.403 230.098Z" fill="#6FDCE3"/>
<path d="M153.586 226.835V230.152C153.586 232.223 151.988 233.415 150.025 233.415C148.062 233.415 146.492 232.223 146.492 230.152V226.835C146.492 224.764 148.102 223.572 150.025 223.572C151.947 223.572 153.586 224.762 153.586 226.835ZM151.298 230.098V226.875C151.298 226.13 150.743 225.739 150.025 225.739C149.306 225.739 148.792 226.131 148.792 226.875V230.098C148.792 230.87 149.333 231.261 150.025 231.261C150.716 231.261 151.298 230.869 151.298 230.098Z" fill="#6FDCE3"/>
</g>
<path d="M129.391 297.553C129.391 297.553 126.305 252.991 143.156 250.334C160.007 247.677 154.675 297.553 154.675 297.553H129.391Z" fill="#C2BAF2"/>
<path d="M120.881 295.718L121.437 299.388H165.586L166.03 295.718H120.881Z" fill="#7268C4"/>
<path d="M136.885 266.731V262.283H145.135V279.278H148.387V283.756H136.608V279.278H139.798V266.732H136.886L136.885 266.731Z" fill="#A79DDE"/>
<path d="M166.114 142.138L172.842 139.827L175.572 159.35L173.312 160.219L166.114 142.138Z" fill="#FF5E4C"/>
<path d="M178.245 163.32C178.021 161.956 176.736 161.033 175.372 161.257C174.009 161.481 173.085 162.766 173.309 164.13C173.533 165.493 174.819 166.417 176.182 166.193C177.546 165.969 178.469 164.683 178.245 163.32Z" fill="#FF5E4C"/>
<path d="M97.751 144.38C98.058 143.381 97.4969 142.322 96.4977 142.015C95.4985 141.708 94.4396 142.269 94.1326 143.268C93.8255 144.268 94.3867 145.327 95.3859 145.634C96.3851 145.941 97.444 145.379 97.751 144.38Z" fill="#FF5E4C"/>
<path d="M101.791 145.711C102.835 145.667 103.646 144.784 103.601 143.739C103.556 142.695 102.674 141.885 101.629 141.929C100.585 141.974 99.7746 142.857 99.8193 143.901C99.8639 144.946 100.747 145.756 101.791 145.711Z" fill="#FF5E4C"/>
<path d="M109.008 144.934C109.618 144.085 109.424 142.903 108.575 142.293C107.726 141.683 106.543 141.877 105.933 142.726C105.324 143.575 105.518 144.758 106.367 145.367C107.215 145.977 108.398 145.783 109.008 144.934Z" fill="#FF5E4C"/>
<path d="M174.393 129.54L182.703 128.108L182.206 151.466L179.398 152.056L174.393 129.54Z" fill="#FF5E4C"/>
<path d="M184.567 156.845C184.691 155.213 183.468 153.789 181.836 153.664C180.203 153.54 178.779 154.763 178.655 156.396C178.53 158.028 179.753 159.452 181.386 159.576C183.018 159.701 184.443 158.478 184.567 156.845Z" fill="#FF5E4C"/>
<path d="M200.142 165.318L208.401 164.291C208.401 164.291 207.801 168.962 203.301 169.446C198.803 169.931 200.142 165.318 200.142 165.318Z" fill="#F9F7FF"/>
<path d="M131.634 169.131C131.634 169.131 135.048 164.437 140.09 163.834L131.634 169.131Z" fill="#F9F7FF"/>
<path d="M266.496 171.678L275.417 169.761C275.417 169.761 269.096 174.137 266.496 171.678Z" fill="#F9F7FF"/>
<path d="M65.6214 151.579C65.6214 151.579 66.5947 153.468 69.4851 152.527C72.3754 151.586 64.0352 148.579 65.6214 151.579Z" fill="#FD988E"/>
<path d="M70.7015 147.104L71.6762 150.78L71.1888 151.694L69.7268 153.029L67.8881 150.666L68.2634 146.917L70.1007 145.947L70.7015 147.104Z" fill="#FD988E"/>
<path d="M30.3972 297.242L30.8927 302.596C30.8927 302.596 21.9678 303.489 12.6475 307.357H35.2559L35.7108 295.556L31.1897 296.35L30.3959 297.242H30.3972Z" fill="#31193B"/>
<path d="M76.0123 295.159L79.0863 307.357H101.993C101.993 307.357 98.8192 302.498 83.0526 302.596L79.7802 292.681L76.0123 295.159Z" fill="#31193B"/>
<path d="M45.613 219.292L40.9529 220.472C40.9529 220.472 37.1324 223.763 34.0625 230.903C30.9912 238.043 17.475 298.73 17.475 298.73H45.8668C45.8668 298.73 36.0051 257.875 47.3896 229.714C47.3896 229.714 65.6997 256.092 70.4584 298.73C70.4584 298.73 93.0668 295.755 103.578 290.202C103.578 290.202 70.26 258.767 58.2612 227.086L55.9635 224.354L51.576 222.822L45.613 219.292Z" fill="#F9F7FF"/>
<path d="M59.834 230.955C59.2778 229.667 58.7499 228.376 58.2612 227.084L55.9635 224.353L51.576 222.821L48.17 220.804L46.8888 220.565L44.6397 219.537L40.9543 220.469C40.9543 220.469 40.7869 220.617 40.5034 220.899L59.8353 230.952L59.834 230.955Z" fill="#E6E7E8"/>
<path d="M55.2872 177.851C55.2872 177.851 67.1861 170.187 82.3587 164.798L68.8236 153.011L71.799 149.442C71.799 149.442 94.2589 157.195 99.019 171.167L73.2867 181.124C73.2867 181.124 81.1707 205.071 58.2639 227.086L39.9688 220.096C39.9688 220.096 45.5712 209.51 41.8034 193.756L44.4831 185.885L53.9507 181.274L55.2899 177.853L55.2872 177.851Z" fill="#F9F7FF"/>
<path d="M47.3896 148.254C47.3896 148.254 50.1558 144.533 49.4119 138.508C48.6681 132.484 42.6444 128.914 36.7692 130.401C36.7692 130.401 39.0008 131.815 36.992 134.937C34.9845 138.061 22.713 142.97 19.3664 151.895C16.0197 160.82 25.0931 162.021 25.0931 162.021C25.0931 162.021 22.6388 167.587 27.4731 171.455C32.3075 175.323 41.802 171.976 41.802 171.976L39.372 157.102L44.4817 151.694L47.3896 148.255V148.254Z" fill="#FF5E4C"/>
<path d="M51.4194 168.333L56.328 177.406L62.3949 192.226L54.0128 189.293L46.5108 180.38L38.3177 168.63L46.5851 169.151L51.4194 168.333Z" fill="#FFAD97"/>
<path d="M54.2571 173.577L51.4194 168.331L46.5851 169.149L38.3177 168.628L41.9532 173.843C44.7518 174.71 49.0245 175.273 54.2571 173.576V173.577Z" fill="#FD988E"/>
<path d="M42.0977 144.433C42.0977 144.433 52.3118 147.11 56.3766 156.035L53.9966 157.523C53.9966 157.523 58.6568 160.697 56.1782 165.257C53.6996 169.819 45.2702 173.488 37.3376 168.926C29.405 164.365 32.6774 154.449 32.9744 154.25C33.2714 154.052 37.4361 148.598 37.7345 148.598C38.0328 148.598 42.0977 144.433 42.0977 144.433Z" fill="#FFAD97"/>
<path d="M33.9666 162.383C33.9666 162.383 30.7928 160.995 30.0989 163.672C29.405 166.349 35.6514 168.531 37.6346 167.143C39.6177 165.755 36.6423 163.474 36.6423 163.474L33.9653 162.383H33.9666Z" fill="#FFAD97"/>
<path d="M41.8007 165.01L52.1632 160.25C52.1632 160.25 54.7417 163.819 50.7255 166.199C46.7093 168.58 41.8007 165.01 41.8007 165.01Z" fill="#F9F7FF"/>
<path d="M29.108 159.853L32.3264 162.024C32.3264 162.024 40.5857 159.655 42.0977 144.433L36.2468 142.673L29.1066 150.928L27.0992 155.54L29.1066 159.853H29.108Z" fill="#FF5E4C"/>
<path d="M45.3849 178.765L42.0977 182.125L45.7642 182.692L42.0977 187.492L52.4386 190.417L54.0127 189.292L45.3849 178.765Z" fill="#E6E7E8"/>
<path d="M55.2737 175.455L61.3014 174.336L59.3385 177.386L64.1202 178.229L64.5131 192.967L62.3949 192.226L55.2737 175.455Z" fill="#E6E7E8"/>
<path d="M49.501 189.382C49.501 189.382 55.2183 186.309 61.7671 188.26C68.316 190.211 67.0335 195.948 67.0335 195.948L55.2102 192.573L49.4997 189.38L49.501 189.382Z" fill="#A2A2A3"/>
<path d="M36.5451 212.914L47.3896 186.975L69.4918 194.709L55.6719 220.087L36.5451 212.914Z" fill="#FFCB49"/>
<path d="M50.8241 203.138H53.948C53.948 203.138 59.8475 201.452 63.0213 203.138C66.1951 204.824 66.1951 207.798 65.4013 207.401C64.6075 207.004 63.8151 207.004 63.8151 207.004C63.8151 207.004 65.5998 207.6 65.0044 209.088C64.4091 210.575 62.7243 209.088 62.7243 209.088C62.7243 209.088 64.9059 210.575 63.9136 211.269C62.9214 211.963 61.3352 210.872 61.3352 210.872C61.3352 210.872 62.8229 212.558 62.6244 212.805C62.426 213.054 58.2045 213.449 52.9773 206.558L50.3286 204.525L50.8241 203.137V203.138Z" fill="#FFAD97"/>
<path d="M42.0977 182.125L35.1587 183.901C35.1587 183.901 16.6138 196.593 17.5061 212.807L52.9773 206.559L53.948 203.138C53.948 203.138 48.7221 199.628 32.8326 201.561C34.9764 198.473 36.9218 195.712 41.8007 193.754L44.4804 188.165L42.0977 187.492L45.7629 182.691L42.0977 182.124V182.125Z" fill="#F9F7FF"/>
<path d="M61.9724 188.732C60.6818 188.732 59.6328 187.682 59.6328 186.393C59.6328 185.104 60.6831 184.053 61.9724 184.053C63.2616 184.053 64.3119 185.104 64.3119 186.393C64.3119 187.682 63.2616 188.732 61.9724 188.732ZM61.9724 184.457C60.9059 184.457 60.0378 185.325 60.0378 186.391C60.0378 187.458 60.9059 188.326 61.9724 188.326C63.0389 188.326 63.9069 187.458 63.9069 186.391C63.9069 185.325 63.0389 184.457 61.9724 184.457Z" fill="#A2A2A3"/>
<path d="M60.6818 151.634L74.2843 141.139L75.8544 142.894L62.7729 156.019L60.6723 152.547L60.6818 151.634Z" fill="#31193B"/>
<path d="M62.1114 157.744C64.5375 157.744 66.5043 155.778 66.5043 153.351C66.5043 150.925 64.5375 148.958 62.1114 148.958C59.6853 148.958 57.7185 150.925 57.7185 153.351C57.7185 155.778 59.6853 157.744 62.1114 157.744Z" fill="#31193B"/>
<path d="M67.8246 150.8C68.2377 149.412 67.3751 148.663 67.3751 148.663C67.3751 148.663 68.4065 150.95 69.6903 150.35C70.9742 149.751 69.099 148.063 69.099 148.063C69.099 148.063 70.1993 149.951 71.0417 149.106C71.8841 148.261 69.8496 146.338 69.8496 146.338C69.8496 146.338 71.6316 148.869 72.1284 148.016C72.6252 147.163 68.6603 141.609 65.3123 143.857C61.6754 146.3 67.4129 152.188 67.8246 150.8Z" fill="#FFAD97"/>
<path d="M296.286 163.495C296.221 162.473 296.109 161.466 295.945 160.49C285.074 157.541 281.658 152.979 280.613 150.033C279.052 150.944 278.206 151.999 278.206 151.999C278.156 151.953 278.113 151.902 278.064 151.856C278.053 154.503 278.858 157.84 282.096 160.677C286.996 164.967 293.381 164.169 296.284 163.497L296.286 163.495Z" fill="#FF7B6B"/>
<path d="M225.693 159.813C225.923 159.304 226.098 158.741 226.215 158.132C217.164 155.356 216.139 147.067 216.21 143.023C215.443 142.565 214.638 142.144 213.808 141.792C212.341 144.076 211.216 147.613 213.569 151.983C216.513 157.453 222.382 159.235 225.693 159.813Z" fill="#41214F"/>
<path d="M135.037 140.041C135.046 140.675 134.675 141.27 134.023 141.794C135.057 144.103 134.973 147.036 129.391 148.579C123.497 150.209 118.212 148.134 114.837 146.132C114.325 146.498 113.853 146.921 113.422 147.407C115.721 150.631 121.962 156.451 134.213 152.149C143.291 148.96 136.784 141.632 135.037 140.041Z" fill="#D9417D"/>
<path d="M35.7122 152.788C40.7396 145.662 38.3555 139.48 36.0308 135.992C35.3032 136.64 34.2988 137.357 33.1337 138.154C34.2475 141.7 34.9265 147.033 30.9049 150.763C27.1816 154.218 22.2149 155.15 18.6347 155.314C18.5834 157.154 19.2058 158.502 20.086 159.482C24.1657 160.17 30.7253 159.857 35.7122 152.787V152.788Z" fill="#FF7B6B"/>
<path d="M282.447 120.444C282.447 120.444 287.571 113.325 294.264 115.832C300.4 118.13 298.664 126.09 294.628 127.901C292.104 129.035 285.011 129.863 287.888 137.535L284.621 138.284C284.621 138.284 280.95 130.481 287.278 127.306C293.605 124.131 294.975 120.626 292.379 119.727C289.187 118.62 287.596 124.628 287.596 124.628L282.449 120.444H282.447Z" fill="#FF5E4C"/>
<path d="M287.622 143.594C288.602 143.361 289.208 142.378 288.975 141.398C288.743 140.418 287.76 139.812 286.78 140.045C285.8 140.277 285.194 141.26 285.426 142.24C285.659 143.22 286.642 143.826 287.622 143.594Z" fill="#FF5E4C"/>
<path d="M294.569 141.084C294.179 140.155 293.108 139.721 292.181 140.111C291.252 140.501 290.817 141.572 291.208 142.499C291.599 143.428 292.668 143.863 293.596 143.472C294.524 143.082 294.959 142.012 294.569 141.084Z" fill="#FF5E4C"/>
<path d="M298.996 143.595C299.976 143.362 300.582 142.379 300.35 141.399C300.117 140.419 299.134 139.813 298.154 140.046C297.174 140.278 296.568 141.261 296.8 142.241C297.033 143.221 298.016 143.827 298.996 143.595Z" fill="#FF5E4C"/>
</svg>
