<svg width="235" height="142" viewBox="0 0 235 142" fill="none" xmlns="http://www.w3.org/2000/svg">
<g opacity="0.75">
<path d="M234.084 35.4069V98.8688C234.084 110.103 224.977 119.21 213.743 119.21H190.029L197.653 141.696L153.928 119.21H36.9904C25.7562 119.21 16.6492 110.103 16.6492 98.8688V35.4069C16.6492 24.1727 25.7562 15.0657 36.9904 15.0657H213.743C224.977 15.0657 234.084 24.1727 234.084 35.4069Z" fill="#CD5036"/>
<path d="M153.928 112.462H36.9904C25.7562 112.462 16.6492 103.355 16.6492 92.1208V98.8689C16.6492 110.103 25.7562 119.21 36.9904 119.21H153.928L197.653 141.697L194.883 133.524L153.928 112.462Z" fill="#702718"/>
<path d="M16.9018 17.8627C17.3069 17.8627 17.7136 17.7087 18.023 17.3978C18.6419 16.7789 18.6419 15.7758 18.023 15.1569L10.5529 7.68683C9.93405 7.06793 8.93096 7.06793 8.31207 7.68683C7.69318 8.30572 7.69318 9.30881 8.31207 9.9277L15.7821 17.3978C16.0916 17.7072 16.4967 17.8627 16.9033 17.8627H16.9018Z" fill="#CD5036"/>
<path d="M2.20826 24.3206H12.7713C13.6458 24.3206 14.3559 23.6105 14.3559 22.736C14.3559 21.8615 13.6458 21.1514 12.7713 21.1514H2.20826C1.33224 21.1514 0.623657 21.8615 0.623657 22.736C0.623657 23.6105 1.33374 24.3206 2.20826 24.3206Z" fill="#CD5036"/>
<path d="M23.3598 13.7322C24.2343 13.7322 24.9444 13.0222 24.9444 12.1476V1.5846C24.9444 0.708588 24.2343 0 23.3598 0C22.4853 0 21.7752 0.710083 21.7752 1.5846V12.1476C21.7752 13.0236 22.4853 13.7322 23.3598 13.7322Z" fill="#CD5036"/>
<path d="M208.551 72.4253H103.894C100.161 72.4253 97.135 75.4512 97.135 79.1838V95.3228C97.135 99.0554 100.161 102.081 103.894 102.081H208.551C212.283 102.081 215.309 99.0554 215.309 95.3228V79.1838C215.309 75.4512 212.283 72.4253 208.551 72.4253Z" fill="#C8958B"/>
<path d="M123.287 79.5754V84.5595L127.869 82.9808L129.262 86.6344L124.68 88.5539L127.559 92.641L124.464 94.9312L121.336 90.8142L118.272 94.9312L115.022 92.641L117.932 88.3999L113.319 86.6344L114.649 82.9808L119.387 84.5595V79.5754H123.287Z" fill="#1A1A1A" stroke="#F9F7FF" stroke-miterlimit="10"/>
<path d="M147.43 79.5754V84.5595L152.012 82.9808L153.405 86.6344L148.823 88.5539L151.702 92.641L148.606 94.9312L145.479 90.8142L142.414 94.9312L139.164 92.641L142.075 88.3999L137.462 86.6344L138.792 82.9808L143.53 84.5595V79.5754H147.43Z" fill="#1A1A1A" stroke="#F9F7FF" stroke-miterlimit="10"/>
<path d="M171.573 79.5754V84.5595L176.155 82.9808L177.548 86.6344L172.966 88.5539L175.845 92.641L172.749 94.9312L169.622 90.8142L166.557 94.9312L163.307 92.641L166.218 88.3999L161.605 86.6344L162.935 82.9808L167.672 84.5595V79.5754H171.573Z" fill="#1A1A1A" stroke="#F9F7FF" stroke-miterlimit="10"/>
<path d="M195.715 79.5754V84.5595L200.297 82.9808L201.691 86.6344L197.109 88.5539L199.988 92.641L196.892 94.9312L193.765 90.8142L190.7 94.9312L187.45 92.641L190.361 88.3999L185.747 86.6344L187.078 82.9808L191.815 84.5595V79.5754H195.715Z" fill="#1A1A1A" stroke="#F9F7FF" stroke-miterlimit="10"/>
<path d="M75.0493 59.3599H36.1996C33.0244 59.3599 30.4517 61.9341 30.4517 65.1093V80.619C30.4517 92.4736 40.0609 102.083 51.9156 102.083H59.3348C71.1894 102.083 80.7987 92.4736 80.7987 80.619V65.1093C80.7987 61.9341 78.2245 59.3599 75.0508 59.3599H75.0493ZM57.9849 79.9612V85.0648C57.9849 85.7914 57.3959 86.3819 56.6679 86.3819H54.5795C53.853 86.3819 53.2625 85.7929 53.2625 85.0648V79.9612C52.2205 79.2197 51.5344 78.0089 51.5344 76.6335C51.5344 74.3762 53.3641 72.545 55.6229 72.545C57.8818 72.545 59.7115 74.3747 59.7115 76.6335C59.7115 78.0104 59.0269 79.2212 57.9849 79.9612Z" fill="#FDBE02"/>
<path d="M57.6425 73.0786C58.6082 73.8261 59.2316 74.9966 59.2316 76.3121C59.2316 77.6276 58.5469 78.8998 57.505 79.6398V84.7434C57.505 85.4699 56.916 86.0604 56.1879 86.0604H54.0996C53.9336 86.0604 53.7752 86.029 53.6287 85.9722C53.8678 86.2234 54.2057 86.3818 54.5809 86.3818H56.6693C57.3958 86.3818 57.9863 85.7928 57.9863 85.0648V79.9612C59.0283 79.2197 59.7129 78.0088 59.7129 76.6335C59.7129 75.1102 58.8788 73.7827 57.644 73.0801L57.6425 73.0786Z" fill="#FDA902"/>
<path d="M76.6488 59.5886C76.6877 59.8592 76.7086 60.1343 76.7086 60.4153V75.925C76.7086 87.7796 67.0993 97.3889 55.2447 97.3889H47.8255C42.4856 97.3889 37.6018 95.4381 33.8466 92.212C37.6646 98.1498 44.3289 102.083 51.9125 102.083H59.3318C71.1864 102.083 80.7957 92.4736 80.7957 80.619V65.1093C80.7957 62.4902 79.0437 60.2808 76.6473 59.5886H76.6488Z" fill="#FDA902"/>
<path d="M55.5153 30.2957C45.474 30.354 37.4239 38.6538 37.4239 48.6951V59.3598H42.6202V48.6607C42.6202 41.5016 48.3367 35.5623 55.4958 35.492C62.7237 35.4218 68.6271 41.2818 68.6271 48.4933V51.2992C68.6271 51.5309 68.814 51.7178 69.0457 51.7178H73.4049C73.6366 51.7178 73.8234 51.5309 73.8234 51.2992V48.4933C73.8234 38.4236 65.5999 30.2359 55.5168 30.2957H55.5153Z" fill="#E6E6E6"/>
<path d="M68.6257 46.4783C68.6257 39.3087 62.7925 33.4756 55.6229 33.4756C48.4533 33.4756 42.6187 39.3087 42.6187 46.4783V48.4935C42.6187 41.3239 48.4533 35.4907 55.6229 35.4907C62.7925 35.4907 68.6257 41.3239 68.6257 48.4935V46.4783Z" fill="#B3B3B3"/>
<path d="M73.5992 53.1531H68.8484C68.7253 53.1531 68.6256 53.2528 68.6256 53.3758V54.781C68.6256 54.9041 68.7253 55.0038 68.8484 55.0038H73.5992C73.7222 55.0038 73.8219 54.9041 73.8219 54.781V53.3758C73.8219 53.2528 73.7222 53.1531 73.5992 53.1531Z" fill="#E6E6E6"/>
<path d="M73.3301 51.7178H69.1174V53.1529H73.3301V51.7178Z" fill="#B3B3B3"/>
<path opacity="0.3" d="M183.695 30.2959H98.3833C97.286 30.2959 96.3965 31.1854 96.3965 32.2826V33.1093C96.3965 34.2066 97.286 35.0961 98.3833 35.0961H183.695C184.792 35.0961 185.682 34.2066 185.682 33.1093V32.2826C185.682 31.1854 184.792 30.2959 183.695 30.2959Z" fill="#F9F7FF"/>
<path opacity="0.3" d="M212.908 48.4935H98.7959C97.4699 48.4935 96.3965 47.4186 96.3965 46.0942C96.3965 44.7682 97.4714 43.6948 98.7959 43.6948H212.908C214.234 43.6948 215.308 44.7697 215.308 46.0942C215.308 47.4201 214.233 48.4935 212.908 48.4935Z" fill="#F9F7FF"/>
<path opacity="0.3" d="M212.908 62.8595H98.7959C97.4699 62.8595 96.3965 61.7846 96.3965 60.4601C96.3965 59.1341 97.4714 58.0608 98.7959 58.0608H212.908C214.234 58.0608 215.308 59.1356 215.308 60.4601C215.308 61.7861 214.233 62.8595 212.908 62.8595Z" fill="#F9F7FF"/>
</g>
</svg>
