<svg width="16" height="20" viewBox="0 0 16 20" fill="none" xmlns="http://www.w3.org/2000/svg">
<path d="M5.99994 6.99996C5.99994 5.89539 6.89537 4.99996 7.99994 4.99996C9.10451 4.99996 9.99994 5.89539 9.99994 6.99996C9.99994 8.10453 9.10451 8.99996 7.99994 8.99996C6.89537 8.99996 5.99994 8.10453 5.99994 6.99996Z" fill="white"/>
<path d="M6.99994 10.5C5.34308 10.5 3.99994 11.8431 3.99994 13.5C3.99994 14.0522 4.44765 14.5 4.99994 14.5H10.9999C11.5522 14.5 11.9999 14.0522 11.9999 13.5C11.9999 11.8431 10.6568 10.5 8.99994 10.5H6.99994Z" fill="white"/>
<path fill-rule="evenodd" clip-rule="evenodd" d="M3.54347 0.882643C6.49927 0.457901 9.50062 0.457901 12.4564 0.882643C13.9219 1.09323 15.051 2.28262 15.1851 3.75708L15.3121 5.15281C15.6055 8.37758 15.6055 11.6223 15.3121 14.8471L15.1851 16.2428C15.051 17.7173 13.9219 18.9067 12.4564 19.1173C9.50062 19.542 6.49927 19.542 3.54347 19.1173C2.07798 18.9067 0.948883 17.7173 0.814755 16.2428L0.687788 14.8471C0.394436 11.6223 0.394435 8.37759 0.687787 5.15281L0.814755 3.75708C0.948883 2.28262 2.07798 1.09323 3.54347 0.882643ZM12.2431 2.36739C9.42878 1.96299 6.57112 1.96299 3.75682 2.36739C2.97903 2.47916 2.37977 3.11042 2.30859 3.89297L2.18162 5.2887C1.89649 8.42307 1.89649 11.5769 2.18162 14.7112L2.30859 16.107C2.37977 16.8895 2.97903 17.5208 3.75682 17.6325C6.57112 18.0369 9.42878 18.0369 12.2431 17.6325C13.0209 17.5208 13.6201 16.8895 13.6913 16.107L13.8183 14.7112C14.1034 11.5769 14.1034 8.42307 13.8183 5.2887L13.6913 3.89297C13.6201 3.11042 13.0209 2.47916 12.2431 2.36739Z" fill="white"/>
</svg>
