<svg width="24" height="24" viewBox="0 0 24 24" fill="none" xmlns="http://www.w3.org/2000/svg">
<path d="M12 18.2499C11.5858 18.2499 11.25 18.5857 11.25 18.9999C11.25 19.4142 11.5858 19.7499 12 19.7499H18C18.9665 19.7499 19.75 18.9664 19.75 17.9999V5.99994C19.75 5.03344 18.9665 4.24994 18 4.24994H12C11.5858 4.24994 11.25 4.58573 11.25 4.99994C11.25 5.41415 11.5858 5.74994 12 5.74994L18 5.74994C18.1381 5.74994 18.25 5.86187 18.25 5.99994L18.25 17.9999C18.25 18.138 18.1381 18.2499 18 18.2499H12Z" fill="white"/>
<path fill-rule="evenodd" clip-rule="evenodd" d="M14.5031 14.3652C15.1934 14.3652 15.7531 13.8055 15.7531 13.1152V10.8746C15.7531 10.1843 15.1934 9.62464 14.5031 9.62464L9.89048 9.62464C9.88396 9.55122 9.87713 9.47781 9.87 9.40442L9.81597 8.84854C9.73354 8.00043 8.83294 7.49252 8.06451 7.86078C6.43029 8.64397 4.95085 9.71572 3.69736 11.0245L3.59816 11.1281C3.13395 11.6127 3.13395 12.3771 3.59815 12.8617L3.69736 12.9653C4.95085 14.2741 6.43029 15.3458 8.06451 16.129C8.83293 16.4973 9.73354 15.9894 9.81597 15.1412L9.87 14.5854C9.87713 14.512 9.88396 14.4386 9.89048 14.3652H14.5031ZM9.19511 12.8652C8.92874 12.8652 8.69326 13.0044 8.56008 13.2159C8.49523 13.3189 8.45464 13.439 8.44656 13.5685C8.42842 13.8593 8.40524 14.15 8.37703 14.4403L8.36135 14.6016C7.3253 14.0677 6.36316 13.4028 5.49838 12.6238C5.27402 12.4218 5.05622 12.212 4.84538 11.9949C5.86892 10.9408 7.05651 10.0606 8.36135 9.38818L8.37703 9.54953C8.40524 9.8398 8.42842 10.1304 8.44656 10.4213C8.47122 10.8166 8.79902 11.1246 9.19511 11.1246H14.2531V12.8652H9.19511Z" fill="white"/>
</svg>
