<svg width="24" height="24" viewBox="0 0 24 24" fill="none" xmlns="http://www.w3.org/2000/svg">
<path fill-rule="evenodd" clip-rule="evenodd" d="M12.9999 2.99994C12.9999 2.44765 12.5522 1.99994 11.9999 1.99994C11.4477 1.99994 10.9999 2.44765 10.9999 2.99994V3.74994H10.4425C8.21745 3.74994 6.37585 5.47995 6.23695 7.70068L6.01595 11.2341C5.93169 12.5813 5.4794 13.8796 4.70834 14.9875C4.01166 15.9886 4.63188 17.3712 5.84281 17.5165L9.24994 17.9253V18.9999C9.24994 20.5187 10.4812 21.7499 11.9999 21.7499C13.5187 21.7499 14.7499 20.5187 14.7499 18.9999V17.9253L18.1571 17.5165C19.368 17.3712 19.9882 15.9886 19.2915 14.9875C18.5205 13.8796 18.0682 12.5813 17.9839 11.2341L17.7629 7.70068C17.624 5.47995 15.7824 3.74994 13.5573 3.74994H12.9999V2.99994ZM10.4425 5.24994C9.00952 5.24994 7.82348 6.36411 7.73403 7.79432L7.51303 11.3278C7.41163 12.9489 6.86738 14.5111 5.93953 15.8444C5.88918 15.9167 5.934 16.0166 6.02153 16.0272L9.75919 16.4757C11.2477 16.6543 12.7522 16.6543 14.2407 16.4757L17.9783 16.0272C18.0659 16.0166 18.1107 15.9167 18.0603 15.8444C17.1325 14.5111 16.5882 12.9489 16.4868 11.3278L16.2658 7.79432C16.1764 6.36411 14.9903 5.24994 13.5573 5.24994H10.4425ZM11.9999 20.2499C11.3096 20.2499 10.7499 19.6903 10.7499 18.9999V18.2499H13.2499V18.9999C13.2499 19.6903 12.6903 20.2499 11.9999 20.2499Z" fill="white"/>
</svg>
