<svg width="24" height="24" viewBox="0 0 24 24" fill="none" xmlns="http://www.w3.org/2000/svg">
<path fill-rule="evenodd" clip-rule="evenodd" d="M14.25 5.50006C14.25 3.70514 15.7051 2.25006 17.5 2.25006C19.2949 2.25006 20.75 3.70514 20.75 5.50006C20.75 7.29499 19.2949 8.75006 17.5 8.75006C16.5404 8.75006 15.6779 8.33415 15.083 7.67276L12.3657 9.15493L9.32515 10.8924C9.59552 11.3665 9.75 11.9152 9.75 12.5001C9.75 12.7964 9.71034 13.0835 9.63603 13.3563L15.083 16.3274C15.6779 15.666 16.5404 15.2501 17.5 15.2501C19.2949 15.2501 20.75 16.7051 20.75 18.5001C20.75 20.295 19.2949 21.7501 17.5 21.7501C15.7051 21.7501 14.25 20.295 14.25 18.5001C14.25 18.2037 14.2897 17.9166 14.364 17.6438L8.91704 14.6728C8.32212 15.3342 7.45963 15.7501 6.5 15.7501C4.70507 15.7501 3.25 14.295 3.25 12.5001C3.25 10.7051 4.70507 9.25006 6.5 9.25006C7.15068 9.25006 7.7567 9.44128 8.26492 9.77058L11.6343 7.8452L14.364 6.35631C14.2897 6.0835 14.25 5.79641 14.25 5.50006ZM17.5 3.75006C16.5335 3.75006 15.75 4.53356 15.75 5.50006C15.75 6.46656 16.5335 7.25006 17.5 7.25006C18.4665 7.25006 19.25 6.46656 19.25 5.50006C19.25 4.53356 18.4665 3.75006 17.5 3.75006ZM6.5 10.7501C5.5335 10.7501 4.75 11.5336 4.75 12.5001C4.75 13.4666 5.5335 14.2501 6.5 14.2501C7.4665 14.2501 8.25 13.4666 8.25 12.5001C8.25 11.5336 7.4665 10.7501 6.5 10.7501ZM15.75 18.5001C15.75 17.5336 16.5335 16.7501 17.5 16.7501C18.4665 16.7501 19.25 17.5336 19.25 18.5001C19.25 19.4666 18.4665 20.2501 17.5 20.2501C16.5335 20.2501 15.75 19.4666 15.75 18.5001Z" fill="#F9F7FF"/>
</svg>
