<svg width="58" height="58" viewBox="0 0 58 58" fill="none" xmlns="http://www.w3.org/2000/svg">
<rect x="7" y="7" width="44" height="44" rx="16" fill="#F9F7FF" fill-opacity="0.05"/>
<path d="M25.352 37.6357C22.6211 34.7646 20.8215 31.1353 20.1889 27.2237C20.14 26.9042 20.0067 26.6036 19.8027 26.353C19.5988 26.1024 19.3315 25.9108 19.0287 25.798C18.7259 25.6853 18.3984 25.6555 18.0802 25.7118C17.762 25.768 17.4646 25.9083 17.2187 26.118C14.1472 28.7345 12.0414 32.305 11.2378 36.2591C10.4342 40.2131 10.9792 44.3223 12.7857 47.9302C12.936 48.2321 13.1675 48.4862 13.4542 48.6638C13.7409 48.8414 14.0714 48.9356 14.4087 48.9358C14.746 48.936 15.0766 48.8422 15.3635 48.6649C15.6504 48.4875 15.8822 48.2338 16.0328 47.932C16.8951 46.2011 18.0924 44.6586 19.5554 43.394C21.0184 42.1294 22.7179 41.1679 24.5554 40.5651C24.8419 40.4721 25.1008 40.3092 25.3086 40.091C25.5164 39.8729 25.6666 39.6065 25.7456 39.3158C25.8247 39.0251 25.8301 38.7193 25.7614 38.426C25.6926 38.1326 25.5519 37.8611 25.352 37.6357Z" fill="#303F9F"/>
<path d="M30.0875 3.98749C29.7649 3.774 29.3867 3.66016 29 3.66016C28.6132 3.66016 28.235 3.774 27.9125 3.98749C27.4412 4.33186 16.3125 12.7781 16.3125 23.5625C16.0829 29.6497 18.161 35.5989 22.1306 40.2194C23.3071 41.5137 24.4937 40.2708 27.3687 39.9837C28.4523 39.853 29.5476 39.853 30.6312 39.9837C33.506 40.2708 34.6927 41.5137 35.8693 40.2194C39.839 35.5989 41.917 29.6497 41.6875 23.5625C41.6875 12.7781 30.5587 4.33186 30.0875 3.98749Z" fill="#2979FF"/>
<path d="M40.7994 26.1362C40.5515 25.9245 40.251 25.7836 39.9297 25.7284C39.6084 25.6731 39.2782 25.7055 38.9738 25.8222C38.6694 25.9389 38.4021 26.1356 38.2001 26.3914C37.998 26.6473 37.8687 26.9529 37.8258 27.2761C37.3929 31.1879 35.7621 34.8705 33.1565 37.8201C32.9599 38.0415 32.8206 38.3077 32.7506 38.5953C32.6807 38.883 32.6823 39.1834 32.7553 39.4704C32.8283 39.7573 32.9705 40.0219 33.1694 40.2412C33.3683 40.4605 33.6179 40.6277 33.8963 40.7283C37.4074 42.0091 40.2949 44.5856 41.9658 47.9288C42.1155 48.2314 42.3469 48.4862 42.6337 48.6644C42.9206 48.8426 43.2515 48.9372 43.5892 48.9373C43.9269 48.9375 44.2579 48.8434 44.545 48.6655C44.832 48.4876 45.0636 48.2331 45.2138 47.9306C47.0195 44.3271 47.566 40.2224 46.7658 36.272C45.9657 32.3215 43.8651 28.753 40.7994 26.1362Z" fill="#1A237E"/>
<path d="M40.7994 26.1362C40.5514 25.9245 40.251 25.7836 39.9297 25.7284C39.6084 25.6731 39.2782 25.7055 38.9738 25.8222C38.6694 25.9389 38.4021 26.1356 38.2 26.3914C37.998 26.6473 37.8687 26.9529 37.8258 27.2761C37.7714 27.6842 37.6645 28.0538 37.5918 28.4482C39.5568 30.8324 40.8721 33.684 41.4102 36.7263C41.9483 39.7687 41.6908 42.8985 40.6627 45.812C41.158 46.4781 41.594 47.1863 41.9657 47.9284C42.1155 48.2311 42.3469 48.4859 42.6337 48.6641C42.9205 48.8423 43.2515 48.9368 43.5892 48.937C43.9269 48.9372 44.2579 48.843 44.5449 48.6651C44.832 48.4872 45.0636 48.2327 45.2137 47.9302C47.02 44.3269 47.5667 40.2221 46.7665 36.2716C45.9663 32.3211 43.8654 28.7527 40.7994 26.1362Z" fill="#303F9F"/>
<path d="M41.6875 23.5625C41.917 29.6496 39.839 35.5989 35.8694 40.2193C34.6913 41.5151 33.5115 40.2713 30.6312 39.9837C34.4586 35.3865 36.4588 29.5407 36.25 23.5625C36.25 15.1343 29.4894 8.17433 26.2812 5.34683C26.3226 5.31058 27.8599 3.98746 27.9125 3.98746C28.225 3.74933 28.6071 3.62036 29 3.62036C29.3929 3.62036 29.775 3.74933 30.0875 3.98746C30.5588 4.33183 41.6875 12.7781 41.6875 23.5625Z" fill="#304FFE"/>
<path d="M29 29C32.5036 29 35.3438 26.1598 35.3438 22.6562C35.3438 19.1527 32.5036 16.3125 29 16.3125C25.4964 16.3125 22.6562 19.1527 22.6562 22.6562C22.6562 26.1598 25.4964 29 29 29Z" fill="#4FC3F7"/>
<path d="M29.8518 54.1574C29.5906 54.3001 29.2976 54.3748 28.9999 54.3748C28.7023 54.3748 28.4093 54.3001 28.1481 54.1574C20.7201 49.9091 22.2574 44.1178 24.0699 43.0105C25.5734 42.1587 27.2719 41.7109 28.9999 41.7109C30.728 41.7109 32.4265 42.1587 33.9299 43.0105C35.7424 44.1178 37.117 50.173 29.8518 54.1574Z" fill="#FB8C00"/>
<path d="M31.7187 47.1251C31.7187 50.2063 28.7825 52.5445 27.1875 53.5776C20.9795 49.4971 22.2575 44.118 24.07 43.0107C25.1568 42.3664 26.3673 41.9588 27.6225 41.8145C28.5738 42.0703 29.4789 42.474 30.305 43.0107C31.36 43.6552 31.7187 45.9038 31.7187 47.1251Z" fill="#FF9800"/>
</svg>
