<svg width="18" height="18" viewBox="0 0 18 18" fill="none" xmlns="http://www.w3.org/2000/svg">
<path fill-rule="evenodd" clip-rule="evenodd" d="M5.24998 2.4375C5.56065 2.4375 5.81248 2.68934 5.81248 3V4.25072C7.93329 4.06185 10.0667 4.06185 12.1875 4.25073V3C12.1875 2.68934 12.4393 2.4375 12.75 2.4375C13.0606 2.4375 13.3125 2.68934 13.3125 3V4.36233C14.4323 4.52066 15.3169 5.40635 15.4667 6.53613L15.5316 7.02584C15.8046 9.08559 15.781 11.1738 15.4616 13.2269C15.3033 14.2439 14.4771 15.0251 13.4527 15.1261L12.558 15.2143C10.1917 15.4477 7.80821 15.4477 5.44193 15.2143L4.54718 15.1261C3.52287 15.0251 2.69663 14.2439 2.53837 13.2269C2.2189 11.1738 2.19532 9.08559 2.46835 7.02584L2.53326 6.53613C2.68302 5.40634 3.56768 4.52063 4.68748 4.36232V3C4.68748 2.68934 4.93932 2.4375 5.24998 2.4375ZM5.58386 5.4021C7.85575 5.17806 10.1442 5.17806 12.4161 5.4021L13.0952 5.46907C13.7452 5.53318 14.2656 6.03641 14.3514 6.68396L14.4163 7.17367C14.439 7.34475 14.4595 7.51604 14.4779 7.6875H3.52203C3.54039 7.51604 3.56091 7.34475 3.58359 7.17367L3.6485 6.68396C3.73434 6.03641 4.25471 5.53318 4.90477 5.46907L5.58386 5.4021ZM3.43261 8.8125C3.35897 10.2286 3.43152 11.6499 3.64999 13.0539C3.72937 13.564 4.1438 13.9559 4.65758 14.0065L5.55234 14.0948C7.84519 14.3209 10.1547 14.3209 12.4476 14.0948L13.3423 14.0065C13.8561 13.9559 14.2706 13.564 14.3499 13.0539C14.5684 11.6499 14.641 10.2286 14.5673 8.8125H3.43261Z" fill="white"/>
</svg>
