<svg width="18" height="18" viewBox="0 0 18 18" fill="none" xmlns="http://www.w3.org/2000/svg">
<path fill-rule="evenodd" clip-rule="evenodd" d="M11.7376 3.19718L12.3476 3.27315C13.7556 3.44851 14.8125 4.6452 14.8125 6.06409V13.9312C14.8125 15.3088 13.7863 16.4708 12.4192 16.641C10.1485 16.9238 7.8515 16.9238 5.58081 16.641C4.21369 16.4708 3.1875 15.3088 3.1875 13.9312V6.06409C3.1875 4.64519 4.2444 3.44851 5.65241 3.27315L6.26243 3.19718C6.50406 2.32654 7.3024 1.6875 8.25 1.6875H9.75C10.6976 1.6875 11.4959 2.32654 11.7376 3.19718ZM6.1875 4.3402L5.79145 4.38952C4.94664 4.49474 4.3125 5.21275 4.3125 6.06409V13.9312C4.3125 14.7413 4.91593 15.4245 5.71984 15.5246C7.8982 15.7959 10.1018 15.7959 12.2802 15.5246C13.0841 15.4245 13.6875 14.7413 13.6875 13.9312V6.06409C13.6875 5.21275 13.0534 4.49474 12.2086 4.38952L11.8125 4.3402V5.25C11.8125 5.56066 11.5607 5.8125 11.25 5.8125H6.75C6.43934 5.8125 6.1875 5.56066 6.1875 5.25V4.3402ZM7.3125 3.75C7.3125 3.23223 7.73223 2.8125 8.25 2.8125H9.75C10.2678 2.8125 10.6875 3.23223 10.6875 3.75V4.6875H7.3125V3.75Z" fill="white"/>
<path d="M11.8125 8.8125C11.8125 8.50184 11.5607 8.25 11.25 8.25H6.75C6.43934 8.25 6.1875 8.50184 6.1875 8.8125C6.1875 9.12316 6.43934 9.375 6.75 9.375H11.25C11.5607 9.375 11.8125 9.12316 11.8125 8.8125Z" fill="white"/>
<path d="M11.0625 11.0625C11.0625 10.7518 10.8107 10.5 10.5 10.5H6.75C6.43934 10.5 6.1875 10.7518 6.1875 11.0625C6.1875 11.3732 6.43934 11.625 6.75 11.625H10.5C10.8107 11.625 11.0625 11.3732 11.0625 11.0625Z" fill="white"/>
</svg>
