<svg width="36" height="36" viewBox="0 0 36 36" fill="none" xmlns="http://www.w3.org/2000/svg">
<g clip-path="url(#clip0_377_2358)">
<path d="M35.5124 5.06775C36.1618 13.6743 36.1625 22.3205 35.5124 30.9317C35.3277 33.3811 33.3811 35.3277 30.9317 35.5124C22.3251 36.1618 13.679 36.1625 5.06775 35.5124C2.61837 35.3277 0.671745 33.3811 0.487091 30.9317C-0.162301 22.3251 -0.163077 13.679 0.487091 5.06775C0.671745 2.61837 2.61837 0.671745 5.06775 0.487091C13.6743 -0.162301 22.3205 -0.163077 30.9317 0.487091C33.3811 0.671745 35.3277 2.61837 35.5124 5.06775Z" fill="#CBE3FA"/>
<path d="M0.438127 30.2622C-0.161688 21.8768 -0.145938 13.4558 0.487316 5.06775C0.67197 2.61837 2.6186 0.671745 5.06798 0.487091C13.6746 -0.162301 22.3207 -0.163077 30.9319 0.487091C32.5173 0.606495 32.225 2.6553 30.9018 2.5802C25.9693 2.30027 17.2018 2.1333 8.1714 2.81466C5.72202 2.99932 3.7754 4.94594 3.59074 7.39532C3.0208 14.9441 2.95105 22.5197 3.38002 30.072C3.4919 32.0419 0.571264 32.123 0.438127 30.2622Z" fill="#EEF7FF"/>
<path d="M18 30.1809C24.7274 30.1809 30.181 24.7273 30.181 18C30.181 11.2726 24.7274 5.81903 18 5.81903C11.2727 5.81903 5.81909 11.2726 5.81909 18C5.81909 24.7273 11.2727 30.1809 18 30.1809Z" fill="#FF6D7A"/>
<path d="M8.14692 19.6379C8.15848 21.3102 8.50707 22.9024 9.12799 24.35C9.4319 25.0584 8.44966 25.6006 8.0082 24.9689C6.62407 22.9879 5.81384 20.5763 5.81912 17.975C5.83479 10.1478 13.0453 4.43884 20.6243 6.10227C21.3763 6.2673 21.2428 7.38058 20.473 7.37158C13.6875 7.29228 8.09983 12.8411 8.14692 19.6379Z" fill="#FF8C95"/>
<path d="M23.2325 23.2659C26.1408 20.3576 26.1408 15.6424 23.2325 12.7341C20.3242 9.82583 15.609 9.82583 12.7007 12.7341C9.79244 15.6424 9.79244 20.3576 12.7007 23.2659C15.609 26.1742 20.3242 26.1742 23.2325 23.2659Z" fill="#EEF7FF"/>
<path d="M12.816 21.9987C13.0572 22.495 12.3706 22.9194 12.037 22.4799C11.0878 21.2297 10.5222 19.6756 10.5222 18C10.5222 13.9139 13.8949 10.5271 18.0151 10.5519C18.5696 10.5552 18.6406 11.3556 18.0968 11.4646C13.3363 12.419 10.6862 17.6159 12.816 21.9987Z" fill="white"/>
<path d="M9.90161 17.9999C9.90161 22.4333 13.5381 26.0689 17.9705 26.0689C22.4038 26.0689 26.0394 22.4324 26.0394 17.9999C26.0394 13.5666 22.403 9.93103 17.9705 9.93103C17.6277 9.93103 17.3498 10.2089 17.3498 10.5517C17.3498 10.8945 17.6277 11.1724 17.9705 11.1724C21.7352 11.1724 24.7981 14.2353 24.7981 17.9999C24.7981 21.7646 21.7352 24.8275 17.9705 24.8275C14.2058 24.8275 11.143 21.7646 11.143 17.9999C11.143 17.6572 10.8651 17.3793 10.5223 17.3793C10.1795 17.3793 9.90161 17.6572 9.90161 17.9999Z" fill="#CBE3FA"/>
<path d="M15.5655 19.3189H18.7171C19.0599 19.3189 19.3378 19.041 19.3378 18.6983V13.5C19.3378 13.1572 19.0599 12.8793 18.7171 12.8793C18.3743 12.8793 18.0964 13.1572 18.0964 13.5V18.0776H15.5655C15.2227 18.0776 14.9448 18.3555 14.9448 18.6983C14.9448 19.041 15.2227 19.3189 15.5655 19.3189Z" fill="#FF6D7A"/>
<path d="M27.0521 8.94783C26.8097 8.70553 26.4168 8.70553 26.1744 8.94783C25.9319 9.19029 25.9319 9.58318 26.1744 9.82563C30.6817 14.333 30.6817 21.6669 26.1744 26.1743C21.6565 30.6922 14.344 30.6925 9.82569 26.1743C5.61317 21.9617 5.33813 15.2805 8.99956 10.7451L9.16357 11.6688C9.21695 11.9697 9.47872 12.1811 9.77402 12.1811C10.1619 12.1811 10.4532 11.8311 10.3859 11.4519C9.96759 9.09641 10.0024 9.22574 9.93966 9.1051C9.87007 8.96762 9.74779 8.85473 9.58797 8.80026C9.44715 8.75185 9.56632 8.76612 7.06038 8.76612C6.71768 8.76612 6.43985 9.0438 6.43969 9.3865C6.43954 9.72912 6.71706 10.0076 7.05976 10.008H7.9994C3.98046 15.0297 4.29608 22.4003 8.94788 27.0521C13.9508 32.0551 22.0488 32.0555 27.0521 27.0521C32.0434 22.0607 32.0434 13.9392 27.0521 8.94783Z" fill="white"/>
</g>
<defs>
<clipPath id="clip0_377_2358">
<rect width="36" height="36" fill="white"/>
</clipPath>
</defs>
</svg>
