<svg width="18" height="18" viewBox="0 0 18 18" fill="none" xmlns="http://www.w3.org/2000/svg">
<g clip-path="url(#clip0_377_5093)">
<path d="M14.1 7.7214V4.4991C14.1 3.8361 13.563 3.2991 12.9 3.2991H9.468C9.294 3.2991 9.177 3.1311 9.225 2.9601C9.273 2.7831 9.3 2.5941 9.3 2.3991C9.3 1.3341 8.547 0.461102 7.494 0.319802C6.201 0.145802 5.1 1.1418 5.1 2.3991C5.1 2.5941 5.127 2.7831 5.175 2.9601C5.223 3.1311 5.106 3.2991 4.932 3.2991H1.5C0.837003 3.2991 0.300003 3.8361 0.300003 4.4991V7.6314C0.300003 7.8054 0.468003 7.9224 0.639003 7.8744C0.816003 7.8264 1.005 7.7994 1.2 7.7994C2.265 7.7994 3.138 8.5524 3.279 9.6054C3.453 10.8984 2.457 11.9997 1.2 11.9997C1.005 11.9997 0.816003 11.9727 0.639003 11.9247C0.468003 11.8767 0.300003 11.9937 0.300003 12.1677V15.3C0.300003 15.963 0.837003 16.5 1.5 16.5H9.315L14.1 7.7214Z" fill="#AF93DD"/>
<path d="M12.6 17.7C15.4167 17.7 17.7 15.4167 17.7 12.6C17.7 9.78335 15.4167 7.5 12.6 7.5C9.78335 7.5 7.5 9.78335 7.5 12.6C7.5 15.4167 9.78335 17.7 12.6 17.7Z" fill="#24BC8D"/>
<path d="M11.2491 15.4194L9.7332 13.8906C9.5415 13.6974 9.5592 13.3791 9.7707 13.2084L10.4283 12.6777C10.6434 12.5043 10.9605 12.5619 11.1021 12.7998L11.7108 13.8228L14.0625 10.3971C14.2125 10.1787 14.5146 10.134 14.7204 10.2999L15.4293 10.872C15.6315 11.0352 15.6579 11.3355 15.4875 11.532L12.141 15.3891C11.9082 15.6573 11.499 15.6714 11.2491 15.4194Z" fill="white"/>
</g>
<defs>
<clipPath id="clip0_377_5093">
<rect width="18" height="18" fill="white"/>
</clipPath>
</defs>
</svg>
