<svg width="18" height="18" viewBox="0 0 18 18" fill="none" xmlns="http://www.w3.org/2000/svg">
<g clip-path="url(#clip0_377_5108)">
<path d="M13.836 17.436C13.7526 17.5197 13.6535 17.5861 13.5443 17.6314C13.4352 17.6767 13.3182 17.7 13.2 17.7H3C2.7613 17.7 2.53239 17.6052 2.3636 17.4364C2.19482 17.2676 2.1 17.0387 2.1 16.8V4.17L4.17 2.1H16.8C17.0387 2.1 17.2676 2.19482 17.4364 2.3636C17.6052 2.53239 17.7 2.7613 17.7 3V13.2C17.7 13.3182 17.6767 13.4352 17.6314 13.5443C17.5861 13.6535 17.5197 13.7526 17.436 13.836L13.836 17.436Z" fill="#E2E2ED"/>
<path d="M17.436 13.836L13.836 17.436C13.9197 17.3526 13.9861 17.2535 14.0314 17.1443C14.0767 17.0352 14.1 16.9182 14.1 16.8V15C14.1 14.7613 14.1948 14.5324 14.3636 14.3636C14.5324 14.1948 14.7613 14.1 15 14.1H16.8C16.9182 14.1 17.0352 14.0767 17.1443 14.0314C17.2535 13.9861 17.3526 13.9197 17.436 13.836Z" fill="#AAAABC"/>
<path d="M4.8 5.1C4.72044 5.09998 4.64415 5.06837 4.5879 5.0121L3.3879 3.8121C3.33325 3.75552 3.30302 3.67974 3.3037 3.60108C3.30438 3.52242 3.33593 3.44718 3.39156 3.39156C3.44718 3.33593 3.52242 3.30438 3.60108 3.3037C3.67974 3.30302 3.75552 3.33325 3.8121 3.3879L5.0121 4.5879C5.05404 4.62986 5.08261 4.68331 5.09418 4.74149C5.10575 4.79968 5.09981 4.85999 5.0771 4.9148C5.0544 4.96961 5.01596 5.01646 4.96664 5.04942C4.91732 5.08239 4.85933 5.09999 4.8 5.1Z" fill="#AAAABC"/>
<path d="M3.9 7.5H3.6C3.52044 7.5 3.44413 7.46839 3.38787 7.41213C3.33161 7.35587 3.3 7.27957 3.3 7.2V6.9C3.29634 6.73083 3.33545 6.56347 3.41369 6.41343C3.49194 6.26339 3.60679 6.13553 3.7476 6.0417C3.8157 6.00181 3.89678 5.99036 3.97326 6.00983C4.04975 6.02931 4.11548 6.07814 4.15621 6.14575C4.19693 6.21335 4.20938 6.29428 4.19085 6.371C4.17232 6.44772 4.1243 6.51404 4.0572 6.5556C4.00502 6.59595 3.96345 6.64838 3.93606 6.70838C3.90867 6.76838 3.8963 6.83415 3.9 6.9C3.97957 6.9 4.05587 6.93161 4.11213 6.98787C4.16839 7.04413 4.2 7.12044 4.2 7.2C4.2 7.27957 4.16839 7.35587 4.11213 7.41213C4.05587 7.46839 3.97957 7.5 3.9 7.5Z" fill="#1E1E4C"/>
<path d="M5.4 7.5H5.1C5.02044 7.5 4.94413 7.46839 4.88787 7.41213C4.83161 7.35587 4.8 7.27957 4.8 7.2V6.9C4.79634 6.73083 4.83545 6.56347 4.91369 6.41343C4.99194 6.26339 5.10679 6.13553 5.2476 6.0417C5.3157 6.00181 5.39678 5.99036 5.47326 6.00983C5.54975 6.02931 5.61548 6.07814 5.65621 6.14575C5.69693 6.21335 5.70938 6.29428 5.69085 6.371C5.67232 6.44772 5.6243 6.51404 5.5572 6.5556C5.50502 6.59595 5.46345 6.64838 5.43606 6.70838C5.40867 6.76838 5.3963 6.83415 5.4 6.9C5.47957 6.9 5.55587 6.93161 5.61213 6.98787C5.66839 7.04413 5.7 7.12044 5.7 7.2C5.7 7.27957 5.66839 7.35587 5.61213 7.41213C5.55587 7.46839 5.47957 7.5 5.4 7.5Z" fill="#1E1E4C"/>
<path d="M15.9 12.9C15.8346 12.9001 15.771 12.8788 15.7188 12.8395C15.6667 12.8001 15.6288 12.7447 15.6109 12.6818C15.5931 12.6189 15.5963 12.5519 15.6201 12.491C15.6438 12.4301 15.6868 12.3786 15.7425 12.3444C15.7947 12.3041 15.8364 12.2517 15.8638 12.1917C15.8912 12.1317 15.9037 12.0659 15.9 12C15.8204 12 15.7441 11.9684 15.6879 11.9121C15.6316 11.8559 15.6 11.7796 15.6 11.7C15.6 11.6204 15.6316 11.5441 15.6879 11.4879C15.7441 11.4316 15.8204 11.4 15.9 11.4H16.2C16.2796 11.4 16.3559 11.4316 16.4121 11.4879C16.4684 11.5441 16.5 11.6204 16.5 11.7V12C16.5037 12.1692 16.4646 12.3365 16.3863 12.4866C16.3081 12.6366 16.1932 12.7645 16.0524 12.8583C16.0062 12.8856 15.9536 12.9 15.9 12.9Z" fill="#1E1E4C"/>
<path d="M14.4 12.9C14.3346 12.9001 14.271 12.8788 14.2188 12.8395C14.1667 12.8001 14.1288 12.7447 14.1109 12.6818C14.0931 12.6189 14.0963 12.5519 14.1201 12.491C14.1438 12.4301 14.1868 12.3786 14.2425 12.3444C14.2947 12.3041 14.3364 12.2517 14.3638 12.1917C14.3912 12.1317 14.4037 12.0659 14.4 12C14.3204 12 14.2441 11.9684 14.1879 11.9121C14.1316 11.8559 14.1 11.7796 14.1 11.7C14.1 11.6204 14.1316 11.5441 14.1879 11.4879C14.2441 11.4316 14.3204 11.4 14.4 11.4H14.7C14.7796 11.4 14.8559 11.4316 14.9121 11.4879C14.9684 11.5441 15 11.6204 15 11.7V12C15.0037 12.1692 14.9646 12.3365 14.8863 12.4866C14.8081 12.6366 14.6932 12.7645 14.5524 12.8583C14.5062 12.8856 14.4536 12.9 14.4 12.9Z" fill="#1E1E4C"/>
<path d="M15.6 8.7H4.2C4.12044 8.7 4.04413 8.66839 3.98787 8.61213C3.93161 8.55587 3.9 8.47956 3.9 8.4C3.9 8.32043 3.93161 8.24413 3.98787 8.18787C4.04413 8.13161 4.12044 8.1 4.2 8.1H15.6C15.6796 8.1 15.7559 8.13161 15.8121 8.18787C15.8684 8.24413 15.9 8.32043 15.9 8.4C15.9 8.47956 15.8684 8.55587 15.8121 8.61213C15.7559 8.66839 15.6796 8.7 15.6 8.7Z" fill="#AAAABC"/>
<path d="M15.6 10.5H4.2C4.12044 10.5 4.04413 10.4684 3.98787 10.4121C3.93161 10.3559 3.9 10.2796 3.9 10.2C3.9 10.1204 3.93161 10.0441 3.98787 9.98787C4.04413 9.93161 4.12044 9.9 4.2 9.9H15.6C15.6796 9.9 15.7559 9.93161 15.8121 9.98787C15.8684 10.0441 15.9 10.1204 15.9 10.2C15.9 10.2796 15.8684 10.3559 15.8121 10.4121C15.7559 10.4684 15.6796 10.5 15.6 10.5Z" fill="#AAAABC"/>
<path d="M12 12.3H4.2C4.12044 12.3 4.04413 12.2684 3.98787 12.2121C3.93161 12.1559 3.9 12.0796 3.9 12C3.9 11.9204 3.93161 11.8441 3.98787 11.7879C4.04413 11.7316 4.12044 11.7 4.2 11.7H12C12.0796 11.7 12.1559 11.7316 12.2121 11.7879C12.2684 11.8441 12.3 11.9204 12.3 12C12.3 12.0796 12.2684 12.1559 12.2121 12.2121C12.1559 12.2684 12.0796 12.3 12 12.3Z" fill="#AAAABC"/>
<path d="M3.3924 0.766197L4.3686 2.4414C4.44098 2.56245 4.48153 2.69986 4.48646 2.84082C4.49139 2.98177 4.46055 3.12168 4.3968 3.2475C4.13775 3.73727 3.73728 4.13774 3.2475 4.3968C3.12169 4.46054 2.98178 4.49139 2.84082 4.48646C2.69987 4.48153 2.56245 4.44098 2.4414 4.3686L0.766201 3.3924L3.3924 0.766197Z" fill="#BA2550"/>
<path d="M2.7972 2.7972C2.0574 3.534 1.0623 3.7323 0.570001 3.24C0.0777009 2.7477 0.278101 1.752 1.0149 1.0152C1.7517 0.278403 2.7501 0.0768027 3.24 0.570003C3.7299 1.0632 3.534 2.0574 2.7972 2.7972Z" fill="#E02B4E"/>
</g>
<defs>
<clipPath id="clip0_377_5108">
<rect width="18" height="18" fill="white"/>
</clipPath>
</defs>
</svg>
