<svg width="18" height="18" viewBox="0 0 18 18" fill="none" xmlns="http://www.w3.org/2000/svg">
<g clip-path="url(#clip0_377_5126)">
<path d="M16.116 13.1853L16.497 16.4043C16.5096 16.5146 16.4925 16.6263 16.4475 16.7278C16.4025 16.8294 16.3312 16.9171 16.241 16.9819C16.1509 17.0467 16.045 17.0862 15.9345 17.0965C15.8239 17.1068 15.7126 17.0874 15.612 17.0403L12.789 15.7233C11.5927 16.2395 10.3029 16.5039 9 16.5C4.194 16.5 0.300003 13.0083 0.300003 8.7C0.300003 4.3917 4.194 0.9 9 0.9C13.806 0.9 17.7 4.392 17.7 8.7C17.695 10.3313 17.1366 11.9126 16.116 13.1853Z" fill="#39C463"/>
<path d="M6.7281 13.0941L4.5552 10.95C4.53774 10.9328 4.52387 10.9124 4.5144 10.8898C4.50494 10.8672 4.50006 10.8429 4.50006 10.8185C4.50006 10.794 4.50494 10.7697 4.5144 10.7471C4.52387 10.7245 4.53774 10.7041 4.5552 10.6869L5.3556 9.9C5.39121 9.8651 5.43908 9.84554 5.48895 9.84554C5.53881 9.84554 5.58669 9.8651 5.6223 9.9L6.9153 11.175L12.3 4.8663C12.3325 4.8285 12.3786 4.80497 12.4283 4.80076C12.478 4.79656 12.5274 4.81201 12.5658 4.8438L13.4316 5.5638C13.4505 5.57937 13.4662 5.59856 13.4776 5.62025C13.489 5.64194 13.496 5.66569 13.4981 5.69011C13.5002 5.71453 13.4975 5.73913 13.4899 5.76246C13.4824 5.78579 13.4704 5.8074 13.4544 5.826L7.2681 13.0713C7.23506 13.1097 7.19449 13.1409 7.1489 13.163C7.10331 13.1851 7.05366 13.1976 7.00304 13.1998C6.95242 13.2019 6.9019 13.1936 6.85461 13.1755C6.80731 13.1573 6.76426 13.1296 6.7281 13.0941Z" fill="white"/>
</g>
<defs>
<clipPath id="clip0_377_5126">
<rect width="18" height="18" fill="white"/>
</clipPath>
</defs>
</svg>
