<svg width="72" height="72" viewBox="0 0 72 72" fill="none" xmlns="http://www.w3.org/2000/svg">
<g clip-path="url(#clip0_377_5133)">
<path d="M63.6625 22.2099L44.8551 20.4656L37.3842 3.11768C36.8611 1.90295 35.1389 1.90295 34.6159 3.11768L27.145 20.4655L8.33767 22.2099C7.02072 22.332 6.48859 23.97 7.48211 24.8429L21.6723 37.3087L17.5195 55.7347C17.2287 57.025 18.6222 58.0372 19.7593 57.3621L36.0001 47.7185L52.2409 57.3621C53.3781 58.0373 54.7713 57.025 54.4806 55.7347L50.3277 37.3087L64.518 24.8429C65.5116 23.97 64.9793 22.332 63.6625 22.2099Z" fill="#FFDC64"/>
<path d="M16.7735 2.52042C17.7323 3.85214 20.4385 9.57137 21.9856 12.9045C22.2289 13.4284 21.5715 13.9018 21.1517 13.5048C18.4817 10.9803 13.9163 6.59954 12.9575 5.26768C12.1988 4.21397 12.438 2.74472 13.4919 1.98605C14.5456 1.22737 16.0148 1.46672 16.7735 2.52042Z" fill="#FFF082"/>
<path d="M55.2266 2.52042C54.2679 3.85214 51.5617 9.57137 50.0145 12.9045C49.7712 13.4284 50.4286 13.9018 50.8484 13.5048C53.5185 10.9803 58.0837 6.5994 59.0426 5.26768C59.8013 4.21397 59.5621 2.74472 58.5083 1.98605C57.4546 1.22737 55.9853 1.46672 55.2266 2.52042Z" fill="#FFF082"/>
<path d="M70.3775 41.5729C68.8174 41.0641 62.5462 40.2236 58.9008 39.7624C58.3277 39.6898 58.0766 40.46 58.5821 40.7393C61.7986 42.5161 67.3594 45.5345 68.9195 46.0433C70.1539 46.4459 71.481 45.7716 71.8836 44.537C72.2862 43.3025 71.6119 41.9755 70.3775 41.5729Z" fill="#FFF082"/>
<path d="M1.62268 41.5729C3.18277 41.0641 9.45396 40.2236 13.0994 39.7624C13.6724 39.6898 13.9236 40.46 13.418 40.7393C10.2015 42.5161 4.64078 45.5345 3.08068 46.0433C1.84627 46.4459 0.51919 45.7716 0.116579 44.537C-0.286031 43.3025 0.388267 41.9755 1.62268 41.5729Z" fill="#FFF082"/>
<path d="M33.7211 68.1062C33.7211 66.4653 34.8665 60.2426 35.5584 56.6337C35.6671 56.0665 36.4772 56.0665 36.5859 56.6337C37.2778 60.2426 38.4232 66.4653 38.4232 68.1062C38.4232 69.4046 37.3706 70.4572 36.0722 70.4572C34.7737 70.4574 33.7211 69.4046 33.7211 68.1062Z" fill="#FFF082"/>
<path d="M40.1008 9.42613L37.3841 3.11768C36.861 1.90295 35.1387 1.90295 34.6158 3.11768L27.1449 20.4655L8.33767 22.2099C7.02072 22.332 6.48859 23.97 7.48211 24.8429L21.6723 37.3087L17.5195 55.7347C17.2287 57.025 18.6222 58.0372 19.7593 57.3621L21.9208 56.0786C25.4644 33.1398 35.4266 16.301 40.1008 9.42613Z" fill="#FFC850"/>
</g>
<defs>
<clipPath id="clip0_377_5133">
<rect width="72" height="72" fill="white"/>
</clipPath>
</defs>
</svg>
