<svg width="18" height="18" viewBox="0 0 18 18" fill="none" xmlns="http://www.w3.org/2000/svg">
<g clip-path="url(#clip0_377_5101)">
<path d="M16.116 13.1853L16.497 16.4043C16.5096 16.5146 16.4925 16.6263 16.4475 16.7278C16.4025 16.8294 16.3312 16.9171 16.241 16.9819C16.1509 17.0467 16.045 17.0862 15.9345 17.0965C15.8239 17.1068 15.7126 17.0874 15.612 17.0403L12.789 15.7233C11.5927 16.2395 10.3029 16.5039 9 16.5C4.194 16.5 0.299999 13.0083 0.299999 8.7C0.299999 4.3917 4.194 0.9 9 0.9C13.806 0.9 17.7 4.392 17.7 8.7C17.695 10.3313 17.1366 11.9126 16.116 13.1853Z" fill="#E02B4E"/>
<path d="M10.0116 9L13.416 5.5953C13.4426 5.56872 13.4637 5.53715 13.4781 5.50241C13.4925 5.46766 13.5 5.43041 13.5 5.3928C13.5 5.35519 13.4925 5.31794 13.4781 5.28319C13.4637 5.24845 13.4426 5.21688 13.416 5.1903L12.81 4.584C12.7834 4.55739 12.7519 4.53627 12.7171 4.52187C12.6824 4.50746 12.6451 4.50005 12.6075 4.50005C12.5699 4.50005 12.5326 4.50746 12.4979 4.52187C12.4631 4.53627 12.4316 4.55739 12.405 4.584L9 7.9884L5.5953 4.584C5.56872 4.55739 5.53715 4.53627 5.5024 4.52187C5.46766 4.50746 5.43041 4.50005 5.3928 4.50005C5.35518 4.50005 5.31794 4.50746 5.28319 4.52187C5.24844 4.53627 5.21688 4.55739 5.1903 4.584L4.584 5.19C4.55738 5.21658 4.53627 5.24815 4.52187 5.28289C4.50746 5.31764 4.50005 5.35489 4.50005 5.3925C4.50005 5.43011 4.50746 5.46736 4.52187 5.50211C4.53627 5.53685 4.55738 5.56842 4.584 5.595L7.9884 9L4.584 12.4047C4.55738 12.4313 4.53627 12.4628 4.52187 12.4976C4.50746 12.5323 4.50005 12.5696 4.50005 12.6072C4.50005 12.6448 4.50746 12.6821 4.52187 12.7168C4.53627 12.7516 4.55738 12.7831 4.584 12.8097L5.19 13.416C5.21658 13.4426 5.24815 13.4637 5.28289 13.4781C5.31764 13.4925 5.35488 13.5 5.3925 13.5C5.43011 13.5 5.46736 13.4925 5.5021 13.4781C5.53685 13.4637 5.56842 13.4426 5.595 13.416L9 10.0116L12.4047 13.416C12.4313 13.4426 12.4628 13.4637 12.4976 13.4781C12.5323 13.4925 12.5696 13.5 12.6072 13.5C12.6448 13.5 12.6821 13.4925 12.7168 13.4781C12.7516 13.4637 12.7831 13.4426 12.8097 13.416L13.416 12.81C13.4426 12.7834 13.4637 12.7519 13.4781 12.7171C13.4925 12.6824 13.5 12.6451 13.5 12.6075C13.5 12.5699 13.4925 12.5326 13.4781 12.4979C13.4637 12.4631 13.4426 12.4316 13.416 12.405L10.0116 9Z" fill="white"/>
</g>
<defs>
<clipPath id="clip0_377_5101">
<rect width="18" height="18" fill="white"/>
</clipPath>
</defs>
</svg>
