<svg width="32" height="32" viewBox="0 0 32 32" fill="none" xmlns="http://www.w3.org/2000/svg">
<g clip-path="url(#clip0_377_3416)">
<path d="M26.3079 15.9941V31.0622C26.3079 31.5873 25.8953 32 25.3701 32H6.61314C6.08788 32 5.67529 31.5873 5.67529 31.0622V17.4571C5.67529 17.1195 5.8628 16.8194 6.14422 16.6506L8.67634 15.1876C8.82646 15.0937 8.99527 15.0563 9.14526 15.0563H13.1781L15.9916 17.4571L18.8051 15.0563H25.3701C25.8953 15.0563 26.3079 15.4689 26.3079 15.9941Z" fill="#E63950"/>
<path d="M26.3079 15.9941V31.0622C26.3079 31.5873 25.8953 32 25.3701 32H15.9916V17.4571L18.8051 15.0563H25.3701C25.8953 15.0563 26.3079 15.4689 26.3079 15.9941Z" fill="#D0004F"/>
<path d="M16.6294 1.8764C16.4605 1.57622 16.2354 1.29493 15.9916 1.08848C15.5414 0.619559 14.9788 0.300754 14.3597 0.132004C13.3843 -0.130593 12.3715 0.000705443 11.5086 0.50708C10.3082 1.20121 9.59548 2.49531 9.63293 3.88339C9.65168 4.07096 9.74547 6.85949 9.74547 6.85949C9.53914 6.74695 7.40085 5.41514 7.40085 5.41514C7.15701 5.3026 5.46895 4.02713 3.38693 5.24627C2.52405 5.75277 1.90507 6.55925 1.64241 7.51592C1.37988 8.49134 1.51124 9.50415 2.01755 10.367C3.04918 12.1676 5.35635 12.7679 7.13825 11.7362L9.5529 10.3421L6.18903 10.1178C5.90617 10.2793 5.58737 10.3642 5.26481 10.3642C4.59438 10.3642 3.97346 10.008 3.64465 9.43369C3.38274 8.98765 3.32041 8.49859 3.45321 8.00403C3.58419 7.52867 3.89831 7.12115 4.33609 6.86468C4.64202 6.68517 4.93325 6.59814 5.22542 6.59814C5.71085 6.59814 6.11288 6.83535 6.32814 6.96265L6.44719 7.03043C6.74117 7.21362 8.648 8.39687 8.84582 8.50497L8.91635 8.54342L8.90041 8.55261L8.92635 8.55374L11.1772 9.86672L11.6148 6.99066L11.6257 6.95659L11.62 6.79509C11.62 6.79509 11.5184 3.88758 11.4982 3.69157C11.4882 3.12924 11.849 2.47712 12.4471 2.13093C12.7393 1.95968 13.047 1.8754 13.3712 1.8754C13.5379 1.8754 13.7064 1.89828 13.8731 1.94317C14.1744 2.02558 14.4354 2.17582 14.6387 2.38827L14.7798 2.52107C14.8329 2.56503 14.9199 2.66306 14.9932 2.79399C15.4419 3.55233 15.3036 4.55851 14.6864 5.15567C14.5847 5.24814 14.451 5.34893 14.3292 5.41852L14.2359 5.47235L13.9854 7.78277L15.2599 7.04693C15.5225 6.89688 15.7664 6.70931 15.9914 6.50304C17.192 5.34018 17.5297 3.39571 16.6294 1.8764Z" fill="#FED843"/>
<path d="M13.1781 15.0563V25.4351C13.1781 25.8102 13.4032 26.1479 13.7595 26.2979C14.0972 26.448 14.5099 26.373 14.7723 26.0915L15.9916 24.8911L17.2109 26.0915C17.4734 26.373 17.8861 26.4479 18.2237 26.2979C18.5801 26.1479 18.8051 25.8103 18.8051 25.4351V15.0563H13.1781Z" fill="#FED843"/>
<path d="M31.0597 11.3049H30.1218V10.367C30.1218 9.84867 29.7023 9.4292 29.184 9.4292C28.6656 9.4292 28.2461 9.84867 28.2461 10.367V11.3049H27.3083C26.7899 11.3049 26.3704 11.7244 26.3704 12.2427C26.3704 12.7611 26.7899 13.1806 27.3083 13.1806H28.2461V14.1184C28.2461 14.6368 28.6656 15.0563 29.184 15.0563C29.7023 15.0563 30.1218 14.6368 30.1218 14.1184V13.1806H31.0597C31.578 13.1806 31.9975 12.7611 31.9975 12.2427C31.9975 11.7244 31.578 11.3049 31.0597 11.3049Z" fill="#FFB64C"/>
<path d="M27.2458 7.55349C27.7637 7.55349 28.1836 7.1336 28.1836 6.61564C28.1836 6.09768 27.7637 5.6778 27.2458 5.6778C26.7278 5.6778 26.3079 6.09768 26.3079 6.61564C26.3079 7.1336 26.7278 7.55349 27.2458 7.55349Z" fill="#FFB64C"/>
<path d="M23.4944 13.1806C24.0123 13.1806 24.4322 12.7607 24.4322 12.2427C24.4322 11.7248 24.0123 11.3049 23.4944 11.3049C22.9764 11.3049 22.5565 11.7248 22.5565 12.2427C22.5565 12.7607 22.9764 13.1806 23.4944 13.1806Z" fill="#FFB64C"/>
<path d="M15.9916 15.0563H18.8051V25.4351C18.8051 25.8102 18.5801 26.1479 18.2237 26.2979C17.8861 26.448 17.4733 26.373 17.2109 26.0915L15.9916 24.8911V15.0563Z" fill="#FFB64C"/>
<path d="M15.9916 6.50312V1.08856C16.2354 1.29495 16.4605 1.57624 16.6294 1.87642C17.5297 3.39573 17.1921 5.34026 15.9916 6.50312Z" fill="#FFB64C"/>
<path d="M24.1133 7.36586L21.2998 2.48906C21.0372 2.03889 20.4558 1.88883 20.0056 2.15143L15.9916 4.47729L15.4542 4.78728L4.78909 10.9409L0.517138 13.4056C0.0669716 13.6495 -0.145607 14.231 0.11699 14.6811L2.99305 19.5579C3.25565 20.0082 3.81836 20.1581 4.26852 19.8955L15.9916 13.1243L23.757 8.64133C24.2071 8.37886 24.3573 7.81615 24.1133 7.36586Z" fill="#FF641A"/>
<path d="M23.757 8.64133L15.9916 13.1242V4.47729L20.0056 2.15143C20.4558 1.88883 21.0372 2.03889 21.2998 2.48906L24.1134 7.36579C24.3573 7.81615 24.2071 8.37879 23.757 8.64133Z" fill="#E63950"/>
</g>
<defs>
<clipPath id="clip0_377_3416">
<rect width="32" height="32" fill="white"/>
</clipPath>
</defs>
</svg>
