<svg width="24" height="24" viewBox="0 0 24 24" fill="none" xmlns="http://www.w3.org/2000/svg">
<path d="M17.1082 16.5591L17.6764 16.6924L19.5211 21.9924C19.5799 22.1612 19.4431 22.3338 19.2653 22.3151L16.6795 22.0444C16.6073 22.0368 16.5355 22.0618 16.4836 22.1126L14.6248 23.9304C14.497 24.0553 14.2826 24.0049 14.2238 23.8361L12.367 18.5015L12.6357 18.1078L17.1082 16.5591Z" fill="#FF4755"/>
<path d="M12.367 18.5015L11.9918 17.4236L17.3023 15.6177L17.6764 16.6924C16.1684 17.7685 14.3425 18.4271 12.367 18.5015Z" fill="#FC2B3A"/>
<path d="M6.88368 16.5591L6.31546 16.6924L4.47074 21.9924C4.41196 22.1612 4.54874 22.3338 4.72654 22.3151L7.3123 22.0444C7.38454 22.0368 7.45635 22.0618 7.50824 22.1126L9.36707 23.9304C9.49485 24.0553 9.70925 24.0049 9.76799 23.8361L11.6248 18.5015L11.3561 18.1078L6.88368 16.5591Z" fill="#FF4755"/>
<path d="M11.6248 18.5015L12 17.4236L6.68952 15.6177L6.31546 16.6924C7.82338 17.7685 9.6493 18.4271 11.6248 18.5015Z" fill="#FC2B3A"/>
<path d="M12 16.8097C3.29906 16.8097 3.29184 8.41819 3.29906 8.27273C3.52776 3.66534 7.33584 0 12 0C16.6642 0 20.4722 3.66534 20.7009 8.27273C20.7082 8.41819 20.7118 16.8097 12 16.8097Z" fill="#FFCB5B"/>
<path d="M12 16.5454C7.33583 16.5454 3.5279 12.88 3.29915 8.27271C3.29193 8.41816 3.28818 8.56455 3.28818 8.71178C3.28818 13.5232 7.1886 17.4236 12 17.4236C16.8114 17.4236 20.7118 13.5232 20.7118 8.71178C20.7118 8.56455 20.7081 8.41816 20.7008 8.27271C20.4721 12.88 16.6641 16.5454 12 16.5454Z" fill="#F7B737"/>
<path d="M12 15.0014C5.15075 15.0014 5.14156 8.41791 5.15075 8.27269C5.37716 4.68694 8.35714 1.84875 12 1.84875C15.6428 1.84875 18.6228 4.68694 18.8492 8.27269C18.8584 8.41791 18.863 15.0014 12 15.0014Z" fill="#FF9838"/>
<path d="M12 14.6966C8.35715 14.6966 5.37778 11.8584 5.15132 8.27271C5.14214 8.41792 5.13693 8.56427 5.13693 8.71178C5.13693 12.5021 8.20964 15.5748 12 15.5748C15.7904 15.5748 18.8631 12.5021 18.8631 8.71178C18.8631 8.56422 18.8579 8.41792 18.8487 8.27271C18.6222 11.8584 15.6428 14.6966 12 14.6966Z" fill="#FF8709"/>
<path d="M12.6282 5.36871L13.2683 6.66564C13.3704 6.87241 13.5677 7.01575 13.7959 7.04889L15.2271 7.25688C15.8018 7.34036 16.0312 8.04658 15.6154 8.45196L14.5797 9.46146C14.4146 9.62242 14.3393 9.85432 14.3782 10.0816L14.6227 11.5071C14.6459 11.6423 14.5856 11.8824 14.5856 11.8824H13.6061L12 10.9794L10.3938 11.8824L9.42237 11.9019C9.42237 11.9019 9.35266 11.6501 9.37723 11.507L9.62173 10.0816C9.66073 9.85427 9.58535 9.62238 9.42021 9.46141L8.38456 8.45191C7.96873 8.04658 8.19818 7.34036 8.77287 7.25683L10.2041 7.04885C10.4323 7.01571 10.6296 6.87236 10.7316 6.6656L11.3717 5.36866C11.6287 4.84797 12.3713 4.84797 12.6282 5.36871Z" fill="#FFF5F5"/>
<path d="M11.8865 10.5828L9.4147 11.8823C9.55847 12.246 10.0013 12.4521 10.3938 12.2457L11.674 11.5727C11.8781 11.4654 12.1219 11.4654 12.3261 11.5727L13.6062 12.2457C13.9988 12.4521 14.4416 12.246 14.5853 11.8823L12.1136 10.5828C12.0424 10.5454 11.9575 10.5454 11.8865 10.5828Z" fill="#EFE2DD"/>
</svg>
