<svg width="10" height="10" viewBox="0 0 10 10" fill="none" xmlns="http://www.w3.org/2000/svg">
<path d="M9.06575 1.99481C9.35865 1.70191 9.35865 1.22704 9.06575 0.934147C8.77286 0.641254 8.29799 0.641254 8.00509 0.934147L4.99989 3.93935L1.99469 0.934148C1.7018 0.641255 1.22693 0.641255 0.934035 0.934148C0.641141 1.22704 0.641142 1.70191 0.934035 1.99481L3.93923 5.00001L0.934025 8.00522C0.641132 8.29811 0.641132 8.77298 0.934025 9.06588C1.22692 9.35877 1.70179 9.35877 1.99469 9.06588L4.99989 6.06067L8.0051 9.06588C8.298 9.35877 8.77287 9.35877 9.06576 9.06588C9.35865 8.77298 9.35865 8.29811 9.06576 8.00522L6.06055 5.00001L9.06575 1.99481Z" fill="#CD5036"/>
</svg>
