<svg width="14" height="14" viewBox="0 0 14 14" fill="none" xmlns="http://www.w3.org/2000/svg">
<path d="M7.43742 4.08337C7.43742 3.84175 7.24154 3.64587 6.99992 3.64587C6.75829 3.64587 6.56242 3.84175 6.56242 4.08337V7.00004C6.56242 7.15089 6.64013 7.29109 6.76804 7.37104L8.51804 8.46479C8.72294 8.59285 8.99286 8.53056 9.12092 8.32567C9.24898 8.12077 9.18669 7.85085 8.98179 7.72279L7.43742 6.75756V4.08337Z" fill="#F9F7FF"/>
<path fill-rule="evenodd" clip-rule="evenodd" d="M6.99992 1.89587C4.18097 1.89587 1.89575 4.18109 1.89575 7.00004C1.89575 9.81899 4.18097 12.1042 6.99992 12.1042C9.81887 12.1042 12.1041 9.81899 12.1041 7.00004C12.1041 4.18109 9.81887 1.89587 6.99992 1.89587ZM2.77075 7.00004C2.77075 4.66434 4.66421 2.77087 6.99992 2.77087C9.33562 2.77087 11.2291 4.66434 11.2291 7.00004C11.2291 9.33575 9.33562 11.2292 6.99992 11.2292C4.66421 11.2292 2.77075 9.33575 2.77075 7.00004Z" fill="#F9F7FF"/>
</svg>
